<svg width="49" height="49" viewBox="0 0 49 49" fill="none" xmlns="http://www.w3.org/2000/svg">
<g clip-path="url(#clip0_799_1706)">
<path d="M10.5 18.5234C11.0304 18.5234 11.5391 18.7342 11.9142 19.1092C12.2893 19.4843 12.5 19.993 12.5 20.5234C15.6423 20.5188 18.694 21.576 21.16 23.5234H25.5C28.166 23.5234 30.56 24.6834 32.208 26.5234H38.5C40.3905 26.5229 42.2425 27.0583 43.8411 28.0675C45.4397 29.0767 46.7195 30.5184 47.532 32.2254C42.802 38.4674 35.144 42.5234 26.5 42.5234C20.92 42.5234 16.2 41.3174 12.38 39.2074C12.2401 39.5936 11.9845 39.9271 11.648 40.1626C11.3116 40.3981 10.9107 40.5241 10.5 40.5234H4.5C3.96957 40.5234 3.46086 40.3127 3.08579 39.9377C2.71071 39.5626 2.5 39.0539 2.5 38.5234V20.5234C2.5 19.993 2.71071 19.4843 3.08579 19.1092C3.46086 18.7342 3.96957 18.5234 4.5 18.5234H10.5ZM12.502 24.5234L12.5 34.5674L12.59 34.6314C16.18 37.1514 20.856 38.5234 26.5 38.5234C32.508 38.5234 38.098 36.2114 42.17 32.2634L42.436 31.9974L42.196 31.7974C41.2516 31.0578 40.1068 30.6188 38.91 30.5374L38.5 30.5234H34.278C34.422 31.1674 34.5 31.8354 34.5 32.5234V34.5234H16.5V30.5234L30.08 30.5214L30.012 30.3654C29.6287 29.5645 29.0391 28.8801 28.3038 28.3824C27.5685 27.8847 26.714 27.5917 25.828 27.5334L25.5 27.5234H19.64C18.7106 26.5729 17.6005 25.8178 16.375 25.3026C15.1495 24.7874 13.8314 24.5225 12.502 24.5234ZM8.5 22.5234H6.5V36.5234H8.5V22.5234ZM36.5 10.5234C38.0913 10.5234 39.6174 11.1556 40.7426 12.2808C41.8679 13.406 42.5 14.9321 42.5 16.5234C42.5 18.1147 41.8679 19.6409 40.7426 20.7661C39.6174 21.8913 38.0913 22.5234 36.5 22.5234C34.9087 22.5234 33.3826 21.8913 32.2574 20.7661C31.1321 19.6409 30.5 18.1147 30.5 16.5234C30.5 14.9321 31.1321 13.406 32.2574 12.2808C33.3826 11.1556 34.9087 10.5234 36.5 10.5234ZM36.5 14.5234C35.9696 14.5234 35.4609 14.7342 35.0858 15.1092C34.7107 15.4843 34.5 15.993 34.5 16.5234C34.5 17.0539 34.7107 17.5626 35.0858 17.9377C35.4609 18.3127 35.9696 18.5234 36.5 18.5234C37.0304 18.5234 37.5391 18.3127 37.9142 17.9377C38.2893 17.5626 38.5 17.0539 38.5 16.5234C38.5 15.993 38.2893 15.4843 37.9142 15.1092C37.5391 14.7342 37.0304 14.5234 36.5 14.5234ZM22.5 4.52344C24.0913 4.52344 25.6174 5.15558 26.7426 6.2808C27.8679 7.40602 28.5 8.93214 28.5 10.5234C28.5 12.1147 27.8679 13.6409 26.7426 14.7661C25.6174 15.8913 24.0913 16.5234 22.5 16.5234C20.9087 16.5234 19.3826 15.8913 18.2574 14.7661C17.1321 13.6409 16.5 12.1147 16.5 10.5234C16.5 8.93214 17.1321 7.40602 18.2574 6.2808C19.3826 5.15558 20.9087 4.52344 22.5 4.52344ZM22.5 8.52344C21.9696 8.52344 21.4609 8.73415 21.0858 9.10922C20.7107 9.4843 20.5 9.993 20.5 10.5234C20.5 11.0539 20.7107 11.5626 21.0858 11.9377C21.4609 12.3127 21.9696 12.5234 22.5 12.5234C23.0304 12.5234 23.5391 12.3127 23.9142 11.9377C24.2893 11.5626 24.5 11.0539 24.5 10.5234C24.5 9.993 24.2893 9.4843 23.9142 9.10922C23.5391 8.73415 23.0304 8.52344 22.5 8.52344Z" fill="black"/>
</g>
<defs>
<clipPath id="clip0_799_1706">
<rect width="48" height="48" fill="white" transform="translate(0.5 0.523438)"/>
</clipPath>
</defs>
</svg>
