<svg width="49" height="49" viewBox="0 0 49 49" fill="none" xmlns="http://www.w3.org/2000/svg">
<g clip-path="url(#clip0_799_1907)">
<path d="M24.5 11.1914C23.61 11.1914 22.74 10.9275 21.9999 10.433C21.2599 9.93855 20.6831 9.23575 20.3425 8.41348C20.0019 7.59122 19.9128 6.68642 20.0865 5.8135C20.2601 4.94059 20.6887 4.13876 21.318 3.50943C21.9474 2.88009 22.7492 2.45151 23.6221 2.27787C24.495 2.10424 25.3998 2.19336 26.2221 2.53395C27.0443 2.87454 27.7471 3.45132 28.2416 4.19134C28.7361 4.93136 29 5.80139 29 6.69141C28.9987 7.88448 28.5242 9.02831 27.6805 9.87194C26.8369 10.7156 25.6931 11.1901 24.5 11.1914ZM24.5 5.19141C24.2033 5.19141 23.9133 5.27938 23.6666 5.4442C23.42 5.60903 23.2277 5.84329 23.1142 6.11738C23.0007 6.39147 22.9709 6.69307 23.0288 6.98404C23.0867 7.27502 23.2296 7.54229 23.4393 7.75207C23.6491 7.96185 23.9164 8.10471 24.2074 8.16259C24.4983 8.22046 24.7999 8.19076 25.074 8.07723C25.3481 7.9637 25.5824 7.77144 25.7472 7.52476C25.912 7.27809 26 6.98808 26 6.69141C25.9996 6.29371 25.8414 5.91241 25.5602 5.63119C25.279 5.34997 24.8977 5.19181 24.5 5.19141Z" fill="black"/>
<path d="M17 45.6914C16.11 45.6914 15.24 45.4275 14.4999 44.933C13.7599 44.4386 13.1831 43.7358 12.8425 42.9135C12.5019 42.0912 12.4128 41.1864 12.5865 40.3135C12.7601 39.4406 13.1887 38.6388 13.818 38.0094C14.4474 37.3801 15.2492 36.9515 16.1221 36.7779C16.995 36.6042 17.8998 36.6934 18.7221 37.034C19.5443 37.3745 20.2471 37.9513 20.7416 38.6913C21.2361 39.4314 21.5 40.3014 21.5 41.1914C21.4987 42.3845 21.0242 43.5283 20.1805 44.3719C19.3369 45.2156 18.1931 45.6901 17 45.6914ZM17 39.6914C16.7033 39.6914 16.4133 39.7794 16.1666 39.9442C15.92 40.109 15.7277 40.3433 15.6142 40.6174C15.5007 40.8915 15.4709 41.1931 15.5288 41.484C15.5867 41.775 15.7296 42.0423 15.9393 42.2521C16.1491 42.4618 16.4164 42.6047 16.7074 42.6626C16.9983 42.7205 17.2999 42.6908 17.574 42.5772C17.8481 42.4637 18.0824 42.2714 18.2472 42.0248C18.412 41.7781 18.5 41.4881 18.5 41.1914C18.4996 40.7937 18.3414 40.4124 18.0602 40.1312C17.779 39.85 17.3977 39.6918 17 39.6914Z" fill="black"/>
<path d="M11 17.1914C10.11 17.1914 9.23996 16.9275 8.49994 16.433C7.75991 15.9386 7.18314 15.2358 6.84254 14.4135C6.50195 13.5912 6.41283 12.6864 6.58647 11.8135C6.7601 10.9406 7.18869 10.1388 7.81802 9.50943C8.44736 8.88009 9.24918 8.45151 10.1221 8.27787C10.995 8.10424 11.8998 8.19336 12.7221 8.53395C13.5443 8.87454 14.2471 9.45132 14.7416 10.1913C15.2361 10.9314 15.5 11.8014 15.5 12.6914C15.4987 13.8845 15.0242 15.0283 14.1805 15.8719C13.3369 16.7156 12.1931 17.1901 11 17.1914ZM11 11.1914C10.7033 11.1914 10.4133 11.2794 10.1666 11.4442C9.91997 11.609 9.72771 11.8433 9.61418 12.1174C9.50065 12.3915 9.47095 12.6931 9.52882 12.984C9.5867 13.275 9.72956 13.5423 9.93934 13.7521C10.1491 13.9618 10.4164 14.1047 10.7074 14.1626C10.9983 14.2205 11.2999 14.1908 11.574 14.0772C11.8481 13.9637 12.0824 13.7714 12.2472 13.5248C12.412 13.2781 12.5 12.9881 12.5 12.6914C12.4996 12.2937 12.3414 11.9124 12.0602 11.6312C11.779 11.35 11.3977 11.1918 11 11.1914Z" fill="black"/>
<path d="M32 45.6914C31.11 45.6914 30.24 45.4275 29.4999 44.933C28.7599 44.4386 28.1831 43.7358 27.8425 42.9135C27.5019 42.0912 27.4128 41.1864 27.5865 40.3135C27.7601 39.4406 28.1887 38.6388 28.818 38.0094C29.4474 37.3801 30.2492 36.9515 31.1221 36.7779C31.995 36.6042 32.8998 36.6934 33.7221 37.034C34.5443 37.3745 35.2471 37.9513 35.7416 38.6913C36.2361 39.4314 36.5 40.3014 36.5 41.1914C36.4987 42.3845 36.0242 43.5283 35.1805 44.3719C34.3369 45.2156 33.1931 45.6901 32 45.6914ZM32 39.6914C31.7033 39.6914 31.4133 39.7794 31.1666 39.9442C30.92 40.109 30.7277 40.3433 30.6142 40.6174C30.5007 40.8915 30.4709 41.1931 30.5288 41.484C30.5867 41.775 30.7296 42.0423 30.9393 42.2521C31.1491 42.4618 31.4164 42.6047 31.7074 42.6626C31.9983 42.7205 32.2999 42.6908 32.574 42.5772C32.8481 42.4637 33.0824 42.2714 33.2472 42.0248C33.412 41.7781 33.5 41.4881 33.5 41.1914C33.4996 40.7937 33.3414 40.4124 33.0602 40.1312C32.779 39.85 32.3977 39.6918 32 39.6914Z" fill="black"/>
<path d="M38 17.1914C37.11 17.1914 36.24 16.9275 35.4999 16.433C34.7599 15.9386 34.1831 15.2358 33.8425 14.4135C33.5019 13.5912 33.4128 12.6864 33.5865 11.8135C33.7601 10.9406 34.1887 10.1388 34.818 9.50943C35.4474 8.88009 36.2492 8.45151 37.1221 8.27787C37.995 8.10424 38.8998 8.19336 39.7221 8.53395C40.5443 8.87454 41.2471 9.45132 41.7416 10.1913C42.2361 10.9314 42.5 11.8014 42.5 12.6914C42.4987 13.8845 42.0242 15.0283 41.1805 15.8719C40.3369 16.7156 39.1931 17.1901 38 17.1914ZM38 11.1914C37.7033 11.1914 37.4133 11.2794 37.1666 11.4442C36.92 11.609 36.7277 11.8433 36.6142 12.1174C36.5007 12.3915 36.4709 12.6931 36.5288 12.984C36.5867 13.275 36.7296 13.5423 36.9393 13.7521C37.1491 13.9618 37.4164 14.1047 37.7074 14.1626C37.9983 14.2205 38.2999 14.1908 38.574 14.0772C38.8481 13.9637 39.0824 13.7714 39.2472 13.5248C39.412 13.2781 39.5 12.9881 39.5 12.6914C39.4996 12.2937 39.3414 11.9124 39.0602 11.6312C38.779 11.35 38.3977 11.1918 38 11.1914Z" fill="black"/>
<path d="M6.5 32.1914C5.60999 32.1914 4.73996 31.9275 3.99994 31.433C3.25991 30.9386 2.68314 30.2358 2.34254 29.4135C2.00195 28.5912 1.91283 27.6864 2.08647 26.8135C2.2601 25.9406 2.68869 25.1388 3.31802 24.5094C3.94736 23.8801 4.74918 23.4515 5.6221 23.2779C6.49501 23.1042 7.39981 23.1934 8.22208 23.534C9.04434 23.8745 9.74715 24.4513 10.2416 25.1913C10.7361 25.9314 11 26.8014 11 27.6914C10.9987 28.8845 10.5242 30.0283 9.68054 30.8719C8.83691 31.7156 7.69307 32.1901 6.5 32.1914ZM6.5 26.1914C6.20333 26.1914 5.91332 26.2794 5.66665 26.4442C5.41997 26.609 5.22771 26.8433 5.11418 27.1174C5.00065 27.3915 4.97095 27.6931 5.02882 27.984C5.0867 28.275 5.22956 28.5423 5.43934 28.7521C5.64912 28.9618 5.9164 29.1047 6.20737 29.1626C6.49834 29.2205 6.79994 29.1908 7.07403 29.0772C7.34812 28.9637 7.58238 28.7714 7.74721 28.5248C7.91203 28.2781 8 27.9881 8 27.6914C7.99961 27.2937 7.84144 26.9124 7.56022 26.6312C7.27901 26.35 6.89771 26.1918 6.5 26.1914Z" fill="black"/>
<path d="M42.5 32.1914C41.61 32.1914 40.74 31.9275 39.9999 31.433C39.2599 30.9386 38.6831 30.2358 38.3425 29.4135C38.0019 28.5912 37.9128 27.6864 38.0865 26.8135C38.2601 25.9406 38.6887 25.1388 39.318 24.5094C39.9474 23.8801 40.7492 23.4515 41.6221 23.2779C42.495 23.1042 43.3998 23.1934 44.2221 23.534C45.0443 23.8745 45.7471 24.4513 46.2416 25.1913C46.7361 25.9314 47 26.8014 47 27.6914C46.9987 28.8845 46.5242 30.0283 45.6805 30.8719C44.8369 31.7156 43.6931 32.1901 42.5 32.1914ZM42.5 26.1914C42.2033 26.1914 41.9133 26.2794 41.6666 26.4442C41.42 26.609 41.2277 26.8433 41.1142 27.1174C41.0007 27.3915 40.9709 27.6931 41.0288 27.984C41.0867 28.275 41.2296 28.5423 41.4393 28.7521C41.6491 28.9618 41.9164 29.1047 42.2074 29.1626C42.4983 29.2205 42.7999 29.1908 43.074 29.0772C43.3481 28.9637 43.5824 28.7714 43.7472 28.5248C43.912 28.2781 44 27.9881 44 27.6914C43.9996 27.2937 43.8414 26.9124 43.5602 26.6312C43.279 26.35 42.8977 26.1918 42.5 26.1914Z" fill="black"/>
<path d="M24.5 33.6914C22.72 33.6914 20.9799 33.1636 19.4999 32.1746C18.0198 31.1857 16.8663 29.7801 16.1851 28.1356C15.5039 26.491 15.3257 24.6814 15.6729 22.9356C16.0202 21.1898 16.8774 19.5861 18.136 18.3274C19.3947 17.0688 20.9984 16.2116 22.7442 15.8643C24.49 15.5171 26.2996 15.6953 27.9442 16.3765C29.5887 17.0577 30.9943 18.2112 31.9832 19.6913C32.9722 21.1713 33.5 22.9114 33.5 24.6914C33.4973 27.0775 32.5482 29.3651 30.8609 31.0523C29.1737 32.7396 26.8861 33.6887 24.5 33.6914ZM24.5 18.6914C23.3133 18.6914 22.1533 19.0433 21.1666 19.7026C20.1799 20.3619 19.4109 21.299 18.9567 22.3953C18.5026 23.4917 18.3838 24.6981 18.6153 25.862C18.8468 27.0258 19.4182 28.0949 20.2574 28.934C21.0965 29.7732 22.1656 30.3446 23.3295 30.5761C24.4933 30.8076 25.6997 30.6888 26.7961 30.2347C27.8925 29.7806 28.8295 29.0115 29.4888 28.0248C30.1481 27.0381 30.5 25.8781 30.5 24.6914C30.4982 23.1007 29.8655 21.5756 28.7407 20.4507C27.6158 19.3259 26.0908 18.6932 24.5 18.6914Z" fill="black"/>
</g>
<defs>
<clipPath id="clip0_799_1907">
<rect width="48" height="48" fill="white" transform="translate(0.5 0.691406)"/>
</clipPath>
</defs>
</svg>
