<svg width="49" height="49" viewBox="0 0 49 49" fill="none" xmlns="http://www.w3.org/2000/svg">
<g clip-path="url(#clip0_799_960)">
<path d="M38.4996 17.5714L27.8336 9.27536C26.8975 8.54718 25.7455 8.15182 24.5596 8.15182C23.3737 8.15182 22.2216 8.54718 21.2856 9.27536L10.6176 17.5714C9.97646 18.0699 9.45776 18.7084 9.10108 19.4381C8.74441 20.1677 8.55919 20.9692 8.55957 21.7814V36.1814C8.55957 37.2422 8.981 38.2596 9.73114 39.0098C10.4813 39.7599 11.4987 40.1814 12.5596 40.1814H36.5596C37.6204 40.1814 38.6379 39.7599 39.388 39.0098C40.1381 38.2596 40.5596 37.2422 40.5596 36.1814V21.7814C40.5596 20.1354 39.7996 18.5814 38.4996 17.5714Z" stroke="black" stroke-width="4" stroke-linecap="round" stroke-linejoin="round"/>
<path d="M32.5 30.1514C28.08 32.8174 20.916 32.8174 16.5 30.1514" stroke="black" stroke-width="4" stroke-linecap="round" stroke-linejoin="round"/>
</g>
<defs>
<clipPath id="clip0_799_960">
<rect width="48" height="48" fill="white" transform="translate(0.5 0.151367)"/>
</clipPath>
</defs>
</svg>
