<svg width="49" height="49" viewBox="0 0 49 49" fill="none" xmlns="http://www.w3.org/2000/svg">
<path d="M7.5 39.4917C7.5 40.8178 8.02678 42.0896 8.96447 43.0272C9.90215 43.9649 11.1739 44.4917 12.5 44.4917C13.8261 44.4917 15.0979 43.9649 16.0355 43.0272C16.9732 42.0896 17.5 40.8178 17.5 39.4917C17.5 38.1656 16.9732 36.8938 16.0355 35.9562C15.0979 35.0185 13.8261 34.4917 12.5 34.4917C11.1739 34.4917 9.90215 35.0185 8.96447 35.9562C8.02678 36.8938 7.5 38.1656 7.5 39.4917Z" stroke="black" stroke-width="4"/>
<path d="M31.5 39.4917C31.5 40.8178 32.0268 42.0896 32.9645 43.0272C33.9021 43.9649 35.1739 44.4917 36.5 44.4917C37.8261 44.4917 39.0979 43.9649 40.0355 43.0272C40.9732 42.0896 41.5 40.8178 41.5 39.4917C41.5 38.1656 40.9732 36.8938 40.0355 35.9562C39.0979 35.0185 37.8261 34.4917 36.5 34.4917C35.1739 34.4917 33.9021 35.0185 32.9645 35.9562C32.0268 36.8938 31.5 38.1656 31.5 39.4917Z" stroke="black" stroke-width="4"/>
<path d="M9.40836 35.5619L5.5 21.4917H43.5L39.5916 35.5619" stroke="black" stroke-width="4"/>
<path d="M17.5 39.4917H31.5" stroke="black" stroke-width="4"/>
<path d="M9.5 16.4917V12.4917L15.5 8.4917L21.5 11.4917L29.5 5.4917L39.5 12.4917V16.4917" stroke="black" stroke-width="4"/>
</svg>
