<svg width="49" height="49" viewBox="0 0 49 49" fill="none" xmlns="http://www.w3.org/2000/svg">
<path d="M19.5 6.76172H29.5C30.2956 6.76172 31.0587 7.07779 31.6213 7.6404C32.1839 8.20301 32.5 8.96607 32.5 9.76172C32.5 11.6182 31.7625 13.3987 30.4497 14.7115C29.137 16.0242 27.3565 16.7617 25.5 16.7617H23.5C21.6435 16.7617 19.863 16.0242 18.5503 14.7115C17.2375 13.3987 16.5 11.6182 16.5 9.76172C16.5 8.96607 16.8161 8.20301 17.3787 7.6404C17.9413 7.07779 18.7044 6.76172 19.5 6.76172Z" stroke="black" stroke-width="4" stroke-linecap="round" stroke-linejoin="round"/>
<path d="M8.5 34.7617V32.7617C8.5 28.5183 10.1857 24.4486 13.1863 21.448C16.1869 18.4474 20.2565 16.7617 24.5 16.7617C28.7435 16.7617 32.8131 18.4474 35.8137 21.448C38.8143 24.4486 40.5 28.5183 40.5 32.7617V34.7617C40.5 36.8835 39.6571 38.9183 38.1569 40.4186C36.6566 41.9189 34.6217 42.7617 32.5 42.7617H16.5C14.3783 42.7617 12.3434 41.9189 10.8431 40.4186C9.34285 38.9183 8.5 36.8835 8.5 34.7617Z" stroke="black" stroke-width="4" stroke-linecap="round" stroke-linejoin="round"/>
</svg>
