<svg width="49" height="49" viewBox="0 0 49 49" fill="none" xmlns="http://www.w3.org/2000/svg">
<path fill-rule="evenodd" clip-rule="evenodd" d="M43.3268 24.4124C43.3268 35.0163 34.7307 43.6124 24.1268 43.6124C13.5229 43.6124 4.92676 35.0163 4.92676 24.4124C4.92676 13.8085 13.5229 5.2124 24.1268 5.2124C34.7307 5.2124 43.3268 13.8085 43.3268 24.4124ZM28.9268 17.2124C28.9268 19.8634 26.7778 22.0124 24.1268 22.0124C21.4758 22.0124 19.3268 19.8634 19.3268 17.2124C19.3268 14.5614 21.4758 12.4124 24.1268 12.4124C26.7778 12.4124 28.9268 14.5614 28.9268 17.2124ZM24.1266 26.8124C19.2845 26.8124 15.1122 29.6804 13.2157 33.8101C15.8564 36.8732 19.7651 38.8124 24.1267 38.8124C28.4883 38.8124 32.3969 36.8734 35.0376 33.8103C33.1412 29.6804 28.9688 26.8124 24.1266 26.8124Z" fill="black"/>
</svg>
