<svg width="48" height="49" viewBox="0 0 48 49" fill="none" xmlns="http://www.w3.org/2000/svg">
<g clip-path="url(#clip0_2097_2227)">
<path d="M39.6 35.4124H8.4C7.74 35.4124 7.2 35.9749 7.2 36.6624V39.1624C7.2 39.8499 7.74 40.4124 8.4 40.4124H39.6C40.26 40.4124 40.8 39.8499 40.8 39.1624V36.6624C40.8 35.9749 40.26 35.4124 39.6 35.4124ZM44.4 10.4124C42.4125 10.4124 40.8 12.092 40.8 14.1624C40.8 14.717 40.92 15.2327 41.13 15.7092L35.7 19.0999C34.545 19.8186 33.0525 19.4124 32.385 18.1936L26.2725 7.05298C27.075 6.36548 27.6 5.33423 27.6 4.16235C27.6 2.09204 25.9875 0.412354 24 0.412354C22.0125 0.412354 20.4 2.09204 20.4 4.16235C20.4 5.33423 20.925 6.36548 21.7275 7.05298L15.615 18.1936C14.9475 19.4124 13.4475 19.8186 12.3 19.0999L6.8775 15.7092C7.08 15.2405 7.2075 14.717 7.2075 14.1624C7.2075 12.092 5.595 10.4124 3.6075 10.4124C1.62 10.4124 0 12.092 0 14.1624C0 16.2327 1.6125 17.9124 3.6 17.9124C3.795 17.9124 3.99 17.8811 4.1775 17.8499L9.6 32.9124H38.4L43.8225 17.8499C44.01 17.8811 44.205 17.9124 44.4 17.9124C46.3875 17.9124 48 16.2327 48 14.1624C48 12.092 46.3875 10.4124 44.4 10.4124Z" fill="black"/>
</g>
<defs>
<clipPath id="clip0_2097_2227">
<rect width="48" height="48" fill="white" transform="translate(0 0.412354)"/>
</clipPath>
</defs>
</svg>