<svg width="48" height="49" viewBox="0 0 48 49" fill="none" xmlns="http://www.w3.org/2000/svg">
<g clip-path="url(#clip0_2096_2222)">
<path d="M4 40.4124H44V44.4124H4V40.4124ZM8 24.4124H12V38.4124H8V24.4124ZM18 24.4124H22V38.4124H18V24.4124ZM26 24.4124H30V38.4124H26V24.4124ZM36 24.4124H40V38.4124H36V24.4124ZM4 14.4124L24 4.41235L44 14.4124V22.4124H4V14.4124ZM24 16.4124C24.5304 16.4124 25.0391 16.2016 25.4142 15.8266C25.7893 15.4515 26 14.9428 26 14.4124C26 13.8819 25.7893 13.3732 25.4142 12.9981C25.0391 12.6231 24.5304 12.4124 24 12.4124C23.4696 12.4124 22.9609 12.6231 22.5858 12.9981C22.2107 13.3732 22 13.8819 22 14.4124C22 14.9428 22.2107 15.4515 22.5858 15.8266C22.9609 16.2016 23.4696 16.4124 24 16.4124Z" fill="black"/>
</g>
<defs>
<clipPath id="clip0_2096_2222">
<rect width="48" height="48" fill="white" transform="translate(0 0.412354)"/>
</clipPath>
</defs>
</svg>