<svg width="383" height="290" viewBox="0 0 383 290" fill="none" xmlns="http://www.w3.org/2000/svg">
<rect width="11.6" height="11.6" transform="matrix(6.24105e-08 1 1 -6.24105e-08 174.581 220.4)" fill="#131200"/>
<rect width="11.6" height="11.6" transform="matrix(6.24105e-08 1 1 -6.24105e-08 162.401 243.6)" fill="#131200"/>
<rect width="11.6" height="11.6" transform="matrix(6.24105e-08 1 1 -6.24105e-08 174.581 232)" fill="#131200"/>
<rect width="208.8" height="11.6" transform="matrix(6.24105e-08 1 1 -6.24105e-08 371.201 11.5996)" fill="#131200"/>
<rect width="208.8" height="11.6" transform="matrix(6.24105e-08 1 1 -6.24105e-08 0.000793457 11.5996)" fill="#131200"/>
<rect width="11.6" height="11.6" transform="matrix(6.24105e-08 1 1 -6.24105e-08 162.401 255.2)" fill="#131200"/>
<rect width="11.6" height="11.6" transform="matrix(6.24105e-08 1 1 -6.24105e-08 150.801 266.8)" fill="#131200"/>
<rect width="11.6" height="11.6" transform="matrix(6.24105e-08 1 1 -6.24105e-08 139.201 232)" fill="#131200"/>
<rect width="11.6" height="11.6" transform="matrix(6.24105e-08 1 1 -6.24105e-08 139.201 266.8)" fill="#131200"/>
<rect width="11.6" height="11.6" transform="matrix(6.24105e-08 1 1 -6.24105e-08 139.201 243.6)" fill="#131200"/>
<rect width="11.6" height="11.6" transform="matrix(6.24105e-08 1 1 -6.24105e-08 139.201 278.4)" fill="#131200"/>
<rect width="11.6" height="11.6" transform="matrix(6.24105e-08 1 1 -6.24105e-08 139.201 220.4)" fill="#131200"/>
<rect width="11.6" height="185.6" transform="matrix(6.24105e-08 1 1 -6.24105e-08 185.601 220.4)" fill="#131200"/>
<rect width="11.6" height="127.6" transform="matrix(6.24105e-08 1 1 -6.24105e-08 11.6008 220.4)" fill="#131200"/>
<rect width="11.6" height="359.6" transform="matrix(6.24105e-08 1 1 -6.24105e-08 11.6008 0)" fill="#131200"/>
<rect width="11.6" height="11.6" transform="matrix(6.24105e-08 1 1 -6.24105e-08 139.201 255.2)" fill="#131200"/>
<path d="M43.4004 63V48H52.4004V51H55.4004V60H52.4004V63H43.4004ZM46.4004 54H52.2804V51H46.4004V54ZM46.4004 60H52.2804V57H46.4004V60ZM59.9604 63V48H68.9604V51H62.9604V54H68.9604V57H62.9604V60H68.9604V63H59.9604ZM84.0804 63V51H87.0804V48H93.0804V51H96.0804V63H93.0804V57H87.0804V63H84.0804ZM87.0804 54H93.0804V51.12H87.0804V54ZM100.64 63V48H103.64V51H106.64V54H109.64V57H106.64V54H103.64V63H100.64ZM112.64 63V54H109.64V51H112.64V48H115.64V63H112.64ZM123.2 63V60H120.2V51H123.2V48H129.2V51H132.2V60H129.2V63H123.2ZM123.2 59.88H129.2V51.12H123.2V59.88ZM136.76 63V48H139.76V51H142.76V54H145.76V57H148.76V48H151.76V63H148.76V60H145.76V57H142.76V54H139.76V63H136.76ZM159.32 51V48H168.32V51H159.32ZM156.32 60V51H159.32V60H156.32ZM165.32 60V57H162.32V54H168.32V60H165.32ZM159.32 63V60H165.32V63H159.32ZM186.44 63V51H183.44V48H192.44V51H189.44V63H186.44ZM197 63V48H200V54H206V48H209V63H206V57H200V63H197ZM213.56 63V48H222.56V51H216.56V54H222.56V57H216.56V60H222.56V63H213.56ZM237.68 63V48H246.68V51H240.68V54H246.68V57H240.68V63H237.68ZM251.24 63V48H254.24V63H251.24ZM258.8 63V48H267.8V51H270.8V54H267.8V60H270.8V63H267.8V60H264.8V57H261.8V63H258.8ZM261.8 54H267.68V51H261.8V54ZM278.36 51V48H287.36V51H278.36ZM284.36 60V57H278.36V54H275.36V51H278.36V54H284.36V57H287.36V60H284.36ZM275.36 63V60H284.36V63H275.36ZM294.92 63V51H291.92V48H300.92V51H297.92V63H294.92ZM319.04 63V51H316.04V48H325.04V51H322.04V63H319.04ZM332.6 63V60H329.6V51H332.6V48H338.6V51H341.6V60H338.6V63H332.6ZM332.6 59.88H338.6V51.12H332.6V59.88ZM43.4004 94V79H46.4004V82H49.4004V85H52.4004V88H49.4004V85H46.4004V94H43.4004ZM55.4004 94V85H52.4004V82H55.4004V79H58.4004V94H55.4004ZM62.9604 94V79H65.9604V94H62.9604ZM70.5204 94V79H73.5204V82H76.5204V85H79.5204V88H82.5204V79H85.5204V94H82.5204V91H79.5204V88H76.5204V85H73.5204V94H70.5204ZM90.0804 94V79H99.0804V82H93.0804V85H99.0804V88H93.0804V91H99.0804V94H90.0804ZM106.64 94V91H109.64V94H106.64ZM103.64 97V94H106.64V97H103.64ZM124.76 94V79H133.76V82H127.76V85H133.76V88H127.76V91H133.76V94H124.76ZM138.32 94V79H141.32V82H144.32V85H147.32V88H150.32V79H153.32V94H150.32V91H147.32V88H144.32V85H141.32V94H138.32ZM160.88 82V79H169.88V82H160.88ZM157.88 91V82H160.88V91H157.88ZM166.88 91V88H163.88V85H169.88V91H166.88ZM160.88 94V91H166.88V94H160.88ZM174.44 94V82H177.44V79H183.44V82H186.44V94H183.44V88H177.44V94H174.44ZM177.44 85H183.44V82.12H177.44V85ZM194 82V79H203V82H194ZM191 91V82H194V91H191ZM200 91V88H197V85H203V91H200ZM194 94V91H200V94H194ZM207.56 94V79H216.56V82H210.56V85H216.56V88H210.56V91H216.56V94H207.56ZM224.12 94V91H227.12V94H224.12ZM221.12 97V94H224.12V97H221.12ZM242.24 94V82H245.24V79H251.24V82H254.24V94H251.24V88H245.24V94H242.24ZM245.24 85H251.24V82.12H245.24V85ZM258.8 94V79H261.8V82H264.8V85H267.8V88H270.8V79H273.8V94H270.8V91H267.8V88H264.8V85H261.8V94H258.8ZM278.36 94V79H287.36V82H290.36V91H287.36V94H278.36ZM281.36 91H287.24V82H281.36V91ZM46.4004 113V110H55.4004V113H46.4004ZM52.4004 122V119H46.4004V116H43.4004V113H46.4004V116H52.4004V119H55.4004V122H52.4004ZM43.4004 125V122H52.4004V125H43.4004ZM59.9604 125V110H62.9604V116H68.9604V110H71.9604V125H68.9604V119H62.9604V125H59.9604ZM76.5204 125V113H79.5204V110H85.5204V113H88.5204V125H85.5204V119H79.5204V125H76.5204ZM79.5204 116H85.5204V113.12H79.5204V116ZM93.0804 125V110H102.08V113H105.08V116H102.08V119H96.0804V125H93.0804ZM96.0804 116H101.96V113H96.0804V116ZM109.64 125V110H118.64V113H112.64V116H118.64V119H112.64V122H118.64V125H109.64ZM136.76 125V113H133.76V110H142.76V113H139.76V125H136.76ZM147.32 125V110H150.32V116H156.32V110H159.32V125H156.32V119H150.32V125H147.32ZM163.88 125V110H172.88V113H166.88V116H172.88V119H166.88V122H172.88V125H163.88ZM188 125V110H197V113H191V116H197V119H191V125H188ZM204.56 125V122H201.56V110H204.56V122H210.56V125H204.56ZM210.56 122V110H213.56V122H210.56ZM221.12 125V113H218.12V110H227.12V113H224.12V125H221.12ZM234.68 125V122H231.68V110H234.68V122H240.68V125H234.68ZM240.68 122V110H243.68V122H240.68ZM248.24 125V110H257.24V113H260.24V116H257.24V122H260.24V125H257.24V122H254.24V119H251.24V125H248.24ZM251.24 116H257.12V113H251.24V116ZM264.8 125V110H273.8V113H267.8V116H273.8V119H267.8V122H273.8V125H264.8ZM291.92 125V122H288.92V113H291.92V110H297.92V113H300.92V122H297.92V125H291.92ZM291.92 121.88H297.92V113.12H291.92V121.88ZM305.48 125V110H314.48V113H308.48V116H314.48V119H308.48V125H305.48ZM43.4004 156V141H46.4004V144H49.4004V147H52.4004V150H49.4004V147H46.4004V156H43.4004ZM55.4004 156V147H52.4004V144H55.4004V141H58.4004V156H55.4004ZM62.9604 156V141H71.9604V144H65.9604V147H71.9604V150H65.9604V153H71.9604V156H62.9604ZM76.5204 156V141H79.5204V144H82.5204V147H85.5204V150H82.5204V147H79.5204V156H76.5204ZM88.5204 156V147H85.5204V144H88.5204V141H91.5204V156H88.5204ZM96.0804 156V141H105.08V144H99.0804V147H105.08V150H99.0804V153H105.08V156H96.0804ZM109.64 150V147H118.64V150H109.64ZM123.2 156V141H132.2V144H135.2V147H132.2V150H126.2V156H123.2ZM126.2 147H132.08V144H126.2V147ZM142.76 156V153H139.76V144H142.76V141H148.76V144H151.76V153H148.76V156H142.76ZM142.76 152.88H148.76V144.12H142.76V152.88ZM159.32 156V153H156.32V141H159.32V153H162.32V156H159.32ZM168.32 153V141H171.32V153H168.32ZM165.32 156V153H162.32V144H165.32V153H168.32V156H165.32ZM175.88 156V141H184.88V144H178.88V147H184.88V150H178.88V153H184.88V156H175.88ZM189.44 156V141H198.44V144H201.44V147H198.44V153H201.44V156H198.44V153H195.44V150H192.44V156H189.44ZM192.44 147H198.32V144H192.44V147ZM206 156V141H215V144H209V147H215V150H209V153H215V156H206ZM219.56 156V141H228.56V144H231.56V153H228.56V156H219.56ZM222.56 153H228.44V144H222.56V153ZM43.4004 187V172H52.4004V175H55.4004V184H52.4004V187H43.4004ZM46.4004 178H52.2804V175H46.4004V178ZM46.4004 184H52.2804V181H46.4004V184ZM59.9604 187V172H62.9604V184H68.9604V187H59.9604ZM76.5204 187V184H73.5204V175H76.5204V172H82.5204V175H85.5204V184H82.5204V187H76.5204ZM76.5204 183.88H82.5204V175.12H76.5204V183.88ZM99.0804 178V175H93.0804V172H99.0804V175H102.08V178H99.0804ZM93.0804 187V184H90.0804V175H93.0804V184H99.0804V187H93.0804ZM99.0804 184V181H102.08V184H99.0804ZM106.64 187V172H109.64V178H112.64V181H115.64V184H118.64V187H115.64V184H112.64V181H109.64V187H106.64ZM115.64 175V172H118.64V175H115.64ZM112.64 178V175H115.64V178H112.64ZM132.2 178V175H126.2V172H132.2V175H135.2V178H132.2ZM126.2 187V184H123.2V175H126.2V184H132.2V187H126.2ZM132.2 184V181H135.2V184H132.2ZM139.76 187V172H142.76V178H148.76V172H151.76V187H148.76V181H142.76V187H139.76ZM156.32 187V175H159.32V172H165.32V175H168.32V187H165.32V181H159.32V187H156.32ZM159.32 178H165.32V175.12H159.32V178ZM172.88 187V172H175.88V187H172.88ZM180.44 187V172H183.44V175H186.44V178H189.44V181H192.44V172H195.44V187H192.44V184H189.44V181H186.44V178H183.44V187H180.44ZM213.56 175V172H222.56V175H213.56ZM210.56 184V175H213.56V184H210.56ZM219.56 184V181H216.56V178H222.56V184H219.56ZM213.56 187V184H219.56V187H213.56ZM227.12 187V175H230.12V172H236.12V175H239.12V187H236.12V181H230.12V187H227.12ZM230.12 178H236.12V175.12H230.12V178ZM243.68 187V172H246.68V175H249.68V178H252.68V181H249.68V178H246.68V187H243.68ZM255.68 187V178H252.68V175H255.68V172H258.68V187H255.68ZM263.24 187V172H266.24V187H263.24ZM270.8 187V172H273.8V175H276.8V178H279.8V181H282.8V172H285.8V187H282.8V184H279.8V181H276.8V178H273.8V187H270.8ZM293.36 175V172H302.36V175H293.36ZM290.36 184V175H293.36V184H290.36ZM299.36 184V181H296.36V178H302.36V184H299.36ZM293.36 187V184H299.36V187H293.36ZM306.92 187V184H309.92V187H306.92Z" fill="#87B497"/>
<path d="M43.4004 63V48H52.4004V51H55.4004V60H52.4004V63H43.4004ZM46.4004 54H52.2804V51H46.4004V54ZM46.4004 60H52.2804V57H46.4004V60ZM59.9604 63V48H68.9604V51H62.9604V54H68.9604V57H62.9604V60H68.9604V63H59.9604ZM84.0804 63V51H87.0804V48H93.0804V51H96.0804V63H93.0804V57H87.0804V63H84.0804ZM87.0804 54H93.0804V51.12H87.0804V54ZM100.64 63V48H103.64V51H106.64V54H109.64V57H106.64V54H103.64V63H100.64ZM112.64 63V54H109.64V51H112.64V48H115.64V63H112.64ZM123.2 63V60H120.2V51H123.2V48H129.2V51H132.2V60H129.2V63H123.2ZM123.2 59.88H129.2V51.12H123.2V59.88ZM136.76 63V48H139.76V51H142.76V54H145.76V57H148.76V48H151.76V63H148.76V60H145.76V57H142.76V54H139.76V63H136.76ZM159.32 51V48H168.32V51H159.32ZM156.32 60V51H159.32V60H156.32ZM165.32 60V57H162.32V54H168.32V60H165.32ZM159.32 63V60H165.32V63H159.32ZM186.44 63V51H183.44V48H192.44V51H189.44V63H186.44ZM197 63V48H200V54H206V48H209V63H206V57H200V63H197ZM213.56 63V48H222.56V51H216.56V54H222.56V57H216.56V60H222.56V63H213.56ZM237.68 63V48H246.68V51H240.68V54H246.68V57H240.68V63H237.68ZM251.24 63V48H254.24V63H251.24ZM258.8 63V48H267.8V51H270.8V54H267.8V60H270.8V63H267.8V60H264.8V57H261.8V63H258.8ZM261.8 54H267.68V51H261.8V54ZM278.36 51V48H287.36V51H278.36ZM284.36 60V57H278.36V54H275.36V51H278.36V54H284.36V57H287.36V60H284.36ZM275.36 63V60H284.36V63H275.36ZM294.92 63V51H291.92V48H300.92V51H297.92V63H294.92ZM319.04 63V51H316.04V48H325.04V51H322.04V63H319.04ZM332.6 63V60H329.6V51H332.6V48H338.6V51H341.6V60H338.6V63H332.6ZM332.6 59.88H338.6V51.12H332.6V59.88ZM43.4004 94V79H46.4004V82H49.4004V85H52.4004V88H49.4004V85H46.4004V94H43.4004ZM55.4004 94V85H52.4004V82H55.4004V79H58.4004V94H55.4004ZM62.9604 94V79H65.9604V94H62.9604ZM70.5204 94V79H73.5204V82H76.5204V85H79.5204V88H82.5204V79H85.5204V94H82.5204V91H79.5204V88H76.5204V85H73.5204V94H70.5204ZM90.0804 94V79H99.0804V82H93.0804V85H99.0804V88H93.0804V91H99.0804V94H90.0804ZM106.64 94V91H109.64V94H106.64ZM103.64 97V94H106.64V97H103.64ZM124.76 94V79H133.76V82H127.76V85H133.76V88H127.76V91H133.76V94H124.76ZM138.32 94V79H141.32V82H144.32V85H147.32V88H150.32V79H153.32V94H150.32V91H147.32V88H144.32V85H141.32V94H138.32ZM160.88 82V79H169.88V82H160.88ZM157.88 91V82H160.88V91H157.88ZM166.88 91V88H163.88V85H169.88V91H166.88ZM160.88 94V91H166.88V94H160.88ZM174.44 94V82H177.44V79H183.44V82H186.44V94H183.44V88H177.44V94H174.44ZM177.44 85H183.44V82.12H177.44V85ZM194 82V79H203V82H194ZM191 91V82H194V91H191ZM200 91V88H197V85H203V91H200ZM194 94V91H200V94H194ZM207.56 94V79H216.56V82H210.56V85H216.56V88H210.56V91H216.56V94H207.56ZM224.12 94V91H227.12V94H224.12ZM221.12 97V94H224.12V97H221.12ZM242.24 94V82H245.24V79H251.24V82H254.24V94H251.24V88H245.24V94H242.24ZM245.24 85H251.24V82.12H245.24V85ZM258.8 94V79H261.8V82H264.8V85H267.8V88H270.8V79H273.8V94H270.8V91H267.8V88H264.8V85H261.8V94H258.8ZM278.36 94V79H287.36V82H290.36V91H287.36V94H278.36ZM281.36 91H287.24V82H281.36V91ZM46.4004 113V110H55.4004V113H46.4004ZM52.4004 122V119H46.4004V116H43.4004V113H46.4004V116H52.4004V119H55.4004V122H52.4004ZM43.4004 125V122H52.4004V125H43.4004ZM59.9604 125V110H62.9604V116H68.9604V110H71.9604V125H68.9604V119H62.9604V125H59.9604ZM76.5204 125V113H79.5204V110H85.5204V113H88.5204V125H85.5204V119H79.5204V125H76.5204ZM79.5204 116H85.5204V113.12H79.5204V116ZM93.0804 125V110H102.08V113H105.08V116H102.08V119H96.0804V125H93.0804ZM96.0804 116H101.96V113H96.0804V116ZM109.64 125V110H118.64V113H112.64V116H118.64V119H112.64V122H118.64V125H109.64ZM136.76 125V113H133.76V110H142.76V113H139.76V125H136.76ZM147.32 125V110H150.32V116H156.32V110H159.32V125H156.32V119H150.32V125H147.32ZM163.88 125V110H172.88V113H166.88V116H172.88V119H166.88V122H172.88V125H163.88ZM188 125V110H197V113H191V116H197V119H191V125H188ZM204.56 125V122H201.56V110H204.56V122H210.56V125H204.56ZM210.56 122V110H213.56V122H210.56ZM221.12 125V113H218.12V110H227.12V113H224.12V125H221.12ZM234.68 125V122H231.68V110H234.68V122H240.68V125H234.68ZM240.68 122V110H243.68V122H240.68ZM248.24 125V110H257.24V113H260.24V116H257.24V122H260.24V125H257.24V122H254.24V119H251.24V125H248.24ZM251.24 116H257.12V113H251.24V116ZM264.8 125V110H273.8V113H267.8V116H273.8V119H267.8V122H273.8V125H264.8ZM291.92 125V122H288.92V113H291.92V110H297.92V113H300.92V122H297.92V125H291.92ZM291.92 121.88H297.92V113.12H291.92V121.88ZM305.48 125V110H314.48V113H308.48V116H314.48V119H308.48V125H305.48ZM43.4004 156V141H46.4004V144H49.4004V147H52.4004V150H49.4004V147H46.4004V156H43.4004ZM55.4004 156V147H52.4004V144H55.4004V141H58.4004V156H55.4004ZM62.9604 156V141H71.9604V144H65.9604V147H71.9604V150H65.9604V153H71.9604V156H62.9604ZM76.5204 156V141H79.5204V144H82.5204V147H85.5204V150H82.5204V147H79.5204V156H76.5204ZM88.5204 156V147H85.5204V144H88.5204V141H91.5204V156H88.5204ZM96.0804 156V141H105.08V144H99.0804V147H105.08V150H99.0804V153H105.08V156H96.0804ZM109.64 150V147H118.64V150H109.64ZM123.2 156V141H132.2V144H135.2V147H132.2V150H126.2V156H123.2ZM126.2 147H132.08V144H126.2V147ZM142.76 156V153H139.76V144H142.76V141H148.76V144H151.76V153H148.76V156H142.76ZM142.76 152.88H148.76V144.12H142.76V152.88ZM159.32 156V153H156.32V141H159.32V153H162.32V156H159.32ZM168.32 153V141H171.32V153H168.32ZM165.32 156V153H162.32V144H165.32V153H168.32V156H165.32ZM175.88 156V141H184.88V144H178.88V147H184.88V150H178.88V153H184.88V156H175.88ZM189.44 156V141H198.44V144H201.44V147H198.44V153H201.44V156H198.44V153H195.44V150H192.44V156H189.44ZM192.44 147H198.32V144H192.44V147ZM206 156V141H215V144H209V147H215V150H209V153H215V156H206ZM219.56 156V141H228.56V144H231.56V153H228.56V156H219.56ZM222.56 153H228.44V144H222.56V153ZM43.4004 187V172H52.4004V175H55.4004V184H52.4004V187H43.4004ZM46.4004 178H52.2804V175H46.4004V178ZM46.4004 184H52.2804V181H46.4004V184ZM59.9604 187V172H62.9604V184H68.9604V187H59.9604ZM76.5204 187V184H73.5204V175H76.5204V172H82.5204V175H85.5204V184H82.5204V187H76.5204ZM76.5204 183.88H82.5204V175.12H76.5204V183.88ZM99.0804 178V175H93.0804V172H99.0804V175H102.08V178H99.0804ZM93.0804 187V184H90.0804V175H93.0804V184H99.0804V187H93.0804ZM99.0804 184V181H102.08V184H99.0804ZM106.64 187V172H109.64V178H112.64V181H115.64V184H118.64V187H115.64V184H112.64V181H109.64V187H106.64ZM115.64 175V172H118.64V175H115.64ZM112.64 178V175H115.64V178H112.64ZM132.2 178V175H126.2V172H132.2V175H135.2V178H132.2ZM126.2 187V184H123.2V175H126.2V184H132.2V187H126.2ZM132.2 184V181H135.2V184H132.2ZM139.76 187V172H142.76V178H148.76V172H151.76V187H148.76V181H142.76V187H139.76ZM156.32 187V175H159.32V172H165.32V175H168.32V187H165.32V181H159.32V187H156.32ZM159.32 178H165.32V175.12H159.32V178ZM172.88 187V172H175.88V187H172.88ZM180.44 187V172H183.44V175H186.44V178H189.44V181H192.44V172H195.44V187H192.44V184H189.44V181H186.44V178H183.44V187H180.44ZM213.56 175V172H222.56V175H213.56ZM210.56 184V175H213.56V184H210.56ZM219.56 184V181H216.56V178H222.56V184H219.56ZM213.56 187V184H219.56V187H213.56ZM227.12 187V175H230.12V172H236.12V175H239.12V187H236.12V181H230.12V187H227.12ZM230.12 178H236.12V175.12H230.12V178ZM243.68 187V172H246.68V175H249.68V178H252.68V181H249.68V178H246.68V187H243.68ZM255.68 187V178H252.68V175H255.68V172H258.68V187H255.68ZM263.24 187V172H266.24V187H263.24ZM270.8 187V172H273.8V175H276.8V178H279.8V181H282.8V172H285.8V187H282.8V184H279.8V181H276.8V178H273.8V187H270.8ZM293.36 175V172H302.36V175H293.36ZM290.36 184V175H293.36V184H290.36ZM299.36 184V181H296.36V178H302.36V184H299.36ZM293.36 187V184H299.36V187H293.36ZM306.92 187V184H309.92V187H306.92Z" fill="#131200"/>
</svg>
