<svg width="383" height="290" viewBox="0 0 383 290" fill="none" xmlns="http://www.w3.org/2000/svg">
<rect width="11.6" height="11.6" transform="matrix(6.24105e-08 1 1 -6.24105e-08 174.581 220.4)" fill="#131200"/>
<rect width="11.6" height="11.6" transform="matrix(6.24105e-08 1 1 -6.24105e-08 162.401 243.6)" fill="#131200"/>
<rect width="11.6" height="11.6" transform="matrix(6.24105e-08 1 1 -6.24105e-08 174.581 232)" fill="#131200"/>
<rect width="208.8" height="11.6" transform="matrix(6.24105e-08 1 1 -6.24105e-08 371.201 11.5996)" fill="#131200"/>
<rect width="208.8" height="11.6" transform="matrix(6.24105e-08 1 1 -6.24105e-08 0.000793457 11.5996)" fill="#131200"/>
<rect width="11.6" height="11.6" transform="matrix(6.24105e-08 1 1 -6.24105e-08 162.401 255.2)" fill="#131200"/>
<rect width="11.6" height="11.6" transform="matrix(6.24105e-08 1 1 -6.24105e-08 150.801 266.8)" fill="#131200"/>
<rect width="11.6" height="11.6" transform="matrix(6.24105e-08 1 1 -6.24105e-08 139.201 232)" fill="#131200"/>
<rect width="11.6" height="11.6" transform="matrix(6.24105e-08 1 1 -6.24105e-08 139.201 266.8)" fill="#131200"/>
<rect width="11.6" height="11.6" transform="matrix(6.24105e-08 1 1 -6.24105e-08 139.201 243.6)" fill="#131200"/>
<rect width="11.6" height="11.6" transform="matrix(6.24105e-08 1 1 -6.24105e-08 139.201 278.4)" fill="#131200"/>
<rect width="11.6" height="11.6" transform="matrix(6.24105e-08 1 1 -6.24105e-08 139.201 220.4)" fill="#131200"/>
<rect width="11.6" height="185.6" transform="matrix(6.24105e-08 1 1 -6.24105e-08 185.601 220.4)" fill="#131200"/>
<rect width="11.6" height="127.6" transform="matrix(6.24105e-08 1 1 -6.24105e-08 11.6008 220.4)" fill="#131200"/>
<rect width="11.6" height="359.6" transform="matrix(6.24105e-08 1 1 -6.24105e-08 11.6008 0)" fill="#131200"/>
<rect width="11.6" height="11.6" transform="matrix(6.24105e-08 1 1 -6.24105e-08 139.201 255.2)" fill="#131200"/>
</svg>
