<svg width="60" height="60" viewBox="0 0 60 60" fill="none" xmlns="http://www.w3.org/2000/svg">
<rect x="20" y="5" width="5" height="5" fill="#131200"/>
<rect x="20" y="50" width="5" height="5" fill="#131200"/>
<rect x="15" y="10" width="5" height="5" fill="#131200"/>
<rect width="5" height="5" transform="matrix(-1 0 0 1 45 10)" fill="#131200"/>
<rect x="15" y="45" width="5" height="5" fill="#131200"/>
<rect width="5" height="5" transform="matrix(-1 0 0 1 45 45)" fill="#131200"/>
<rect x="10" y="15" width="5" height="5" fill="#131200"/>
<rect width="5" height="5" transform="matrix(-1 0 0 1 50 15)" fill="#131200"/>
<rect x="10" y="40" width="5" height="5" fill="#131200"/>
<rect width="5" height="5" transform="matrix(-1 0 0 1 50 40)" fill="#131200"/>
<rect x="5" y="20" width="5" height="5" fill="#131200"/>
<rect width="5" height="5" transform="matrix(-1 0 0 1 55 20)" fill="#131200"/>
<rect x="5" y="25" width="5" height="5" fill="#131200"/>
<rect width="5" height="5" transform="matrix(-1 0 0 1 55 25)" fill="#131200"/>
<rect x="5" y="30" width="5" height="5" fill="#131200"/>
<rect width="5" height="5" transform="matrix(-1 0 0 1 55 30)" fill="#131200"/>
<rect x="5" y="35" width="5" height="5" fill="#131200"/>
<rect width="5" height="5" transform="matrix(-1 0 0 1 55 35)" fill="#131200"/>
<rect x="25" y="5" width="5" height="5" fill="#131200"/>
<rect x="25" y="50" width="5" height="5" fill="#131200"/>
<rect x="30" y="5" width="5" height="5" fill="#131200"/>
<rect x="30" y="50" width="5" height="5" fill="#131200"/>
<rect x="35" y="5" width="5" height="5" fill="#131200"/>
<rect x="35" y="50" width="5" height="5" fill="#131200"/>
</svg>
