<svg width="117" height="80" viewBox="0 0 117 80" fill="none" xmlns="http://www.w3.org/2000/svg">
<rect width="6.15385" height="6.15385" transform="matrix(6.24105e-08 1 1 -6.24105e-08 61.5391 0)" fill="#A9E000"/>
<rect width="6.15385" height="6.15385" transform="matrix(6.24105e-08 1 1 -6.24105e-08 61.5391 73.8462)" fill="#A9E000"/>
<rect width="6.15385" height="6.15385" transform="matrix(6.24105e-08 1 1 -6.24105e-08 86.1536 0)" fill="#A9E000"/>
<rect width="6.15385" height="6.15385" transform="matrix(6.24105e-08 1 1 -6.24105e-08 24.6146 6.15381)" fill="#A9E000"/>
<rect width="6.15385" height="6.15385" transform="matrix(6.24105e-08 1 1 -6.24105e-08 49.2318 43.0767)" fill="#A9E000"/>
<rect width="6.15385" height="6.15385" transform="matrix(6.24105e-08 1 1 -6.24105e-08 61.5391 43.0767)" fill="#A9E000"/>
<rect width="6.15385" height="6.15385" transform="matrix(6.24105e-08 1 1 -6.24105e-08 24.6146 12.3071)" fill="#A9E000"/>
<rect width="6.15385" height="6.15385" transform="matrix(6.24105e-08 1 1 -6.24105e-08 18.4609 6.15381)" fill="#A9E000"/>
<rect x="98.4609" y="6.15381" width="6.15385" height="6.15385" transform="rotate(90 98.4609 6.15381)" fill="#A9E000"/>
<rect width="6.15385" height="6.15385" transform="matrix(6.24105e-08 1 1 -6.24105e-08 12.3073 0)" fill="#A9E000"/>
<rect x="104.615" width="6.15385" height="6.15385" transform="rotate(90 104.615 0)" fill="#A9E000"/>
<rect width="6.15385" height="6.15385" transform="matrix(6.24105e-08 1 1 -6.24105e-08 6.15365 0)" fill="#A9E000"/>
<rect x="110.768" width="6.15385" height="6.15385" transform="rotate(90 110.768 0)" fill="#A9E000"/>
<rect width="6.15385" height="6.15385" transform="matrix(6.24105e-08 1 1 -6.24105e-08 0 6.15381)" fill="#A9E000"/>
<rect x="116.922" y="6.15381" width="6.15385" height="6.15385" transform="rotate(90 116.922 6.15381)" fill="#A9E000"/>
<rect width="6.15385" height="6.15385" transform="matrix(6.24105e-08 1 1 -6.24105e-08 0 12.3071)" fill="#A9E000"/>
<rect x="116.922" y="12.3071" width="6.15385" height="6.15385" transform="rotate(90 116.922 12.3071)" fill="#A9E000"/>
<rect width="6.15385" height="6.15385" transform="matrix(6.24105e-08 1 1 -6.24105e-08 0 18.4609)" fill="#A9E000"/>
<rect x="116.922" y="18.4609" width="6.15385" height="6.15385" transform="rotate(90 116.922 18.4609)" fill="#A9E000"/>
<rect width="6.15385" height="6.15385" transform="matrix(6.24105e-08 1 1 -6.24105e-08 6.15365 24.6157)" fill="#A9E000"/>
<rect x="110.768" y="24.6157" width="6.15385" height="6.15385" transform="rotate(90 110.768 24.6157)" fill="#A9E000"/>
<rect width="6.15385" height="6.15385" transform="matrix(6.24105e-08 1 1 -6.24105e-08 12.3073 24.6157)" fill="#A9E000"/>
<rect x="104.615" y="24.6157" width="6.15385" height="6.15385" transform="rotate(90 104.615 24.6157)" fill="#A9E000"/>
<rect width="6.15385" height="6.15385" transform="matrix(6.24105e-08 1 1 -6.24105e-08 18.4609 24.6157)" fill="#A9E000"/>
<rect x="98.4609" y="24.6157" width="6.15385" height="6.15385" transform="rotate(90 98.4609 24.6157)" fill="#A9E000"/>
<rect width="6.15385" height="6.15385" transform="matrix(6.24105e-08 1 1 -6.24105e-08 49.2318 49.2305)" fill="#A9E000"/>
<rect width="6.15385" height="6.15385" transform="matrix(6.24105e-08 1 1 -6.24105e-08 61.5391 49.2305)" fill="#A9E000"/>
<rect width="6.15385" height="6.15385" transform="matrix(6.24105e-08 1 1 -6.24105e-08 86.1536 6.15381)" fill="#A9E000"/>
<rect width="6.15385" height="6.15385" transform="matrix(6.24105e-08 1 1 -6.24105e-08 24.6146 18.4609)" fill="#A9E000"/>
<rect width="6.15385" height="6.15385" transform="matrix(6.24105e-08 1 1 -6.24105e-08 49.2318 55.3843)" fill="#A9E000"/>
<rect width="6.15385" height="6.15385" transform="matrix(6.24105e-08 1 1 -6.24105e-08 61.5391 55.3843)" fill="#A9E000"/>
<rect width="6.15385" height="6.15385" transform="matrix(6.24105e-08 1 1 -6.24105e-08 86.1536 12.3071)" fill="#A9E000"/>
<rect width="6.15385" height="6.15385" transform="matrix(6.24105e-08 1 1 -6.24105e-08 24.6146 24.6157)" fill="#A9E000"/>
<rect width="6.15385" height="6.15385" transform="matrix(6.24105e-08 1 1 -6.24105e-08 49.2318 61.5391)" fill="#A9E000"/>
<rect width="6.15385" height="6.15385" transform="matrix(6.24105e-08 1 1 -6.24105e-08 43.0781 67.6929)" fill="#A9E000"/>
<rect width="6.15385" height="6.15385" transform="matrix(6.24105e-08 1 1 -6.24105e-08 67.6927 67.6929)" fill="#A9E000"/>
<rect width="6.15385" height="6.15385" transform="matrix(6.24105e-08 1 1 -6.24105e-08 36.9219 73.8462)" fill="#A9E000"/>
<rect width="6.15385" height="6.15385" transform="matrix(6.24105e-08 1 1 -6.24105e-08 43.0781 73.8462)" fill="#A9E000"/>
<rect width="6.15385" height="6.15385" transform="matrix(6.24105e-08 1 1 -6.24105e-08 49.2318 73.8462)" fill="#A9E000"/>
<rect width="6.15385" height="6.15385" transform="matrix(6.24105e-08 1 1 -6.24105e-08 61.5391 61.5391)" fill="#A9E000"/>
<rect x="92.3073" y="24.6157" width="6.15385" height="6.15385" transform="rotate(90 92.3073 24.6157)" fill="#A9E000"/>
<rect width="6.15385" height="6.15385" transform="matrix(6.24105e-08 1 1 -6.24105e-08 86.1536 18.4609)" fill="#A9E000"/>
<rect width="6.15385" height="6.15385" transform="matrix(6.24105e-08 1 1 -6.24105e-08 30.7682 30.7695)" fill="#A9E000"/>
<rect width="6.15385" height="6.15385" transform="matrix(6.24105e-08 1 1 -6.24105e-08 36.9219 36.9233)" fill="#A9E000"/>
<rect width="6.15385" height="6.15385" transform="matrix(6.24105e-08 1 1 -6.24105e-08 43.0781 36.9233)" fill="#A9E000"/>
<rect x="86.1536" y="30.7695" width="6.15385" height="6.15385" transform="rotate(90 86.1536 30.7695)" fill="#A9E000"/>
<rect x="80" y="36.9233" width="6.15385" height="6.15385" transform="rotate(90 80 36.9233)" fill="#A9E000"/>
<rect x="73.8463" y="36.9233" width="6.15385" height="6.15385" transform="rotate(90 73.8463 36.9233)" fill="#A9E000"/>
<rect width="6.15385" height="6.15385" transform="matrix(6.24105e-08 1 1 -6.24105e-08 55.3854 0)" fill="#A9E000"/>
<rect width="6.15385" height="6.15385" transform="matrix(6.24105e-08 1 1 -6.24105e-08 55.3854 73.8462)" fill="#A9E000"/>
<rect width="6.15385" height="6.15385" transform="matrix(6.24105e-08 1 1 -6.24105e-08 80 0)" fill="#A9E000"/>
<rect width="6.15385" height="6.15385" transform="matrix(6.24105e-08 1 1 -6.24105e-08 36.9219 0)" fill="#A9E000"/>
<rect width="6.15385" height="6.15385" transform="matrix(6.24105e-08 1 1 -6.24105e-08 49.2318 0)" fill="#A9E000"/>
<rect width="6.15385" height="6.15385" transform="matrix(6.24105e-08 1 1 -6.24105e-08 73.8463 0)" fill="#A9E000"/>
<rect width="6.15385" height="6.15385" transform="matrix(6.24105e-08 1 1 -6.24105e-08 30.7682 0)" fill="#A9E000"/>
<rect width="6.15385" height="6.15385" transform="matrix(6.24105e-08 1 1 -6.24105e-08 43.0781 0)" fill="#A9E000"/>
<rect width="6.15385" height="6.15385" transform="matrix(6.24105e-08 1 1 -6.24105e-08 67.6927 0)" fill="#A9E000"/>
<rect width="6.15385" height="6.15385" transform="matrix(6.24105e-08 1 1 -6.24105e-08 67.6927 73.8462)" fill="#A9E000"/>
<rect width="6.15385" height="6.15385" transform="matrix(6.24105e-08 1 1 -6.24105e-08 73.8463 73.8462)" fill="#A9E000"/>
<rect width="6.15385" height="6.15385" transform="matrix(6.24105e-08 1 1 -6.24105e-08 24.6146 0)" fill="#A9E000"/>
</svg>
