<svg width="59" height="48" viewBox="0 0 59 48" fill="none" xmlns="http://www.w3.org/2000/svg">
<path d="M20.1262 26.75C21.7936 26.75 23.1453 25.5188 23.1453 24C23.1453 22.4812 21.7936 21.25 20.1262 21.25C18.4588 21.25 17.1071 22.4812 17.1071 24C17.1071 25.5188 18.4588 26.75 20.1262 26.75Z" stroke="#A9E000" stroke-width="2.75" stroke-linecap="round" stroke-linejoin="round"/>
<path d="M38.2407 26.75C39.9081 26.75 41.2598 25.5188 41.2598 24C41.2598 22.4812 39.9081 21.25 38.2407 21.25C36.5733 21.25 35.2216 22.4812 35.2216 24C35.2216 25.5188 36.5733 26.75 38.2407 26.75Z" stroke="#A9E000" stroke-width="2.75" stroke-linecap="round" stroke-linejoin="round"/>
<path d="M15.5976 11.625C26.1644 8.875 32.2025 8.875 42.7693 11.625" stroke="#A9E000" stroke-width="2.75" stroke-linecap="round" stroke-linejoin="round"/>
<path d="M14.0881 36.375C24.6548 39.125 33.7121 39.125 44.2789 36.375" stroke="#A9E000" stroke-width="2.75" stroke-linecap="round" stroke-linejoin="round"/>
<path d="M39.7502 37.75C39.7502 40.5 44.2789 46 45.7884 46C50.317 46 54.3415 41.4157 56.3552 37.75C58.3689 33.1657 57.8647 21.7092 51.8266 6.125C47.4278 3.33375 42.7693 2.44 38.2407 2L35.2216 8.875" stroke="#A9E000" stroke-width="2.75" stroke-linecap="round" stroke-linejoin="round"/>
<path d="M18.617 37.75C18.617 40.5 14.5231 46 13.0861 46C8.7718 46 4.94058 41.4157 3.02347 37.75C1.10635 33.1657 1.58639 21.7092 7.33472 6.125C11.5252 3.33375 15.7338 2.44 20.1266 2L23.1456 8.875" stroke="#A9E000" stroke-width="2.75" stroke-linecap="round" stroke-linejoin="round"/>
</svg>
