<svg width="37" height="36" viewBox="0 0 37 36" fill="none" xmlns="http://www.w3.org/2000/svg">
<rect x="24.2233" y="6.36914" width="3.18585" height="3.18585" transform="rotate(90 24.2233 6.36914)" fill="#A9E000"/>
<rect x="30.5983" y="12.7441" width="3.18585" height="3.18585" transform="rotate(90 30.5983 12.7441)" fill="#A9E000"/>
<rect x="33.7806" y="9.55664" width="3.18585" height="3.18585" transform="rotate(90 33.7806 9.55664)" fill="#A9E000"/>
<rect x="27.4108" y="3.1875" width="3.18585" height="3.18585" transform="rotate(90 27.4108 3.1875)" fill="#A9E000"/>
<rect x="30.5983" y="6.36914" width="3.18585" height="3.18585" transform="rotate(90 30.5983 6.36914)" fill="#A9E000"/>
<rect x="30.5983" width="3.18585" height="3.18585" transform="rotate(90 30.5983 0)" fill="#A9E000"/>
<rect x="33.7806" width="3.18585" height="3.18585" transform="rotate(90 33.7806 0)" fill="#A9E000"/>
<rect x="36.9681" y="3.1875" width="3.18585" height="3.18585" transform="rotate(90 36.9681 3.1875)" fill="#A9E000"/>
<rect x="36.9681" y="6.36914" width="3.18585" height="3.18585" transform="rotate(90 36.9681 6.36914)" fill="#A9E000"/>
<rect x="21.0384" y="9.55664" width="3.18585" height="3.18585" transform="rotate(90 21.0384 9.55664)" fill="#A9E000"/>
<rect x="27.4108" y="15.9277" width="3.18585" height="3.18585" transform="rotate(90 27.4108 15.9277)" fill="#A9E000"/>
<rect x="17.8535" y="12.7441" width="3.18585" height="3.18585" transform="rotate(90 17.8535 12.7441)" fill="#A9E000"/>
<rect x="14.666" y="15.9277" width="3.18585" height="3.18585" transform="rotate(90 14.666 15.9277)" fill="#A9E000"/>
<rect x="11.4811" y="19.1152" width="3.18585" height="3.18585" transform="rotate(90 11.4811 19.1152)" fill="#A9E000"/>
<rect x="11.4811" y="22.3027" width="3.18585" height="3.18585" transform="rotate(90 11.4811 22.3027)" fill="#A9E000"/>
<rect x="11.4811" y="25.4863" width="3.18585" height="3.18585" transform="rotate(90 11.4811 25.4863)" fill="#A9E000"/>
<rect x="17.8535" y="25.4863" width="3.18585" height="3.18585" transform="rotate(90 17.8535 25.4863)" fill="#A9E000"/>
<rect x="24.2233" y="19.1152" width="3.18585" height="3.18585" transform="rotate(90 24.2233 19.1152)" fill="#A9E000"/>
<rect x="14.666" y="25.4863" width="3.18585" height="3.18585" transform="rotate(90 14.666 25.4863)" fill="#A9E000"/>
<rect x="21.0384" y="22.3027" width="3.18585" height="3.18585" transform="rotate(90 21.0384 22.3027)" fill="#A9E000"/>
<rect x="3.51694" y="32.8145" width="3.18585" height="3.18585" transform="rotate(90 3.51694 32.8145)" fill="#A9E000"/>
<rect x="3.51694" y="29.6309" width="3.18585" height="3.18585" transform="rotate(90 3.51694 29.6309)" fill="#A9E000"/>
<rect x="3.51694" y="26.4434" width="3.18585" height="3.18585" transform="rotate(90 3.51694 26.4434)" fill="#A9E000"/>
<rect x="3.51694" y="23.2559" width="3.18585" height="3.18585" transform="rotate(90 3.51694 23.2559)" fill="#A9E000"/>
<rect x="3.51694" y="20.0723" width="3.18585" height="3.18585" transform="rotate(90 3.51694 20.0723)" fill="#A9E000"/>
<rect x="3.51694" y="16.8848" width="3.18585" height="3.18585" transform="rotate(90 3.51694 16.8848)" fill="#A9E000"/>
<rect x="3.51694" y="13.6973" width="3.18585" height="3.18585" transform="rotate(90 3.51694 13.6973)" fill="#A9E000"/>
<rect x="3.51694" y="7.32812" width="3.18585" height="3.18585" transform="rotate(90 3.51694 7.32812)" fill="#A9E000"/>
<rect x="3.51694" y="10.5156" width="3.18585" height="3.18585" transform="rotate(90 3.51694 10.5156)" fill="#A9E000"/>
<rect x="13.0742" y="32.8145" width="3.18585" height="3.18585" transform="rotate(90 13.0742 32.8145)" fill="#A9E000"/>
<rect x="6.70184" y="32.8145" width="3.18585" height="3.18585" transform="rotate(90 6.70184 32.8145)" fill="#A9E000"/>
<rect x="9.88934" y="32.8145" width="3.18585" height="3.18585" transform="rotate(90 9.88934 32.8145)" fill="#A9E000"/>
<rect x="22.6341" y="32.8145" width="3.18585" height="3.18585" transform="rotate(90 22.6341 32.8145)" fill="#A9E000"/>
<rect x="19.4466" y="32.8145" width="3.18585" height="3.18585" transform="rotate(90 19.4466 32.8145)" fill="#A9E000"/>
<rect x="16.2591" y="7.32812" width="3.18585" height="3.18585" transform="rotate(90 16.2591 7.32812)" fill="#A9E000"/>
<rect x="16.2591" y="32.8145" width="3.18585" height="3.18585" transform="rotate(90 16.2591 32.8145)" fill="#A9E000"/>
<rect x="13.0742" y="7.32812" width="3.18585" height="3.18585" transform="rotate(90 13.0742 7.32812)" fill="#A9E000"/>
<rect x="6.70184" y="7.32812" width="3.18585" height="3.18585" transform="rotate(90 6.70184 7.32812)" fill="#A9E000"/>
<rect x="25.8164" y="32.8145" width="3.18585" height="3.18585" transform="rotate(90 25.8164 32.8145)" fill="#A9E000"/>
<rect x="25.8164" y="29.6309" width="3.18585" height="3.18585" transform="rotate(90 25.8164 29.6309)" fill="#A9E000"/>
<rect x="25.8164" y="26.4434" width="3.18585" height="3.18585" transform="rotate(90 25.8164 26.4434)" fill="#A9E000"/>
<rect x="25.8164" y="23.2559" width="3.18585" height="3.18585" transform="rotate(90 25.8164 23.2559)" fill="#A9E000"/>
<rect x="9.88934" y="7.32812" width="3.18585" height="3.18585" transform="rotate(90 9.88934 7.32812)" fill="#A9E000"/>
</svg>
