<svg width="37" height="36" viewBox="0 0 37 36" fill="none" xmlns="http://www.w3.org/2000/svg">
<rect x="20.9995" y="27" width="3" height="3" transform="rotate(90 20.9995 27)" fill="#A9E000"/>
<rect x="17.9995" y="27" width="3" height="3" transform="rotate(90 17.9995 27)" fill="#A9E000"/>
<rect x="14.9995" y="24" width="3" height="3" transform="rotate(90 14.9995 24)" fill="#A9E000"/>
<rect width="3" height="3" transform="matrix(6.24105e-08 1 1 -6.24105e-08 20.9995 24)" fill="#A9E000"/>
<rect x="11.9995" y="21" width="3" height="3" transform="rotate(90 11.9995 21)" fill="#A9E000"/>
<rect width="3" height="3" transform="matrix(6.24105e-08 1 1 -6.24105e-08 23.9995 21)" fill="#A9E000"/>
<rect x="8.99951" y="18" width="3" height="3" transform="rotate(90 8.99951 18)" fill="#A9E000"/>
<rect width="3" height="3" transform="matrix(6.24105e-08 1 1 -6.24105e-08 26.9995 18)" fill="#A9E000"/>
<rect x="5.99951" y="15" width="3" height="3" transform="rotate(90 5.99951 15)" fill="#A9E000"/>
<rect width="3" height="3" transform="matrix(6.24105e-08 1 1 -6.24105e-08 29.9995 15)" fill="#A9E000"/>
<rect x="5.99951" y="12" width="3" height="3" transform="rotate(90 5.99951 12)" fill="#A9E000"/>
<rect width="3" height="3" transform="matrix(6.24105e-08 1 1 -6.24105e-08 29.9995 12)" fill="#A9E000"/>
<rect x="8.99951" y="9" width="3" height="3" transform="rotate(90 8.99951 9)" fill="#A9E000"/>
<rect width="3" height="3" transform="matrix(6.24105e-08 1 1 -6.24105e-08 26.9995 9)" fill="#A9E000"/>
<rect x="11.9995" y="6" width="3" height="3" transform="rotate(90 11.9995 6)" fill="#A9E000"/>
<rect width="3" height="3" transform="matrix(6.24105e-08 1 1 -6.24105e-08 23.9995 6)" fill="#A9E000"/>
<rect x="14.9995" y="6" width="3" height="3" transform="rotate(90 14.9995 6)" fill="#A9E000"/>
<rect width="3" height="3" transform="matrix(6.24105e-08 1 1 -6.24105e-08 20.9995 6)" fill="#A9E000"/>
<rect x="17.9995" y="9" width="3" height="3" transform="rotate(90 17.9995 9)" fill="#A9E000"/>
<rect width="3" height="3" transform="matrix(6.24105e-08 1 1 -6.24105e-08 17.9995 9)" fill="#A9E000"/>
</svg>
