<svg width="60" height="60" viewBox="0 0 60 60" fill="none" xmlns="http://www.w3.org/2000/svg">
<rect x="34.9996" y="45" width="5" height="5" transform="rotate(90 34.9996 45)" fill="#2B513D"/>
<rect x="29.9996" y="45" width="5" height="5" transform="rotate(90 29.9996 45)" fill="#2B513D"/>
<rect x="24.9996" y="40" width="5" height="5" transform="rotate(90 24.9996 40)" fill="#2B513D"/>
<rect width="5" height="5" transform="matrix(6.24105e-08 1 1 -6.24105e-08 34.9996 40)" fill="#2B513D"/>
<rect x="19.9996" y="35" width="5" height="5" transform="rotate(90 19.9996 35)" fill="#2B513D"/>
<rect width="5" height="5" transform="matrix(6.24105e-08 1 1 -6.24105e-08 39.9996 35)" fill="#2B513D"/>
<rect x="14.9996" y="30" width="5" height="5" transform="rotate(90 14.9996 30)" fill="#2B513D"/>
<rect width="5" height="5" transform="matrix(6.24105e-08 1 1 -6.24105e-08 44.9996 30)" fill="#2B513D"/>
<rect x="9.99959" y="25" width="5" height="5" transform="rotate(90 9.99959 25)" fill="#2B513D"/>
<rect width="5" height="5" transform="matrix(6.24105e-08 1 1 -6.24105e-08 49.9996 25)" fill="#2B513D"/>
<rect x="9.99959" y="20" width="5" height="5" transform="rotate(90 9.99959 20)" fill="#2B513D"/>
<rect width="5" height="5" transform="matrix(6.24105e-08 1 1 -6.24105e-08 49.9996 20)" fill="#2B513D"/>
<rect x="14.9996" y="15" width="5" height="5" transform="rotate(90 14.9996 15)" fill="#2B513D"/>
<rect x="14.9996" y="20" width="5" height="5" transform="rotate(90 14.9996 20)" fill="#2B513D"/>
<rect x="14.9996" y="25" width="5" height="5" transform="rotate(90 14.9996 25)" fill="#2B513D"/>
<rect width="5" height="5" transform="matrix(6.24105e-08 1 1 -6.24105e-08 44.9996 15)" fill="#2B513D"/>
<rect width="5" height="5" transform="matrix(6.24105e-08 1 1 -6.24105e-08 44.9996 20)" fill="#2B513D"/>
<rect width="5" height="5" transform="matrix(6.24105e-08 1 1 -6.24105e-08 44.9996 25)" fill="#2B513D"/>
<rect x="19.9996" y="10" width="5" height="5" transform="rotate(90 19.9996 10)" fill="#2B513D"/>
<rect x="19.9996" y="15" width="5" height="5" transform="rotate(90 19.9996 15)" fill="#2B513D"/>
<rect x="19.9996" y="20" width="5" height="5" transform="rotate(90 19.9996 20)" fill="#2B513D"/>
<rect x="19.9996" y="25" width="5" height="5" transform="rotate(90 19.9996 25)" fill="#2B513D"/>
<rect x="19.9996" y="30" width="5" height="5" transform="rotate(90 19.9996 30)" fill="#2B513D"/>
<rect width="5" height="5" transform="matrix(6.24105e-08 1 1 -6.24105e-08 39.9996 10)" fill="#2B513D"/>
<rect width="5" height="5" transform="matrix(6.24105e-08 1 1 -6.24105e-08 39.9996 15)" fill="#2B513D"/>
<rect width="5" height="5" transform="matrix(6.24105e-08 1 1 -6.24105e-08 39.9996 20)" fill="#2B513D"/>
<rect width="5" height="5" transform="matrix(6.24105e-08 1 1 -6.24105e-08 39.9996 25)" fill="#2B513D"/>
<rect width="5" height="5" transform="matrix(6.24105e-08 1 1 -6.24105e-08 39.9996 30)" fill="#2B513D"/>
<rect x="24.9996" y="10" width="5" height="5" transform="rotate(90 24.9996 10)" fill="#2B513D"/>
<rect x="24.9996" y="15" width="5" height="5" transform="rotate(90 24.9996 15)" fill="#2B513D"/>
<rect x="24.9996" y="20" width="5" height="5" transform="rotate(90 24.9996 20)" fill="#2B513D"/>
<rect x="24.9996" y="25" width="5" height="5" transform="rotate(90 24.9996 25)" fill="#2B513D"/>
<rect x="24.9996" y="30" width="5" height="5" transform="rotate(90 24.9996 30)" fill="#2B513D"/>
<rect x="24.9996" y="35" width="5" height="5" transform="rotate(90 24.9996 35)" fill="#2B513D"/>
<rect width="5" height="5" transform="matrix(6.24105e-08 1 1 -6.24105e-08 34.9996 10)" fill="#2B513D"/>
<rect width="5" height="5" transform="matrix(6.24105e-08 1 1 -6.24105e-08 34.9996 15)" fill="#2B513D"/>
<rect width="5" height="5" transform="matrix(6.24105e-08 1 1 -6.24105e-08 34.9996 20)" fill="#2B513D"/>
<rect width="5" height="5" transform="matrix(6.24105e-08 1 1 -6.24105e-08 34.9996 25)" fill="#2B513D"/>
<rect width="5" height="5" transform="matrix(6.24105e-08 1 1 -6.24105e-08 34.9996 30)" fill="#2B513D"/>
<rect width="5" height="5" transform="matrix(6.24105e-08 1 1 -6.24105e-08 34.9996 35)" fill="#2B513D"/>
<rect x="29.9996" y="15" width="5" height="5" transform="rotate(90 29.9996 15)" fill="#2B513D"/>
<rect x="29.9996" y="20" width="5" height="5" transform="rotate(90 29.9996 20)" fill="#2B513D"/>
<rect x="29.9996" y="25" width="5" height="5" transform="rotate(90 29.9996 25)" fill="#2B513D"/>
<rect x="29.9996" y="30" width="5" height="5" transform="rotate(90 29.9996 30)" fill="#2B513D"/>
<rect x="29.9996" y="35" width="5" height="5" transform="rotate(90 29.9996 35)" fill="#2B513D"/>
<rect x="29.9996" y="40" width="5" height="5" transform="rotate(90 29.9996 40)" fill="#2B513D"/>
<rect width="5" height="5" transform="matrix(6.24105e-08 1 1 -6.24105e-08 29.9996 15)" fill="#2B513D"/>
<rect width="5" height="5" transform="matrix(6.24105e-08 1 1 -6.24105e-08 29.9996 20)" fill="#2B513D"/>
<rect width="5" height="5" transform="matrix(6.24105e-08 1 1 -6.24105e-08 29.9996 25)" fill="#2B513D"/>
<rect width="5" height="5" transform="matrix(6.24105e-08 1 1 -6.24105e-08 29.9996 30)" fill="#2B513D"/>
<rect width="5" height="5" transform="matrix(6.24105e-08 1 1 -6.24105e-08 29.9996 35)" fill="#2B513D"/>
<rect width="5" height="5" transform="matrix(6.24105e-08 1 1 -6.24105e-08 29.9996 40)" fill="#2B513D"/>
</svg>
