<svg width="33" height="32" viewBox="0 0 33 32" fill="none" xmlns="http://www.w3.org/2000/svg">
<rect x="11.5148" y="5.33301" width="2.66667" height="2.66667" fill="#131200"/>
<rect x="11.5148" y="26.667" width="2.66667" height="2.66667" fill="#131200"/>
<rect x="8.84818" y="5.33301" width="2.66667" height="2.66667" fill="#131200"/>
<rect x="8.84818" y="26.667" width="2.66667" height="2.66667" fill="#131200"/>
<rect x="14.1815" y="5.33301" width="2.66667" height="2.66667" fill="#131200"/>
<rect x="14.1815" y="26.667" width="2.66667" height="2.66667" fill="#131200"/>
<rect x="16.8482" y="5.33301" width="2.66667" height="2.66667" fill="#131200"/>
<rect x="16.8482" y="26.667" width="2.66667" height="2.66667" fill="#131200"/>
<rect x="19.5148" y="5.33301" width="2.66667" height="2.66667" fill="#131200"/>
<rect x="19.5148" y="26.667" width="2.66667" height="2.66667" fill="#131200"/>
<rect x="22.1815" y="5.33301" width="2.66667" height="2.66667" fill="#131200"/>
<rect x="22.1815" y="26.667" width="2.66667" height="2.66667" fill="#131200"/>
<rect x="6.18149" y="8" width="2.66667" height="2.66667" fill="#131200"/>
<rect x="6.18149" y="5.33301" width="2.66667" height="2.66667" fill="#131200"/>
<rect width="2.66667" height="2.66667" transform="matrix(-1 0 0 1 27.5148 8)" fill="#131200"/>
<rect width="2.66667" height="2.66667" transform="matrix(-1 0 0 1 27.5148 5.33301)" fill="#131200"/>
<rect x="8.84818" y="10.667" width="2.66667" height="2.66667" fill="#131200"/>
<rect width="2.66667" height="2.66667" transform="matrix(-1 0 0 1 24.8482 10.667)" fill="#131200"/>
<rect x="11.5148" y="13.333" width="2.66667" height="2.66667" fill="#131200"/>
<rect x="11.5148" y="10.667" width="2.66667" height="2.66667" fill="#131200"/>
<rect x="14.1815" y="10.667" width="2.66667" height="2.66667" fill="#131200"/>
<rect x="16.8482" y="13.333" width="2.66667" height="2.66667" fill="#131200"/>
<rect x="14.1815" y="13.333" width="2.66667" height="2.66667" fill="#131200"/>
<rect width="2.66667" height="2.66667" transform="matrix(-1 0 0 1 22.1815 13.333)" fill="#131200"/>
<rect width="2.66667" height="2.66667" transform="matrix(-1 0 0 1 19.5148 16)" fill="#131200"/>
<rect x="14.1815" y="16" width="2.66667" height="2.66667" fill="#131200"/>
<rect x="11.5148" y="18.667" width="2.66667" height="2.66667" fill="#131200"/>
<rect width="2.66667" height="2.66667" transform="matrix(-1 0 0 1 22.1815 18.667)" fill="#131200"/>
<rect x="8.84818" y="21.333" width="2.66667" height="2.66667" fill="#131200"/>
<rect width="2.66667" height="2.66667" transform="matrix(-1 0 0 1 24.8482 21.333)" fill="#131200"/>
<rect x="6.18149" y="24" width="2.66667" height="2.66667" fill="#131200"/>
<rect x="6.18149" y="26.667" width="2.66667" height="2.66667" fill="#131200"/>
<rect width="2.66667" height="2.66667" transform="matrix(-1 0 0 1 27.5148 24)" fill="#131200"/>
<rect width="2.66667" height="2.66667" transform="matrix(-1 0 0 1 27.5148 26.667)" fill="#131200"/>
</svg>
