<svg width="449" height="524" viewBox="0 0 449 524" fill="none" xmlns="http://www.w3.org/2000/svg">
<rect width="14.951" height="14.951" transform="matrix(6.24105e-08 1 1 -6.24105e-08 104.657 209.56)" fill="#131200"/>
<rect x="328.922" y="209.56" width="14.951" height="14.951" transform="rotate(90 328.922 209.56)" fill="#131200"/>
<rect x="373.776" y="314.216" width="14.951" height="14.951" transform="rotate(90 373.776 314.216)" fill="#131200"/>
<rect x="74.7552" y="314.216" width="14.951" height="14.951" transform="rotate(90 74.7552 314.216)" fill="#131200"/>
<rect x="224.266" y="388.972" width="14.951" height="14.951" transform="rotate(90 224.266 388.972)" fill="#131200"/>
<rect x="239.218" y="388.972" width="14.951" height="14.951" transform="rotate(90 239.218 388.972)" fill="#131200"/>
<rect x="373.776" y="403.922" width="14.951" height="14.951" transform="rotate(90 373.776 403.922)" fill="#131200"/>
<rect x="74.7552" y="403.922" width="14.951" height="14.951" transform="rotate(90 74.7552 403.922)" fill="#131200"/>
<rect width="14.951" height="14.951" transform="matrix(6.24105e-08 1 1 -6.24105e-08 121.103 164.706)" fill="#131200"/>
<rect x="312.476" y="164.706" width="14.951" height="14.951" transform="rotate(90 312.476 164.706)" fill="#131200"/>
<rect width="14.951" height="14.951" transform="matrix(6.24105e-08 1 1 -6.24105e-08 134.558 209.56)" fill="#131200"/>
<rect x="299.021" y="209.56" width="14.951" height="14.951" transform="rotate(90 299.021 209.56)" fill="#131200"/>
<rect width="14.951" height="14.951" transform="matrix(6.24105e-08 1 1 -6.24105e-08 149.51 179.657)" fill="#131200"/>
<rect x="284.069" y="179.657" width="14.951" height="14.951" transform="rotate(90 284.069 179.657)" fill="#131200"/>
<rect width="14.951" height="14.951" transform="matrix(6.24105e-08 1 1 -6.24105e-08 104.657 239.461)" fill="#131200"/>
<rect x="328.922" y="239.461" width="14.951" height="14.951" transform="rotate(90 328.922 239.461)" fill="#131200"/>
<rect x="373.776" y="344.119" width="14.951" height="14.951" transform="rotate(90 373.776 344.119)" fill="#131200"/>
<rect x="74.7552" y="344.119" width="14.951" height="14.951" transform="rotate(90 74.7552 344.119)" fill="#131200"/>
<rect x="224.266" y="418.875" width="14.951" height="14.951" transform="rotate(90 224.266 418.875)" fill="#131200"/>
<rect x="239.218" y="418.875" width="14.951" height="14.951" transform="rotate(90 239.218 418.875)" fill="#131200"/>
<rect x="373.776" y="433.825" width="14.951" height="14.951" transform="rotate(90 373.776 433.825)" fill="#131200"/>
<rect x="74.7552" y="433.825" width="14.951" height="14.951" transform="rotate(90 74.7552 433.825)" fill="#131200"/>
<rect x="373.776" y="463.727" width="14.951" height="14.951" transform="rotate(90 373.776 463.727)" fill="#131200"/>
<rect x="74.7552" y="463.727" width="14.951" height="14.951" transform="rotate(90 74.7552 463.727)" fill="#131200"/>
<rect x="74.7552" y="478.678" width="14.951" height="14.951" transform="rotate(90 74.7552 478.678)" fill="#131200"/>
<rect width="14.951" height="14.951" transform="matrix(6.24105e-08 1 1 -6.24105e-08 134.558 239.461)" fill="#131200"/>
<rect x="299.021" y="239.461" width="14.951" height="14.951" transform="rotate(90 299.021 239.461)" fill="#131200"/>
<rect width="14.951" height="14.951" transform="matrix(6.24105e-08 1 1 -6.24105e-08 104.657 254.412)" fill="#131200"/>
<rect x="328.922" y="254.412" width="14.951" height="14.951" transform="rotate(90 328.922 254.412)" fill="#131200"/>
<rect x="373.776" y="359.07" width="14.951" height="14.951" transform="rotate(90 373.776 359.07)" fill="#131200"/>
<rect x="74.7552" y="359.07" width="14.951" height="14.951" transform="rotate(90 74.7552 359.07)" fill="#131200"/>
<rect x="224.266" y="433.825" width="14.951" height="14.951" transform="rotate(90 224.266 433.825)" fill="#131200"/>
<rect x="239.218" y="433.825" width="14.951" height="14.951" transform="rotate(90 239.218 433.825)" fill="#131200"/>
<rect x="373.776" y="448.776" width="14.951" height="14.951" transform="rotate(90 373.776 448.776)" fill="#131200"/>
<rect x="74.7552" y="448.776" width="14.951" height="14.951" transform="rotate(90 74.7552 448.776)" fill="#131200"/>
<rect x="373.776" y="478.678" width="14.951" height="14.951" transform="rotate(90 373.776 478.678)" fill="#131200"/>
<rect width="14.951" height="14.951" transform="matrix(6.24105e-08 1 1 -6.24105e-08 134.558 254.412)" fill="#131200"/>
<rect x="299.021" y="254.412" width="14.951" height="14.951" transform="rotate(90 299.021 254.412)" fill="#131200"/>
<rect width="14.951" height="14.951" transform="matrix(6.24105e-08 1 1 -6.24105e-08 104.657 194.609)" fill="#131200"/>
<rect x="328.922" y="194.609" width="14.951" height="14.951" transform="rotate(90 328.922 194.609)" fill="#131200"/>
<rect x="373.776" y="299.266" width="14.951" height="14.951" transform="rotate(90 373.776 299.266)" fill="#131200"/>
<rect x="74.7552" y="299.266" width="14.951" height="14.951" transform="rotate(90 74.7552 299.266)" fill="#131200"/>
<rect x="224.266" y="374.021" width="14.951" height="14.951" transform="rotate(90 224.266 374.021)" fill="#131200"/>
<rect x="209.314" y="374.021" width="14.951" height="14.951" transform="rotate(90 209.314 374.021)" fill="#131200"/>
<rect x="254.167" y="374.021" width="14.951" height="14.951" transform="rotate(90 254.167 374.021)" fill="#131200"/>
<rect x="224.266" y="359.07" width="14.951" height="14.951" transform="rotate(90 224.266 359.07)" fill="#131200"/>
<rect x="209.314" y="359.07" width="14.951" height="14.951" transform="rotate(90 209.314 359.07)" fill="#131200"/>
<rect x="254.167" y="359.07" width="14.951" height="14.951" transform="rotate(90 254.167 359.07)" fill="#131200"/>
<rect x="224.266" y="344.119" width="14.951" height="14.951" transform="rotate(90 224.266 344.119)" fill="#131200"/>
<rect x="224.266" y="329.167" width="14.951" height="14.951" transform="rotate(90 224.266 329.167)" fill="#131200"/>
<rect x="209.314" y="344.119" width="14.951" height="14.951" transform="rotate(90 209.314 344.119)" fill="#131200"/>
<rect x="209.314" y="329.167" width="14.951" height="14.951" transform="rotate(90 209.314 329.167)" fill="#131200"/>
<rect x="254.167" y="344.119" width="14.951" height="14.951" transform="rotate(90 254.167 344.119)" fill="#131200"/>
<rect x="254.167" y="329.167" width="14.951" height="14.951" transform="rotate(90 254.167 329.167)" fill="#131200"/>
<rect x="239.218" y="374.021" width="14.951" height="14.951" transform="rotate(90 239.218 374.021)" fill="#131200"/>
<rect x="239.218" y="359.07" width="14.951" height="14.951" transform="rotate(90 239.218 359.07)" fill="#131200"/>
<rect x="239.218" y="344.119" width="14.951" height="14.951" transform="rotate(90 239.218 344.119)" fill="#131200"/>
<rect x="239.218" y="329.167" width="14.951" height="14.951" transform="rotate(90 239.218 329.167)" fill="#131200"/>
<rect x="373.776" y="388.972" width="14.951" height="14.951" transform="rotate(90 373.776 388.972)" fill="#131200"/>
<rect x="74.7552" y="388.972" width="14.951" height="14.951" transform="rotate(90 74.7552 388.972)" fill="#131200"/>
<rect width="14.951" height="14.951" transform="matrix(6.24105e-08 1 1 -6.24105e-08 121.103 149.755)" fill="#131200"/>
<rect x="312.476" y="149.755" width="14.951" height="14.951" transform="rotate(90 312.476 149.755)" fill="#131200"/>
<rect width="14.951" height="14.951" transform="matrix(6.24105e-08 1 1 -6.24105e-08 134.558 194.609)" fill="#131200"/>
<rect x="299.021" y="194.609" width="14.951" height="14.951" transform="rotate(90 299.021 194.609)" fill="#131200"/>
<rect width="14.951" height="14.951" transform="matrix(6.24105e-08 1 1 -6.24105e-08 149.51 164.706)" fill="#131200"/>
<rect x="284.069" y="164.706" width="14.951" height="14.951" transform="rotate(90 284.069 164.706)" fill="#131200"/>
<rect width="14.951" height="14.951" transform="matrix(6.24105e-08 1 1 -6.24105e-08 149.51 149.755)" fill="#131200"/>
<rect x="284.069" y="149.755" width="14.951" height="14.951" transform="rotate(90 284.069 149.755)" fill="#131200"/>
<rect width="14.951" height="14.951" transform="matrix(6.24105e-08 1 1 -6.24105e-08 164.462 149.755)" fill="#131200"/>
<rect width="14.951" height="14.951" transform="matrix(6.24105e-08 1 1 -6.24105e-08 104.657 224.51)" fill="#131200"/>
<rect x="328.922" y="224.51" width="14.951" height="14.951" transform="rotate(90 328.922 224.51)" fill="#131200"/>
<rect x="373.776" y="329.167" width="14.951" height="14.951" transform="rotate(90 373.776 329.167)" fill="#131200"/>
<rect x="74.7552" y="329.167" width="14.951" height="14.951" transform="rotate(90 74.7552 329.167)" fill="#131200"/>
<rect x="224.266" y="403.922" width="14.951" height="14.951" transform="rotate(90 224.266 403.922)" fill="#131200"/>
<rect x="239.218" y="403.922" width="14.951" height="14.951" transform="rotate(90 239.218 403.922)" fill="#131200"/>
<rect x="373.776" y="418.875" width="14.951" height="14.951" transform="rotate(90 373.776 418.875)" fill="#131200"/>
<rect x="74.7552" y="418.875" width="14.951" height="14.951" transform="rotate(90 74.7552 418.875)" fill="#131200"/>
<rect width="14.951" height="14.951" transform="matrix(6.24105e-08 1 1 -6.24105e-08 134.558 224.51)" fill="#131200"/>
<rect x="299.021" y="224.51" width="14.951" height="14.951" transform="rotate(90 299.021 224.51)" fill="#131200"/>
<rect width="14.951" height="14.951" transform="matrix(6.24105e-08 1 1 -6.24105e-08 104.657 179.657)" fill="#131200"/>
<rect x="328.922" y="179.657" width="14.951" height="14.951" transform="rotate(90 328.922 179.657)" fill="#131200"/>
<rect x="373.776" y="284.315" width="14.951" height="14.951" transform="rotate(90 373.776 284.315)" fill="#131200"/>
<rect x="74.7552" y="284.315" width="14.951" height="14.951" transform="rotate(90 74.7552 284.315)" fill="#131200"/>
<rect x="373.776" y="374.021" width="14.951" height="14.951" transform="rotate(90 373.776 374.021)" fill="#131200"/>
<rect x="74.7552" y="374.021" width="14.951" height="14.951" transform="rotate(90 74.7552 374.021)" fill="#131200"/>
<rect width="14.951" height="14.951" transform="matrix(6.24105e-08 1 1 -6.24105e-08 121.103 134.804)" fill="#131200"/>
<rect x="312.476" y="134.804" width="14.951" height="14.951" transform="rotate(90 312.476 134.804)" fill="#131200"/>
<rect width="14.951" height="14.951" transform="matrix(6.24105e-08 1 1 -6.24105e-08 134.558 119.854)" fill="#131200"/>
<rect x="299.021" y="119.854" width="14.951" height="14.951" transform="rotate(90 299.021 119.854)" fill="#131200"/>
<rect width="14.951" height="14.951" transform="matrix(6.24105e-08 1 1 -6.24105e-08 179.412 104.902)" fill="#131200"/>
<rect width="14.951" height="14.951" transform="matrix(6.24105e-08 1 1 -6.24105e-08 179.412 269.364)" fill="#131200"/>
<rect width="14.951" height="14.951" transform="matrix(6.24105e-08 1 1 -6.24105e-08 179.412 493.629)" fill="#131200"/>
<rect width="14.951" height="14.951" transform="matrix(6.24105e-08 1 1 -6.24105e-08 284.069 269.364)" fill="#131200"/>
<rect width="14.951" height="14.951" transform="matrix(6.24105e-08 1 1 -6.24105e-08 284.069 493.629)" fill="#131200"/>
<rect width="14.951" height="14.951" transform="matrix(6.24105e-08 1 1 -6.24105e-08 74.7552 269.364)" fill="#131200"/>
<rect width="14.951" height="14.951" transform="matrix(6.24105e-08 1 1 -6.24105e-08 74.7552 493.629)" fill="#131200"/>
<rect width="14.951" height="14.951" transform="matrix(6.24105e-08 1 1 -6.24105e-08 239.218 104.902)" fill="#131200"/>
<rect width="14.951" height="14.951" transform="matrix(6.24105e-08 1 1 -6.24105e-08 239.218 269.364)" fill="#131200"/>
<rect width="14.951" height="14.951" transform="matrix(6.24105e-08 1 1 -6.24105e-08 239.218 493.629)" fill="#131200"/>
<rect width="14.951" height="14.951" transform="matrix(6.24105e-08 1 1 -6.24105e-08 343.874 269.364)" fill="#131200"/>
<rect width="14.951" height="14.951" transform="matrix(6.24105e-08 1 1 -6.24105e-08 343.874 493.629)" fill="#131200"/>
<rect width="14.951" height="14.951" transform="matrix(6.24105e-08 1 1 -6.24105e-08 134.558 269.364)" fill="#131200"/>
<rect width="14.951" height="14.951" transform="matrix(6.24105e-08 1 1 -6.24105e-08 134.558 493.629)" fill="#131200"/>
<rect width="14.951" height="14.951" transform="matrix(6.24105e-08 1 1 -6.24105e-08 179.412 134.804)" fill="#131200"/>
<rect width="14.951" height="14.951" transform="matrix(6.24105e-08 1 1 -6.24105e-08 224.266 134.804)" fill="#131200"/>
<rect width="14.951" height="14.951" transform="matrix(6.24105e-08 1 1 -6.24105e-08 149.51 119.854)" fill="#131200"/>
<rect x="284.069" y="119.854" width="14.951" height="14.951" transform="rotate(90 284.069 119.854)" fill="#131200"/>
<rect width="14.951" height="14.951" transform="matrix(6.24105e-08 1 1 -6.24105e-08 194.364 104.902)" fill="#131200"/>
<rect width="14.951" height="14.951" transform="matrix(6.24105e-08 1 1 -6.24105e-08 194.364 269.364)" fill="#131200"/>
<rect width="14.951" height="14.951" transform="matrix(6.24105e-08 1 1 -6.24105e-08 194.364 493.629)" fill="#131200"/>
<rect width="14.951" height="14.951" transform="matrix(6.24105e-08 1 1 -6.24105e-08 299.021 269.364)" fill="#131200"/>
<rect width="14.951" height="14.951" transform="matrix(6.24105e-08 1 1 -6.24105e-08 299.021 493.629)" fill="#131200"/>
<rect width="14.951" height="14.951" transform="matrix(6.24105e-08 1 1 -6.24105e-08 89.7072 269.364)" fill="#131200"/>
<rect width="14.951" height="14.951" transform="matrix(6.24105e-08 1 1 -6.24105e-08 89.7072 493.629)" fill="#131200"/>
<rect width="14.951" height="14.951" transform="matrix(6.24105e-08 1 1 -6.24105e-08 254.167 104.902)" fill="#131200"/>
<rect width="14.951" height="14.951" transform="matrix(6.24105e-08 1 1 -6.24105e-08 254.167 269.364)" fill="#131200"/>
<rect width="14.951" height="14.951" transform="matrix(6.24105e-08 1 1 -6.24105e-08 254.167 493.629)" fill="#131200"/>
<rect width="14.951" height="14.951" transform="matrix(6.24105e-08 1 1 -6.24105e-08 358.824 269.364)" fill="#131200"/>
<rect width="14.951" height="14.951" transform="matrix(6.24105e-08 1 1 -6.24105e-08 358.824 493.629)" fill="#131200"/>
<rect width="14.951" height="14.951" transform="matrix(6.24105e-08 1 1 -6.24105e-08 149.51 269.364)" fill="#131200"/>
<rect width="14.951" height="14.951" transform="matrix(6.24105e-08 1 1 -6.24105e-08 149.51 493.629)" fill="#131200"/>
<rect width="14.951" height="14.951" transform="matrix(6.24105e-08 1 1 -6.24105e-08 194.364 134.804)" fill="#131200"/>
<rect width="14.951" height="14.951" transform="matrix(6.24105e-08 1 1 -6.24105e-08 239.218 134.804)" fill="#131200"/>
<rect width="14.951" height="14.951" transform="matrix(6.24105e-08 1 1 -6.24105e-08 164.462 104.902)" fill="#131200"/>
<rect width="14.951" height="14.951" transform="matrix(6.24105e-08 1 1 -6.24105e-08 164.462 269.364)" fill="#131200"/>
<rect width="14.951" height="14.951" transform="matrix(6.24105e-08 1 1 -6.24105e-08 164.462 493.629)" fill="#131200"/>
<rect width="14.951" height="14.951" transform="matrix(6.24105e-08 1 1 -6.24105e-08 269.119 269.364)" fill="#131200"/>
<rect width="14.951" height="14.951" transform="matrix(6.24105e-08 1 1 -6.24105e-08 269.119 493.629)" fill="#131200"/>
<rect width="14.951" height="14.951" transform="matrix(6.24105e-08 1 1 -6.24105e-08 59.8033 269.364)" fill="#131200"/>
<rect width="14.951" height="14.951" transform="matrix(6.24105e-08 1 1 -6.24105e-08 59.8033 493.629)" fill="#131200"/>
<rect width="14.951" height="14.951" transform="matrix(6.24105e-08 1 1 -6.24105e-08 224.266 104.902)" fill="#131200"/>
<rect width="14.951" height="14.951" transform="matrix(6.24105e-08 1 1 -6.24105e-08 224.266 269.364)" fill="#131200"/>
<rect width="14.951" height="14.951" transform="matrix(6.24105e-08 1 1 -6.24105e-08 224.266 493.629)" fill="#131200"/>
<rect width="14.951" height="14.951" transform="matrix(6.24105e-08 1 1 -6.24105e-08 328.922 269.364)" fill="#131200"/>
<rect width="14.951" height="14.951" transform="matrix(6.24105e-08 1 1 -6.24105e-08 328.922 493.629)" fill="#131200"/>
<rect width="14.951" height="14.951" transform="matrix(6.24105e-08 1 1 -6.24105e-08 119.609 269.364)" fill="#131200"/>
<rect width="14.951" height="14.951" transform="matrix(6.24105e-08 1 1 -6.24105e-08 119.609 493.629)" fill="#131200"/>
<rect width="14.951" height="14.951" transform="matrix(6.24105e-08 1 1 -6.24105e-08 209.314 104.902)" fill="#131200"/>
<rect width="14.951" height="14.951" transform="matrix(6.24105e-08 1 1 -6.24105e-08 209.314 269.364)" fill="#131200"/>
<rect width="14.951" height="14.951" transform="matrix(6.24105e-08 1 1 -6.24105e-08 209.314 493.629)" fill="#131200"/>
<rect width="14.951" height="14.951" transform="matrix(6.24105e-08 1 1 -6.24105e-08 313.973 269.364)" fill="#131200"/>
<rect width="14.951" height="14.951" transform="matrix(6.24105e-08 1 1 -6.24105e-08 313.973 493.629)" fill="#131200"/>
<rect width="14.951" height="14.951" transform="matrix(6.24105e-08 1 1 -6.24105e-08 104.657 269.364)" fill="#131200"/>
<rect width="14.951" height="14.951" transform="matrix(6.24105e-08 1 1 -6.24105e-08 104.657 493.629)" fill="#131200"/>
<rect width="14.951" height="14.951" transform="matrix(6.24105e-08 1 1 -6.24105e-08 209.314 134.804)" fill="#131200"/>
<rect width="14.951" height="14.951" transform="matrix(6.24105e-08 1 1 -6.24105e-08 254.167 134.804)" fill="#131200"/>
<rect x="400" y="154" width="14.0001" height="14.0001" fill="#131200"/>
<rect x="428" y="168" width="14.0001" height="14.0001" transform="rotate(90 428 168)" fill="#131200"/>
<rect x="400" y="182" width="14.0001" height="14.0001" fill="#131200"/>
<rect x="400" y="168" width="14.0001" height="14.0001" transform="rotate(90 400 168)" fill="#131200"/>
<rect x="57.6667" width="26.6667" height="26.6667" fill="#131200"/>
<rect x="111" y="26.6665" width="26.6667" height="26.6667" transform="rotate(90 111 26.6665)" fill="#131200"/>
<rect x="57.6667" y="53.3335" width="26.6667" height="26.6667" fill="#131200"/>
<rect x="57.6667" y="26.6665" width="26.6667" height="26.6667" transform="rotate(90 57.6667 26.6665)" fill="#131200"/>
</svg>
