<?xml version="1.0" encoding="utf-8"?>
<svg width="395" height="400" viewBox="54.701 76.398 289.017 238.133" fill="none" xmlns="http://www.w3.org/2000/svg">
  <path d="M54.4643 178.582H71.4963V195.614H54.4643V178.582Z" fill="black"/>
  <path d="M54.4643 161.551H71.4963V178.583H54.4643V161.551Z" fill="black"/>
  <path d="M54.4643 144.352H71.4963V161.384H54.4643V144.352Z" fill="black"/>
  <path d="M54.4643 127.318H71.4963V144.35H54.4643V127.318Z" fill="black"/>
  <path d="M54.4643 110.117H71.4963V127.318H54.4643V110.117Z" fill="black"/>
  <path d="M71.4988 195.783H88.6995V212.984H71.4988V195.783Z" fill="black"/>
  <path d="M71.4988 178.582H88.6995V195.614H71.4988V178.582Z" fill="#A9E000"/>
  <path d="M71.4988 161.551H88.6995V178.583H71.4988V161.551Z" fill="#A9E000"/>
  <path d="M71.4988 144.352H88.6995V161.384H71.4988V144.352Z" fill="#A9E000"/>
  <path d="M71.4988 127.318H88.6995V144.35H71.4988V127.318Z" fill="#A9E000"/>
  <path d="M71.4988 110.117H88.6995V127.318H71.4988V110.117Z" fill="#A9E000"/>
  <path d="M71.4988 93.0859H88.6995V110.118H71.4988V93.0859Z" fill="black"/>
  <path d="M88.6987 281.281H105.731V298.482H88.6987V281.281Z" fill="black"/>
  <path d="M88.6987 264.25H105.731V281.282H88.6987V264.25Z" fill="black"/>
  <path d="M88.6987 195.783H105.731V212.984H88.6987V195.783Z" fill="black"/>
  <path d="M88.6987 178.582H105.731V195.614H88.6987V178.582Z" fill="#A9E000"/>
  <path d="M88.6987 161.551H105.731V178.583H88.6987V161.551Z" fill="#A9E000"/>
  <path d="M88.6987 144.352H105.731V161.384H88.6987V144.352Z" fill="black"/>
  <path d="M88.6987 127.318H105.731V144.35H88.6987V127.318Z" fill="black"/>
  <path d="M88.6987 110.117H105.731V127.318H88.6987V110.117Z" fill="#A9E000"/>
  <path d="M88.6987 93.0859H105.731V110.118H88.6987V93.0859Z" fill="#A9E000"/>
  <path d="M88.6987 75.8848H105.731V92.9168H88.6987V75.8848Z" fill="black"/>
  <path d="M105.902 298.48H122.934V315.513H105.902V298.48Z" fill="black"/>
  <path d="M105.902 281.281H122.934V298.482H105.902V281.281Z" fill="#A9E000"/>
  <path d="M105.902 264.25H122.934V281.282H105.902V264.25Z" fill="#A9E000"/>
  <path d="M105.902 247.049H122.934V264.081H105.902V247.049Z" fill="black"/>
  <path d="M105.902 230.016H122.934V247.048H105.902V230.016Z" fill="black"/>
  <path d="M105.902 212.816H122.934V229.848H105.902V212.816Z" fill="black"/>
  <path d="M105.902 195.783H122.934V212.984H105.902V195.783Z" fill="black"/>
  <path d="M105.902 178.582H122.934V195.614H105.902V178.582Z" fill="#A9E000"/>
  <path d="M105.902 161.551H122.934V178.583H105.902V161.551Z" fill="#A9E000"/>
  <path d="M105.902 144.352H122.934V161.384H105.902V144.352Z" fill="#A9E000"/>
  <path d="M105.902 127.318H122.934V144.35H105.902V127.318Z" fill="#A9E000"/>
  <path d="M105.902 110.117H122.934V127.318H105.902V110.117Z" fill="#A9E000"/>
  <path d="M105.902 93.0859H122.934V110.118H105.902V93.0859Z" fill="#A9E000"/>
  <path d="M105.902 75.8848H122.934V92.9168H105.902V75.8848Z" fill="black"/>
  <path d="M122.764 298.48H139.965V315.513H122.764V298.48Z" fill="black"/>
  <path d="M122.764 281.281H139.965V298.482H122.764V281.281Z" fill="#A9E000"/>
  <path d="M122.764 264.25H139.965V281.282H122.764V264.25Z" fill="#A9E000"/>
  <path d="M122.764 247.049H139.965V264.081H122.764V247.049Z" fill="black"/>
  <path d="M122.764 230.016H139.965V247.048H122.764V230.016Z" fill="#A9E000"/>
  <path d="M122.764 212.816H139.965V229.848H122.764V212.816Z" fill="#A9E000"/>
  <path d="M122.764 195.783H139.965V212.984H122.764V195.783Z" fill="black"/>
  <path d="M122.764 178.582H139.965V195.614H122.764V178.582Z" fill="#A9E000"/>
  <path d="M122.764 161.551H139.965V178.583H122.764V161.551Z" fill="#A9E000"/>
  <path d="M122.764 144.352H139.965V161.384H122.764V144.352Z" fill="#A9E000"/>
  <path d="M122.764 127.318H139.965V144.35H122.764V127.318Z" fill="#A9E000"/>
  <path d="M122.764 110.117H139.965V127.318H122.764V110.117Z" fill="#A9E000"/>
  <path d="M122.764 93.0859H139.965V110.118H122.764V93.0859Z" fill="#A9E000"/>
  <path d="M122.764 75.8848H139.965V92.9168H122.764V75.8848Z" fill="black"/>
  <path d="M140.132 298.48H157.164V315.513H140.132V298.48Z" fill="black"/>
  <path d="M140.132 281.281H157.164V298.482H140.132V281.281Z" fill="#A9E000"/>
  <path d="M140.132 264.25H157.164V281.282H140.132V264.25Z" fill="#A9E000"/>
  <path d="M140.132 247.049H157.164V264.081H140.132V247.049Z" fill="black"/>
  <path d="M140.132 230.016H157.164V247.048H140.132V230.016Z" fill="#A9E000"/>
  <path d="M140.132 212.816H157.164V229.848H140.132V212.816Z" fill="#A9E000"/>
  <path d="M140.132 195.783H157.164V212.984H140.132V195.783Z" fill="black"/>
  <path d="M140.132 178.582H157.164V195.614H140.132V178.582Z" fill="#A9E000"/>
  <path d="M140.132 161.551H157.164V178.583H140.132V161.551Z" fill="#A9E000"/>
  <path d="M140.132 144.352H157.164V161.384H140.132V144.352Z" fill="#A9E000"/>
  <path d="M140.132 127.318H157.164V144.35H140.132V127.318Z" fill="#A9E000"/>
  <path d="M140.132 110.117H157.164V127.318H140.132V110.117Z" fill="#A9E000"/>
  <path d="M140.132 93.0859H157.164V110.118H140.132V93.0859Z" fill="#A9E000"/>
  <path d="M140.132 75.8848H157.164V92.9168H140.132V75.8848Z" fill="black"/>
  <path d="M156.995 298.48H174.196V315.513H156.995V298.48Z" fill="black"/>
  <path d="M156.995 281.281H174.196V298.482H156.995V281.281Z" fill="#A9E000"/>
  <path d="M156.995 264.25H174.196V281.282H156.995V264.25Z" fill="#A9E000"/>
  <path d="M156.995 247.049H174.196V264.081H156.995V247.049Z" fill="black"/>
  <path d="M156.995 230.016H174.196V247.048H156.995V230.016Z" fill="#A9E000"/>
  <path d="M156.995 212.816H174.196V229.848H156.995V212.816Z" fill="#A9E000"/>
  <path d="M156.995 195.783H174.196V212.984H156.995V195.783Z" fill="black"/>
  <path d="M156.995 178.582H174.196V195.614H156.995V178.582Z" fill="#A9E000"/>
  <path d="M156.995 161.551H174.196V178.583H156.995V161.551Z" fill="#A9E000"/>
  <path d="M156.995 144.352H174.196V161.384H156.995V144.352Z" fill="black"/>
  <path d="M156.995 127.318H174.196V144.35H156.995V127.318Z" fill="black"/>
  <path d="M156.995 110.117H174.196V127.318H156.995V110.117Z" fill="#A9E000"/>
  <path d="M156.995 93.0859H174.196V110.118H156.995V93.0859Z" fill="#A9E000"/>
  <path d="M156.995 75.8848H174.196V92.9168H156.995V75.8848Z" fill="black"/>
  <path d="M174.367 298.48H191.399V315.513H174.367V298.48Z" fill="black"/>
  <path d="M174.367 281.281H191.399V298.482H174.367V281.281Z" fill="#A9E000"/>
  <path d="M174.367 264.25H191.399V281.282H174.367V264.25Z" fill="#A9E000"/>
  <path d="M174.367 247.049H191.399V264.081H174.367V247.049Z" fill="black"/>
  <path d="M174.367 230.016H191.399V247.048H174.367V230.016Z" fill="#A9E000"/>
  <path d="M174.367 212.816H191.399V229.848H174.367V212.816Z" fill="#A9E000"/>
  <path d="M174.367 195.783H191.399V212.984H174.367V195.783Z" fill="black"/>
  <path d="M174.367 178.582H191.399V195.614H174.367V178.582Z" fill="#A9E000"/>
  <path d="M174.367 161.551H191.399V178.583H174.367V161.551Z" fill="#A9E000"/>
  <path d="M174.367 144.352H191.399V161.384H174.367V144.352Z" fill="#A9E000"/>
  <path d="M174.367 127.318H191.399V144.35H174.367V127.318Z" fill="#A9E000"/>
  <path d="M174.367 110.117H191.399V127.318H174.367V110.117Z" fill="#A9E000"/>
  <path d="M174.367 93.0859H191.399V110.118H174.367V93.0859Z" fill="#A9E000"/>
  <path d="M174.367 75.8848H191.399V92.9168H174.367V75.8848Z" fill="black"/>
  <path d="M191.398 298.48H208.43V315.513H191.398V298.48Z" fill="black"/>
  <path d="M191.398 281.281H208.43V298.482H191.398V281.281Z" fill="#A9E000"/>
  <path d="M191.398 264.25H208.43V281.282H191.398V264.25Z" fill="#A9E000"/>
  <path d="M191.398 247.049H208.43V264.081H191.398V247.049Z" fill="black"/>
  <path d="M191.398 230.016H208.43V247.048H191.398V230.016Z" fill="#A9E000"/>
  <path d="M191.398 212.816H208.43V229.848H191.398V212.816Z" fill="#A9E000"/>
  <path d="M191.398 195.783H208.43V212.984H191.398V195.783Z" fill="black"/>
  <path d="M191.398 178.582H208.43V195.614H191.398V178.582Z" fill="black"/>
  <path d="M191.398 161.551H208.43V178.583H191.398V161.551Z" fill="#A9E000"/>
  <path d="M191.398 144.352H208.43V161.384H191.398V144.352Z" fill="#A9E000"/>
  <path d="M191.398 127.318H208.43V144.35H191.398V127.318Z" fill="#A9E000"/>
  <path d="M191.398 110.117H208.43V127.318H191.398V110.117Z" fill="black"/>
  <path d="M191.398 93.0859H208.43V110.118H191.398V93.0859Z" fill="black"/>
  <path d="M208.432 298.48H225.633V315.513H208.432V298.48Z" fill="black"/>
  <path d="M208.432 281.281H225.633V298.482H208.432V281.281Z" fill="#A9E000"/>
  <path d="M208.432 264.25H225.633V281.282H208.432V264.25Z" fill="#A9E000"/>
  <path d="M208.432 247.049H225.633V264.081H208.432V247.049Z" fill="black"/>
  <path d="M208.432 230.016H225.633V247.048H208.432V230.016Z" fill="#A9E000"/>
  <path d="M208.432 212.816H225.633V229.848H208.432V212.816Z" fill="#A9E000"/>
  <path d="M208.432 195.783H225.633V212.984H208.432V195.783Z" fill="black"/>
  <path d="M208.432 161.551H225.633V178.583H208.432V161.551Z" fill="black"/>
  <path d="M208.432 144.352H225.633V161.384H208.432V144.352Z" fill="black"/>
  <path d="M208.432 127.318H225.633V144.35H208.432V127.318Z" fill="black"/>
  <path d="M225.632 298.48H242.664V315.513H225.632V298.48Z" fill="black"/>
  <path d="M225.632 281.281H242.664V298.482H225.632V281.281Z" fill="#A9E000"/>
  <path d="M225.632 264.25H242.664V281.282H225.632V264.25Z" fill="#A9E000"/>
  <path d="M225.632 247.049H242.664V264.081H225.632V247.049Z" fill="black"/>
  <path d="M225.632 230.016H242.664V247.048H225.632V230.016Z" fill="#A9E000"/>
  <path d="M225.632 212.816H242.664V229.848H225.632V212.816Z" fill="#A9E000"/>
  <path d="M225.632 195.783H242.664V212.984H225.632V195.783Z" fill="black"/>
  <path d="M242.659 298.48H259.86V315.513H242.659V298.48Z" fill="black"/>
  <path d="M242.659 281.281H259.86V298.482H242.659V281.281Z" fill="#A9E000"/>
  <path d="M242.659 264.25H259.86V281.282H242.659V264.25Z" fill="#A9E000"/>
  <path d="M242.659 247.049H259.86V264.081H242.659V247.049Z" fill="black"/>
  <path d="M242.659 230.016H259.86V247.048H242.659V230.016Z" fill="#A9E000"/>
  <path d="M242.659 212.816H259.86V229.848H242.659V212.816Z" fill="#A9E000"/>
  <path d="M242.659 195.783H259.86V212.984H242.659V195.783Z" fill="black"/>
  <path d="M259.867 298.48H276.899V315.513H259.867V298.48Z" fill="black"/>
  <path d="M259.867 281.281H276.899V298.482H259.867V281.281Z" fill="#A9E000"/>
  <path d="M259.867 264.25H276.899V281.282H259.867V264.25Z" fill="#A9E000"/>
  <path d="M259.867 247.049H276.899V264.081H259.867V247.049Z" fill="black"/>
  <path d="M259.867 230.016H276.899V247.048H259.867V230.016Z" fill="black"/>
  <path d="M259.867 212.816H276.899V229.848H259.867V212.816Z" fill="black"/>
  <path d="M277.062 298.48H294.094V315.513H277.062V298.48Z" fill="black"/>
  <path d="M277.062 281.281H294.094V298.482H277.062V281.281Z" fill="black"/>
  <path d="M277.062 264.25H294.094V281.282H277.062V264.25Z" fill="black"/>
  <path d="M277.062 247.049H294.094V264.081H277.062V247.049Z" fill="#A9E000"/>
  <path d="M277.062 230.016H294.094V247.048H277.062V230.016Z" fill="black"/>
  <path d="M293.925 298.48H311.125V315.513H293.925V298.48Z" fill="black"/>
  <path d="M293.925 281.281H311.125V298.482H293.925V281.281Z" fill="#A9E000"/>
  <path d="M293.925 264.25H311.125V281.282H293.925V264.25Z" fill="#A9E000"/>
  <path d="M293.925 247.049H311.125V264.081H293.925V247.049Z" fill="#A9E000"/>
  <path d="M293.925 230.016H311.125V247.048H293.925V230.016Z" fill="black"/>
  <path d="M293.925 212.816H311.125V229.848H293.925V212.816Z" fill="black"/>
  <path d="M311.296 281.281H328.328V298.482H311.296V281.281Z" fill="black"/>
  <path d="M311.296 264.25H328.328V281.282H311.296V264.25Z" fill="#A9E000"/>
  <path d="M311.296 247.049H328.328V264.081H311.296V247.049Z" fill="#A9E000"/>
  <path d="M311.296 230.016H328.328V247.048H311.296V230.016Z" fill="#A9E000"/>
  <path d="M311.296 212.816H328.328V229.848H311.296V212.816Z" fill="#A9E000"/>
  <path d="M311.296 195.783H328.328V212.984H311.296V195.783Z" fill="black"/>
  <path d="M328.159 264.25H345.36V281.282H328.159V264.25Z" fill="black"/>
  <path d="M328.159 247.049H345.36V264.081H328.159V247.049Z" fill="black"/>
  <path d="M328.159 230.016H345.36V247.048H328.159V230.016Z" fill="black"/>
  <path d="M328.159 212.816H345.36V229.848H328.159V212.816Z" fill="black"/>
</svg>