<svg width="80" height="81" viewBox="0 0 80 81" fill="none" xmlns="http://www.w3.org/2000/svg">
<path d="M68.1209 36.5125H64.7145V39.9189H68.1209V36.5125Z" fill="black"/>
<path d="M68.1209 33.106H64.7145V36.5124H68.1209V33.106Z" fill="black"/>
<path d="M68.1209 29.666H64.7145V33.0724H68.1209V29.666Z" fill="black"/>
<path d="M68.1209 26.2595H64.7145V29.6659H68.1209V26.2595Z" fill="black"/>
<path d="M68.1209 22.8193H64.7145V26.2595H68.1209V22.8193Z" fill="black"/>
<path d="M64.7142 39.9526H61.274V43.3928H64.7142V39.9526Z" fill="black"/>
<path d="M64.7142 36.5125H61.274V39.9189H64.7142V36.5125Z" fill="#A9E000"/>
<path d="M64.7142 33.106H61.274V36.5124H64.7142V33.106Z" fill="#A9E000"/>
<path d="M64.7142 29.666H61.274V33.0724H64.7142V29.666Z" fill="#A9E000"/>
<path d="M64.7142 26.2595H61.274V29.6659H64.7142V26.2595Z" fill="#A9E000"/>
<path d="M64.7142 22.8193H61.274V26.2595H64.7142V22.8193Z" fill="#A9E000"/>
<path d="M64.7142 19.4131H61.274V22.8195H64.7142V19.4131Z" fill="black"/>
<path d="M61.2742 57.052H57.8678V60.4921H61.2742V57.052Z" fill="black"/>
<path d="M61.2742 53.6458H57.8678V57.0522H61.2742V53.6458Z" fill="black"/>
<path d="M61.2742 39.9526H57.8678V43.3928H61.2742V39.9526Z" fill="black"/>
<path d="M61.2742 36.5125H57.8678V39.9189H61.2742V36.5125Z" fill="#A9E000"/>
<path d="M61.2742 33.106H57.8678V36.5124H61.2742V33.106Z" fill="#A9E000"/>
<path d="M61.2742 29.666H57.8678V33.0724H61.2742V29.666Z" fill="black"/>
<path d="M61.2742 26.2595H57.8678V29.6659H61.2742V26.2595Z" fill="black"/>
<path d="M61.2742 22.8193H57.8678V26.2595H61.2742V22.8193Z" fill="#A9E000"/>
<path d="M61.2742 19.4131H57.8678V22.8195H61.2742V19.4131Z" fill="#A9E000"/>
<path d="M61.2742 15.9729H57.8678V19.3793H61.2742V15.9729Z" fill="black"/>
<path d="M57.8341 60.4922H54.4277V63.8986H57.8341V60.4922Z" fill="black"/>
<path d="M57.8341 57.052H54.4277V60.4921H57.8341V57.052Z" fill="#A9E000"/>
<path d="M57.8341 53.6458H54.4277V57.0522H57.8341V53.6458Z" fill="#A9E000"/>
<path d="M57.8341 50.2056H54.4277V53.612H57.8341V50.2056Z" fill="black"/>
<path d="M57.8341 46.7991H54.4277V50.2055H57.8341V46.7991Z" fill="black"/>
<path d="M57.8341 43.3591H54.4277V46.7655H57.8341V43.3591Z" fill="black"/>
<path d="M57.8341 39.9526H54.4277V43.3928H57.8341V39.9526Z" fill="black"/>
<path d="M57.8341 36.5125H54.4277V39.9189H57.8341V36.5125Z" fill="#A9E000"/>
<path d="M57.8341 33.106H54.4277V36.5124H57.8341V33.106Z" fill="#A9E000"/>
<path d="M57.8341 29.666H54.4277V33.0724H57.8341V29.666Z" fill="#A9E000"/>
<path d="M57.8341 26.2595H54.4277V29.6659H57.8341V26.2595Z" fill="#A9E000"/>
<path d="M57.8341 22.8193H54.4277V26.2595H57.8341V22.8193Z" fill="#A9E000"/>
<path d="M57.8341 19.4131H54.4277V22.8195H57.8341V19.4131Z" fill="#A9E000"/>
<path d="M57.8341 15.9729H54.4277V19.3793H57.8341V15.9729Z" fill="black"/>
<path d="M54.4613 60.4922H51.0211V63.8986H54.4613V60.4922Z" fill="black"/>
<path d="M54.4613 57.052H51.0211V60.4921H54.4613V57.052Z" fill="#A9E000"/>
<path d="M54.4613 53.6458H51.0211V57.0522H54.4613V53.6458Z" fill="#A9E000"/>
<path d="M54.4613 50.2056H51.0211V53.612H54.4613V50.2056Z" fill="black"/>
<path d="M54.4613 46.7991H51.0211V50.2055H54.4613V46.7991Z" fill="#A9E000"/>
<path d="M54.4613 43.3591H51.0211V46.7655H54.4613V43.3591Z" fill="#A9E000"/>
<path d="M54.4613 39.9526H51.0211V43.3928H54.4613V39.9526Z" fill="black"/>
<path d="M54.4613 36.5125H51.0211V39.9189H54.4613V36.5125Z" fill="#A9E000"/>
<path d="M54.4613 33.106H51.0211V36.5124H54.4613V33.106Z" fill="#A9E000"/>
<path d="M54.4613 29.666H51.0211V33.0724H54.4613V29.666Z" fill="#A9E000"/>
<path d="M54.4613 26.2595H51.0211V29.6659H54.4613V26.2595Z" fill="#A9E000"/>
<path d="M54.4613 22.8193H51.0211V26.2595H54.4613V22.8193Z" fill="#A9E000"/>
<path d="M54.4613 19.4131H51.0211V22.8195H54.4613V19.4131Z" fill="#A9E000"/>
<path d="M54.4613 15.9729H51.0211V19.3793H54.4613V15.9729Z" fill="black"/>
<path d="M50.9875 60.4922H47.5811V63.8986H50.9875V60.4922Z" fill="black"/>
<path d="M50.9875 57.052H47.5811V60.4921H50.9875V57.052Z" fill="#A9E000"/>
<path d="M50.9875 53.6458H47.5811V57.0522H50.9875V53.6458Z" fill="#A9E000"/>
<path d="M50.9875 50.2056H47.5811V53.612H50.9875V50.2056Z" fill="black"/>
<path d="M50.9875 46.7991H47.5811V50.2055H50.9875V46.7991Z" fill="#A9E000"/>
<path d="M50.9875 43.3591H47.5811V46.7655H50.9875V43.3591Z" fill="#A9E000"/>
<path d="M50.9875 39.9526H47.5811V43.3928H50.9875V39.9526Z" fill="black"/>
<path d="M50.9875 36.5125H47.5811V39.9189H50.9875V36.5125Z" fill="#A9E000"/>
<path d="M50.9875 33.106H47.5811V36.5124H50.9875V33.106Z" fill="#A9E000"/>
<path d="M50.9875 29.666H47.5811V33.0724H50.9875V29.666Z" fill="#A9E000"/>
<path d="M50.9875 26.2595H47.5811V29.6659H50.9875V26.2595Z" fill="#A9E000"/>
<path d="M50.9875 22.8193H47.5811V26.2595H50.9875V22.8193Z" fill="#A9E000"/>
<path d="M50.9875 19.4131H47.5811V22.8195H50.9875V19.4131Z" fill="#A9E000"/>
<path d="M50.9875 15.9729H47.5811V19.3793H50.9875V15.9729Z" fill="black"/>
<path d="M47.6149 60.4922H44.1748V63.8986H47.6149V60.4922Z" fill="black"/>
<path d="M47.6149 57.052H44.1748V60.4921H47.6149V57.052Z" fill="#A9E000"/>
<path d="M47.6149 53.6458H44.1748V57.0522H47.6149V53.6458Z" fill="#A9E000"/>
<path d="M47.6149 50.2056H44.1748V53.612H47.6149V50.2056Z" fill="black"/>
<path d="M47.6149 46.7991H44.1748V50.2055H47.6149V46.7991Z" fill="#A9E000"/>
<path d="M47.6149 43.3591H44.1748V46.7655H47.6149V43.3591Z" fill="#A9E000"/>
<path d="M47.6149 39.9526H44.1748V43.3928H47.6149V39.9526Z" fill="black"/>
<path d="M47.6149 36.5125H44.1748V39.9189H47.6149V36.5125Z" fill="#A9E000"/>
<path d="M47.6149 33.106H44.1748V36.5124H47.6149V33.106Z" fill="#A9E000"/>
<path d="M47.6149 29.666H44.1748V33.0724H47.6149V29.666Z" fill="black"/>
<path d="M47.6149 26.2595H44.1748V29.6659H47.6149V26.2595Z" fill="black"/>
<path d="M47.6149 22.8193H44.1748V26.2595H47.6149V22.8193Z" fill="#A9E000"/>
<path d="M47.6149 19.4131H44.1748V22.8195H47.6149V19.4131Z" fill="#A9E000"/>
<path d="M47.6149 15.9729H44.1748V19.3793H47.6149V15.9729Z" fill="black"/>
<path d="M44.141 60.4922H40.7346V63.8986H44.141V60.4922Z" fill="black"/>
<path d="M44.141 57.052H40.7346V60.4921H44.141V57.052Z" fill="#A9E000"/>
<path d="M44.141 53.6458H40.7346V57.0522H44.141V53.6458Z" fill="#A9E000"/>
<path d="M44.141 50.2056H40.7346V53.612H44.141V50.2056Z" fill="black"/>
<path d="M44.141 46.7991H40.7346V50.2055H44.141V46.7991Z" fill="#A9E000"/>
<path d="M44.141 43.3591H40.7346V46.7655H44.141V43.3591Z" fill="#A9E000"/>
<path d="M44.141 39.9526H40.7346V43.3928H44.141V39.9526Z" fill="black"/>
<path d="M44.141 36.5125H40.7346V39.9189H44.141V36.5125Z" fill="#A9E000"/>
<path d="M44.141 33.106H40.7346V36.5124H44.141V33.106Z" fill="#A9E000"/>
<path d="M44.141 29.666H40.7346V33.0724H44.141V29.666Z" fill="#A9E000"/>
<path d="M44.141 26.2595H40.7346V29.6659H44.141V26.2595Z" fill="#A9E000"/>
<path d="M44.141 22.8193H40.7346V26.2595H44.141V22.8193Z" fill="#A9E000"/>
<path d="M44.141 19.4131H40.7346V22.8195H44.141V19.4131Z" fill="#A9E000"/>
<path d="M44.141 15.9729H40.7346V19.3793H44.141V15.9729Z" fill="black"/>
<path d="M40.7345 60.4922H37.3281V63.8986H40.7345V60.4922Z" fill="black"/>
<path d="M40.7345 57.052H37.3281V60.4921H40.7345V57.052Z" fill="#A9E000"/>
<path d="M40.7345 53.6458H37.3281V57.0522H40.7345V53.6458Z" fill="#A9E000"/>
<path d="M40.7345 50.2056H37.3281V53.612H40.7345V50.2056Z" fill="black"/>
<path d="M40.7345 46.7991H37.3281V50.2055H40.7345V46.7991Z" fill="#A9E000"/>
<path d="M40.7345 43.3591H37.3281V46.7655H40.7345V43.3591Z" fill="#A9E000"/>
<path d="M40.7345 39.9526H37.3281V43.3928H40.7345V39.9526Z" fill="black"/>
<path d="M40.7345 36.5125H37.3281V39.9189H40.7345V36.5125Z" fill="black"/>
<path d="M40.7345 33.106H37.3281V36.5124H40.7345V33.106Z" fill="#A9E000"/>
<path d="M40.7345 29.666H37.3281V33.0724H40.7345V29.666Z" fill="#A9E000"/>
<path d="M40.7345 26.2595H37.3281V29.6659H40.7345V26.2595Z" fill="#A9E000"/>
<path d="M40.7345 22.8193H37.3281V26.2595H40.7345V22.8193Z" fill="black"/>
<path d="M40.7345 19.4131H37.3281V22.8195H40.7345V19.4131Z" fill="black"/>
<path d="M37.3281 60.4922H33.8879V63.8986H37.3281V60.4922Z" fill="black"/>
<path d="M37.3281 57.052H33.8879V60.4921H37.3281V57.052Z" fill="#A9E000"/>
<path d="M37.3281 53.6458H33.8879V57.0522H37.3281V53.6458Z" fill="#A9E000"/>
<path d="M37.3281 50.2056H33.8879V53.612H37.3281V50.2056Z" fill="black"/>
<path d="M37.3281 46.7991H33.8879V50.2055H37.3281V46.7991Z" fill="#A9E000"/>
<path d="M37.3281 43.3591H33.8879V46.7655H37.3281V43.3591Z" fill="#A9E000"/>
<path d="M37.3281 39.9526H33.8879V43.3928H37.3281V39.9526Z" fill="black"/>
<path d="M37.3281 33.106H33.8879V36.5124H37.3281V33.106Z" fill="black"/>
<path d="M37.3281 29.666H33.8879V33.0724H37.3281V29.666Z" fill="black"/>
<path d="M37.3281 26.2595H33.8879V29.6659H37.3281V26.2595Z" fill="black"/>
<path d="M33.8879 60.4922H30.4814V63.8986H33.8879V60.4922Z" fill="black"/>
<path d="M33.8879 57.052H30.4814V60.4921H33.8879V57.052Z" fill="#A9E000"/>
<path d="M33.8879 53.6458H30.4814V57.0522H33.8879V53.6458Z" fill="#A9E000"/>
<path d="M33.8879 50.2056H30.4814V53.612H33.8879V50.2056Z" fill="black"/>
<path d="M33.8879 46.7991H30.4814V50.2055H33.8879V46.7991Z" fill="#A9E000"/>
<path d="M33.8879 43.3591H30.4814V46.7655H33.8879V43.3591Z" fill="#A9E000"/>
<path d="M33.8879 39.9526H30.4814V43.3928H33.8879V39.9526Z" fill="black"/>
<path d="M30.4818 60.4922H27.0416V63.8986H30.4818V60.4922Z" fill="black"/>
<path d="M30.4818 57.052H27.0416V60.4921H30.4818V57.052Z" fill="#A9E000"/>
<path d="M30.4818 53.6458H27.0416V57.0522H30.4818V53.6458Z" fill="#A9E000"/>
<path d="M30.4818 50.2056H27.0416V53.612H30.4818V50.2056Z" fill="black"/>
<path d="M30.4818 46.7991H27.0416V50.2055H30.4818V46.7991Z" fill="#A9E000"/>
<path d="M30.4818 43.3591H27.0416V46.7655H30.4818V43.3591Z" fill="#A9E000"/>
<path d="M30.4818 39.9526H27.0416V43.3928H30.4818V39.9526Z" fill="black"/>
<path d="M27.0414 60.4922H23.635V63.8986H27.0414V60.4922Z" fill="black"/>
<path d="M27.0414 57.052H23.635V60.4921H27.0414V57.052Z" fill="#A9E000"/>
<path d="M27.0414 53.6458H23.635V57.0522H27.0414V53.6458Z" fill="#A9E000"/>
<path d="M27.0414 50.2056H23.635V53.612H27.0414V50.2056Z" fill="black"/>
<path d="M27.0414 46.7991H23.635V50.2055H27.0414V46.7991Z" fill="black"/>
<path d="M27.0414 43.3591H23.635V46.7655H27.0414V43.3591Z" fill="black"/>
<path d="M23.6014 60.4922H20.1949V63.8986H23.6014V60.4922Z" fill="black"/>
<path d="M23.6014 57.052H20.1949V60.4921H23.6014V57.052Z" fill="black"/>
<path d="M23.6014 53.6458H20.1949V57.0522H23.6014V53.6458Z" fill="black"/>
<path d="M23.6014 50.2056H20.1949V53.612H23.6014V50.2056Z" fill="#A9E000"/>
<path d="M23.6014 46.7991H20.1949V50.2055H23.6014V46.7991Z" fill="black"/>
<path d="M20.2288 60.4922H16.7887V63.8986H20.2288V60.4922Z" fill="black"/>
<path d="M20.2288 57.052H16.7887V60.4921H20.2288V57.052Z" fill="#A9E000"/>
<path d="M20.2288 53.6458H16.7887V57.0522H20.2288V53.6458Z" fill="#A9E000"/>
<path d="M20.2288 50.2056H16.7887V53.612H20.2288V50.2056Z" fill="#A9E000"/>
<path d="M20.2288 46.7991H16.7887V50.2055H20.2288V46.7991Z" fill="black"/>
<path d="M20.2288 43.3591H16.7887V46.7655H20.2288V43.3591Z" fill="black"/>
<path d="M16.755 57.052H13.3486V60.4921H16.755V57.052Z" fill="black"/>
<path d="M16.755 53.6458H13.3486V57.0522H16.755V53.6458Z" fill="#A9E000"/>
<path d="M16.755 50.2056H13.3486V53.612H16.755V50.2056Z" fill="#A9E000"/>
<path d="M16.755 46.7991H13.3486V50.2055H16.755V46.7991Z" fill="#A9E000"/>
<path d="M16.755 43.3591H13.3486V46.7655H16.755V43.3591Z" fill="#A9E000"/>
<path d="M16.755 39.9526H13.3486V43.3928H16.755V39.9526Z" fill="black"/>
<path d="M13.3822 53.6458H9.94202V57.0522H13.3822V53.6458Z" fill="black"/>
<path d="M13.3822 50.2056H9.94202V53.612H13.3822V50.2056Z" fill="black"/>
<path d="M13.3822 46.7991H9.94202V50.2055H13.3822V46.7991Z" fill="black"/>
<path d="M13.3822 43.3591H9.94202V46.7655H13.3822V43.3591Z" fill="black"/>
</svg>
