<svg width="60" height="60" viewBox="0 0 60 60" fill="none" xmlns="http://www.w3.org/2000/svg">
<g clip-path="url(#clip0_104_6194)">
<rect width="60" height="60" fill="white"/>
<path d="M50.9705 27.4688H48.4157V30.0236H50.9705V27.4688Z" fill="black"/>
<path d="M50.9705 24.9141H48.4157V27.4689H50.9705V24.9141Z" fill="black"/>
<path d="M50.9705 22.334H48.4157V24.8888H50.9705V22.334Z" fill="black"/>
<path d="M50.9705 19.7793H48.4157V22.3341H50.9705V19.7793Z" fill="black"/>
<path d="M50.9705 17.1992H48.4157V19.7793H50.9705V17.1992Z" fill="black"/>
<path d="M48.4151 30.0488H45.835V32.6289H48.4151V30.0488Z" fill="black"/>
<path d="M48.4151 27.4688H45.835V30.0236H48.4151V27.4688Z" fill="#D35269"/>
<path d="M48.4151 24.9141H45.835V27.4689H48.4151V24.9141Z" fill="#D35269"/>
<path d="M48.4151 22.334H45.835V24.8888H48.4151V22.334Z" fill="#D35269"/>
<path d="M48.4151 19.7793H45.835V22.3341H48.4151V19.7793Z" fill="#D35269"/>
<path d="M48.4151 17.1992H45.835V19.7793H48.4151V17.1992Z" fill="#D35269"/>
<path d="M48.4151 14.6445H45.835V17.1993H48.4151V14.6445Z" fill="black"/>
<path d="M45.8356 42.874H43.2808V45.4541H45.8356V42.874Z" fill="black"/>
<path d="M45.8356 40.3193H43.2808V42.8741H45.8356V40.3193Z" fill="black"/>
<path d="M45.8356 30.0488H43.2808V32.6289H45.8356V30.0488Z" fill="black"/>
<path d="M45.8356 27.4688H43.2808V30.0236H45.8356V27.4688Z" fill="#D35269"/>
<path d="M45.8356 24.9141H43.2808V27.4689H45.8356V24.9141Z" fill="#D35269"/>
<path d="M45.8356 22.334H43.2808V24.8888H45.8356V22.334Z" fill="black"/>
<path d="M45.8356 19.7793H43.2808V22.3341H45.8356V19.7793Z" fill="black"/>
<path d="M45.8356 17.1992H43.2808V19.7793H45.8356V17.1992Z" fill="#D35269"/>
<path d="M45.8356 14.6445H43.2808V17.1993H45.8356V14.6445Z" fill="#D35269"/>
<path d="M45.8356 12.0645H43.2808V14.6193H45.8356V12.0645Z" fill="black"/>
<path d="M43.2548 45.4541H40.7V48.0089H43.2548V45.4541Z" fill="black"/>
<path d="M43.2548 42.874H40.7V45.4541H43.2548V42.874Z" fill="#D35269"/>
<path d="M43.2548 40.3193H40.7V42.8741H43.2548V40.3193Z" fill="#D35269"/>
<path d="M43.2548 37.7393H40.7V40.2941H43.2548V37.7393Z" fill="black"/>
<path d="M43.2548 35.1846H40.7V37.7394H43.2548V35.1846Z" fill="black"/>
<path d="M43.2548 32.6045H40.7V35.1593H43.2548V32.6045Z" fill="black"/>
<path d="M43.2548 30.0488H40.7V32.6289H43.2548V30.0488Z" fill="black"/>
<path d="M43.2548 27.4688H40.7V30.0236H43.2548V27.4688Z" fill="#D35269"/>
<path d="M43.2548 24.9141H40.7V27.4689H43.2548V24.9141Z" fill="#D35269"/>
<path d="M43.2548 22.334H40.7V24.8888H43.2548V22.334Z" fill="#D35269"/>
<path d="M43.2548 19.7793H40.7V22.3341H43.2548V19.7793Z" fill="#D35269"/>
<path d="M43.2548 17.1992H40.7V19.7793H43.2548V17.1992Z" fill="#D35269"/>
<path d="M43.2548 14.6445H40.7V17.1993H43.2548V14.6445Z" fill="#D35269"/>
<path d="M43.2548 12.0645H40.7V14.6193H43.2548V12.0645Z" fill="black"/>
<path d="M40.726 45.4541H38.1459V48.0089H40.726V45.4541Z" fill="black"/>
<path d="M40.726 42.874H38.1459V45.4541H40.726V42.874Z" fill="#D35269"/>
<path d="M40.726 40.3193H38.1459V42.8741H40.726V40.3193Z" fill="#D35269"/>
<path d="M40.726 37.7393H38.1459V40.2941H40.726V37.7393Z" fill="black"/>
<path d="M40.726 35.1846H38.1459V37.7394H40.726V35.1846Z" fill="#D35269"/>
<path d="M40.726 32.6045H38.1459V35.1593H40.726V32.6045Z" fill="#D35269"/>
<path d="M40.726 30.0488H38.1459V32.6289H40.726V30.0488Z" fill="black"/>
<path d="M40.726 27.4688H38.1459V30.0236H40.726V27.4688Z" fill="#D35269"/>
<path d="M40.726 24.9141H38.1459V27.4689H40.726V24.9141Z" fill="#D35269"/>
<path d="M40.726 22.334H38.1459V24.8888H40.726V22.334Z" fill="#D35269"/>
<path d="M40.726 19.7793H38.1459V22.3341H40.726V19.7793Z" fill="#D35269"/>
<path d="M40.726 17.1992H38.1459V19.7793H40.726V17.1992Z" fill="#D35269"/>
<path d="M40.726 14.6445H38.1459V17.1993H40.726V14.6445Z" fill="#D35269"/>
<path d="M40.726 12.0645H38.1459V14.6193H40.726V12.0645Z" fill="black"/>
<path d="M38.1199 45.4541H35.5651V48.0089H38.1199V45.4541Z" fill="black"/>
<path d="M38.1199 42.874H35.5651V45.4541H38.1199V42.874Z" fill="#D35269"/>
<path d="M38.1199 40.3193H35.5651V42.8741H38.1199V40.3193Z" fill="#D35269"/>
<path d="M38.1199 37.7393H35.5651V40.2941H38.1199V37.7393Z" fill="black"/>
<path d="M38.1199 35.1846H35.5651V37.7394H38.1199V35.1846Z" fill="#D35269"/>
<path d="M38.1199 32.6045H35.5651V35.1593H38.1199V32.6045Z" fill="#D35269"/>
<path d="M38.1199 30.0488H35.5651V32.6289H38.1199V30.0488Z" fill="black"/>
<path d="M38.1199 27.4688H35.5651V30.0236H38.1199V27.4688Z" fill="#D35269"/>
<path d="M38.1199 24.9141H35.5651V27.4689H38.1199V24.9141Z" fill="#D35269"/>
<path d="M38.1199 22.334H35.5651V24.8888H38.1199V22.334Z" fill="#D35269"/>
<path d="M38.1199 19.7793H35.5651V22.3341H38.1199V19.7793Z" fill="#D35269"/>
<path d="M38.1199 17.1992H35.5651V19.7793H38.1199V17.1992Z" fill="#D35269"/>
<path d="M38.1199 14.6445H35.5651V17.1993H38.1199V14.6445Z" fill="#D35269"/>
<path d="M38.1199 12.0645H35.5651V14.6193H38.1199V12.0645Z" fill="black"/>
<path d="M35.591 45.4541H33.0109V48.0089H35.591V45.4541Z" fill="black"/>
<path d="M35.591 42.874H33.0109V45.4541H35.591V42.874Z" fill="#D35269"/>
<path d="M35.591 40.3193H33.0109V42.8741H35.591V40.3193Z" fill="#D35269"/>
<path d="M35.591 37.7393H33.0109V40.2941H35.591V37.7393Z" fill="black"/>
<path d="M35.591 35.1846H33.0109V37.7394H35.591V35.1846Z" fill="#D35269"/>
<path d="M35.591 32.6045H33.0109V35.1593H35.591V32.6045Z" fill="#D35269"/>
<path d="M35.591 30.0488H33.0109V32.6289H35.591V30.0488Z" fill="black"/>
<path d="M35.591 27.4688H33.0109V30.0236H35.591V27.4688Z" fill="#D35269"/>
<path d="M35.591 24.9141H33.0109V27.4689H35.591V24.9141Z" fill="#D35269"/>
<path d="M35.591 22.334H33.0109V24.8888H35.591V22.334Z" fill="black"/>
<path d="M35.591 19.7793H33.0109V22.3341H35.591V19.7793Z" fill="black"/>
<path d="M35.591 17.1992H33.0109V19.7793H35.591V17.1992Z" fill="#D35269"/>
<path d="M35.591 14.6445H33.0109V17.1993H35.591V14.6445Z" fill="#D35269"/>
<path d="M35.591 12.0645H33.0109V14.6193H35.591V12.0645Z" fill="black"/>
<path d="M32.9849 45.4541H30.4301V48.0089H32.9849V45.4541Z" fill="black"/>
<path d="M32.9849 42.874H30.4301V45.4541H32.9849V42.874Z" fill="#D35269"/>
<path d="M32.9849 40.3193H30.4301V42.8741H32.9849V40.3193Z" fill="#D35269"/>
<path d="M32.9849 37.7393H30.4301V40.2941H32.9849V37.7393Z" fill="black"/>
<path d="M32.9849 35.1846H30.4301V37.7394H32.9849V35.1846Z" fill="#D35269"/>
<path d="M32.9849 32.6045H30.4301V35.1593H32.9849V32.6045Z" fill="#D35269"/>
<path d="M32.9849 30.0488H30.4301V32.6289H32.9849V30.0488Z" fill="black"/>
<path d="M32.9849 27.4688H30.4301V30.0236H32.9849V27.4688Z" fill="#D35269"/>
<path d="M32.9849 24.9141H30.4301V27.4689H32.9849V24.9141Z" fill="#D35269"/>
<path d="M32.9849 22.334H30.4301V24.8888H32.9849V22.334Z" fill="#D35269"/>
<path d="M32.9849 19.7793H30.4301V22.3341H32.9849V19.7793Z" fill="#D35269"/>
<path d="M32.9849 17.1992H30.4301V19.7793H32.9849V17.1992Z" fill="#D35269"/>
<path d="M32.9849 14.6445H30.4301V17.1993H32.9849V14.6445Z" fill="#D35269"/>
<path d="M32.9849 12.0645H30.4301V14.6193H32.9849V12.0645Z" fill="black"/>
<path d="M30.4308 45.4541H27.876V48.0089H30.4308V45.4541Z" fill="black"/>
<path d="M30.4308 42.874H27.876V45.4541H30.4308V42.874Z" fill="#D35269"/>
<path d="M30.4308 40.3193H27.876V42.8741H30.4308V40.3193Z" fill="#D35269"/>
<path d="M30.4308 37.7393H27.876V40.2941H30.4308V37.7393Z" fill="black"/>
<path d="M30.4308 35.1846H27.876V37.7394H30.4308V35.1846Z" fill="#D35269"/>
<path d="M30.4308 32.6045H27.876V35.1593H30.4308V32.6045Z" fill="#D35269"/>
<path d="M30.4308 30.0488H27.876V32.6289H30.4308V30.0488Z" fill="black"/>
<path d="M30.4308 27.4688H27.876V30.0236H30.4308V27.4688Z" fill="black"/>
<path d="M30.4308 24.9141H27.876V27.4689H30.4308V24.9141Z" fill="#D35269"/>
<path d="M30.4308 22.334H27.876V24.8888H30.4308V22.334Z" fill="#D35269"/>
<path d="M30.4308 19.7793H27.876V22.3341H30.4308V19.7793Z" fill="#D35269"/>
<path d="M30.4308 17.1992H27.876V19.7793H30.4308V17.1992Z" fill="black"/>
<path d="M30.4308 14.6445H27.876V17.1993H30.4308V14.6445Z" fill="black"/>
<path d="M27.8753 45.4541H25.2952V48.0089H27.8753V45.4541Z" fill="black"/>
<path d="M27.8753 42.874H25.2952V45.4541H27.8753V42.874Z" fill="#D35269"/>
<path d="M27.8753 40.3193H25.2952V42.8741H27.8753V40.3193Z" fill="#D35269"/>
<path d="M27.8753 37.7393H25.2952V40.2941H27.8753V37.7393Z" fill="black"/>
<path d="M27.8753 35.1846H25.2952V37.7394H27.8753V35.1846Z" fill="#D35269"/>
<path d="M27.8753 32.6045H25.2952V35.1593H27.8753V32.6045Z" fill="#D35269"/>
<path d="M27.8753 30.0488H25.2952V32.6289H27.8753V30.0488Z" fill="black"/>
<path d="M27.8753 24.9141H25.2952V27.4689H27.8753V24.9141Z" fill="black"/>
<path d="M27.8753 22.334H25.2952V24.8888H27.8753V22.334Z" fill="black"/>
<path d="M27.8753 19.7793H25.2952V22.3341H27.8753V19.7793Z" fill="black"/>
<path d="M25.2958 45.4541H22.741V48.0089H25.2958V45.4541Z" fill="black"/>
<path d="M25.2958 42.874H22.741V45.4541H25.2958V42.874Z" fill="#D35269"/>
<path d="M25.2958 40.3193H22.741V42.8741H25.2958V40.3193Z" fill="#D35269"/>
<path d="M25.2958 37.7393H22.741V40.2941H25.2958V37.7393Z" fill="black"/>
<path d="M25.2958 35.1846H22.741V37.7394H25.2958V35.1846Z" fill="#D35269"/>
<path d="M25.2958 32.6045H22.741V35.1593H25.2958V32.6045Z" fill="#D35269"/>
<path d="M25.2958 30.0488H22.741V32.6289H25.2958V30.0488Z" fill="black"/>
<path d="M22.7404 45.4541H20.1602V48.0089H22.7404V45.4541Z" fill="black"/>
<path d="M22.7404 42.874H20.1602V45.4541H22.7404V42.874Z" fill="#D35269"/>
<path d="M22.7404 40.3193H20.1602V42.8741H22.7404V40.3193Z" fill="#D35269"/>
<path d="M22.7404 37.7393H20.1602V40.2941H22.7404V37.7393Z" fill="black"/>
<path d="M22.7404 35.1846H20.1602V37.7394H22.7404V35.1846Z" fill="#D35269"/>
<path d="M22.7404 32.6045H20.1602V35.1593H22.7404V32.6045Z" fill="#D35269"/>
<path d="M22.7404 30.0488H20.1602V32.6289H22.7404V30.0488Z" fill="black"/>
<path d="M20.1609 45.4541H17.6061V48.0089H20.1609V45.4541Z" fill="black"/>
<path d="M20.1609 42.874H17.6061V45.4541H20.1609V42.874Z" fill="#D35269"/>
<path d="M20.1609 40.3193H17.6061V42.8741H20.1609V40.3193Z" fill="#D35269"/>
<path d="M20.1609 37.7393H17.6061V40.2941H20.1609V37.7393Z" fill="black"/>
<path d="M20.1609 35.1846H17.6061V37.7394H20.1609V35.1846Z" fill="black"/>
<path d="M20.1609 32.6045H17.6061V35.1593H20.1609V32.6045Z" fill="black"/>
<path d="M17.5801 45.4541H15.0253V48.0089H17.5801V45.4541Z" fill="black"/>
<path d="M17.5801 42.874H15.0253V45.4541H17.5801V42.874Z" fill="black"/>
<path d="M17.5801 40.3193H15.0253V42.8741H17.5801V40.3193Z" fill="black"/>
<path d="M17.5801 37.7393H15.0253V40.2941H17.5801V37.7393Z" fill="#D35269"/>
<path d="M17.5801 35.1846H15.0253V37.7394H17.5801V35.1846Z" fill="black"/>
<path d="M15.0512 45.4541H12.4711V48.0089H15.0512V45.4541Z" fill="black"/>
<path d="M15.0512 42.874H12.4711V45.4541H15.0512V42.874Z" fill="#D35269"/>
<path d="M15.0512 40.3193H12.4711V42.8741H15.0512V40.3193Z" fill="#D35269"/>
<path d="M15.0512 37.7393H12.4711V40.2941H15.0512V37.7393Z" fill="#D35269"/>
<path d="M15.0512 35.1846H12.4711V37.7394H15.0512V35.1846Z" fill="black"/>
<path d="M15.0512 32.6045H12.4711V35.1593H15.0512V32.6045Z" fill="black"/>
<path d="M12.4452 42.874H9.89037V45.4541H12.4452V42.874Z" fill="black"/>
<path d="M12.4452 40.3193H9.89037V42.8741H12.4452V40.3193Z" fill="#D35269"/>
<path d="M12.4452 37.7393H9.89037V40.2941H12.4452V37.7393Z" fill="#D35269"/>
<path d="M12.4452 35.1846H9.89037V37.7394H12.4452V35.1846Z" fill="#D35269"/>
<path d="M12.4452 32.6045H9.89037V35.1593H12.4452V32.6045Z" fill="#D35269"/>
<path d="M12.4452 30.0488H9.89037V32.6289H12.4452V30.0488Z" fill="black"/>
<path d="M9.9163 40.3193H7.3362V42.8741H9.9163V40.3193Z" fill="black"/>
<path d="M9.9163 37.7393H7.3362V40.2941H9.9163V37.7393Z" fill="black"/>
<path d="M9.9163 35.1846H7.3362V37.7394H9.9163V35.1846Z" fill="black"/>
<path d="M9.9163 32.6045H7.3362V35.1593H9.9163V32.6045Z" fill="black"/>
</g>
<rect x="1" y="1" width="58" height="58" stroke="black" stroke-width="2"/>
<defs>
<clipPath id="clip0_104_6194">
<rect width="60" height="60" fill="white"/>
</clipPath>
</defs>
</svg>
