<svg width="60" height="60" viewBox="0 0 60 60" fill="none" xmlns="http://www.w3.org/2000/svg">
<rect x="15" y="10" width="5" height="5" fill="#131200"/>
<rect x="10" y="10" width="5" height="5" fill="#131200"/>
<rect x="20" y="10" width="5" height="5" fill="#131200"/>
<rect x="25" y="10" width="5" height="5" fill="#131200"/>
<rect x="30" y="10" width="5" height="5" fill="#131200"/>
<rect x="35" y="10" width="5" height="5" fill="#131200"/>
<rect x="40" y="10" width="5" height="5" fill="#131200"/>
<rect x="45" y="10" width="5" height="5" fill="#131200"/>
<rect x="50" y="15" width="5" height="5" fill="#131200"/>
<rect x="50" y="20" width="5" height="5" fill="#131200"/>
<rect x="50" y="30" width="5" height="5" fill="#131200"/>
<rect x="50" y="25" width="5" height="5" fill="#131200"/>
<rect x="50" y="35" width="5" height="5" fill="#131200"/>
<rect x="45" y="40" width="5" height="5" fill="#131200"/>
<rect x="40" y="40" width="5" height="5" fill="#131200"/>
<rect x="25" y="40" width="5" height="5" fill="#131200"/>
<rect x="15" y="40" width="5" height="5" fill="#131200"/>
<rect x="30" y="45" width="5" height="5" fill="#131200"/>
<rect x="35" y="50" width="5" height="5" fill="#131200"/>
<rect x="40" y="45" width="5" height="5" fill="#131200"/>
<rect x="40" y="50" width="5" height="5" fill="#131200"/>
<rect x="20" y="40" width="5" height="5" fill="#131200"/>
<rect x="10" y="40" width="5" height="5" fill="#131200"/>
<rect x="5" y="25" width="5" height="5" fill="#131200"/>
<rect x="5" y="35" width="5" height="5" fill="#131200"/>
<rect x="5" y="20" width="5" height="5" fill="#131200"/>
<rect x="5" y="30" width="5" height="5" fill="#131200"/>
<rect x="5" y="15" width="5" height="5" fill="#131200"/>
</svg>
