<svg width="276" height="268" viewBox="0 0 276 268" fill="none" xmlns="http://www.w3.org/2000/svg">
<g clip-path="url(#clip0_104_3162)">
<rect width="11.6667" height="11.6667" transform="matrix(6.24105e-08 1 1 -6.24105e-08 140 58.3335)" fill="#131200"/>
<rect x="233.333" y="58.3335" width="11.6667" height="11.6667" transform="rotate(90 233.333 58.3335)" fill="#131200"/>
<rect width="11.6667" height="11.6667" transform="matrix(6.24105e-08 1 1 -6.24105e-08 128.333 58.3335)" fill="#131200"/>
<rect x="245" y="58.3335" width="11.6667" height="11.6667" transform="rotate(90 245 58.3335)" fill="#131200"/>
<rect width="11.6667" height="11.6667" transform="matrix(6.24105e-08 1 1 -6.24105e-08 116.667 46.6665)" fill="#131200"/>
<rect x="256.667" y="46.6665" width="11.6667" height="11.6667" transform="rotate(90 256.667 46.6665)" fill="#131200"/>
<rect width="11.6667" height="11.6667" transform="matrix(6.24105e-08 1 1 -6.24105e-08 140 35)" fill="#131200"/>
<rect x="233.333" y="35" width="11.6667" height="11.6667" transform="rotate(90 233.333 35)" fill="#131200"/>
<rect width="11.6667" height="11.6667" transform="matrix(6.24105e-08 1 1 -6.24105e-08 140 81.6665)" fill="#131200"/>
<rect width="11.6667" height="11.6667" transform="matrix(6.24105e-08 1 1 -6.24105e-08 140 116.667)" fill="#131200"/>
<rect width="11.6667" height="11.6667" transform="matrix(6.24105e-08 1 1 -6.24105e-08 140 151.667)" fill="#131200"/>
<rect width="11.6667" height="11.6667" transform="matrix(6.24105e-08 1 1 -6.24105e-08 140 186.667)" fill="#131200"/>
<rect width="11.6667" height="11.6667" transform="matrix(6.24105e-08 1 1 -6.24105e-08 140 221.667)" fill="#131200"/>
<rect x="233.333" y="81.6665" width="11.6667" height="11.6667" transform="rotate(90 233.333 81.6665)" fill="#131200"/>
<rect x="233.333" y="116.667" width="11.6667" height="11.6667" transform="rotate(90 233.333 116.667)" fill="#131200"/>
<rect x="233.333" y="151.667" width="11.6667" height="11.6667" transform="rotate(90 233.333 151.667)" fill="#131200"/>
<rect x="233.333" y="186.667" width="11.6667" height="11.6667" transform="rotate(90 233.333 186.667)" fill="#131200"/>
<rect x="233.333" y="221.667" width="11.6667" height="11.6667" transform="rotate(90 233.333 221.667)" fill="#131200"/>
<rect width="11.6667" height="11.6667" transform="matrix(6.24105e-08 1 1 -6.24105e-08 116.667 81.6665)" fill="#131200"/>
<rect width="11.6667" height="11.6667" transform="matrix(6.24105e-08 1 1 -6.24105e-08 116.667 116.667)" fill="#131200"/>
<rect width="11.6667" height="11.6667" transform="matrix(6.24105e-08 1 1 -6.24105e-08 116.667 151.667)" fill="#131200"/>
<rect width="11.6667" height="11.6667" transform="matrix(6.24105e-08 1 1 -6.24105e-08 116.667 186.667)" fill="#131200"/>
<rect width="11.6667" height="11.6667" transform="matrix(6.24105e-08 1 1 -6.24105e-08 116.667 221.667)" fill="#131200"/>
<rect x="256.667" y="81.6665" width="11.6667" height="11.6667" transform="rotate(90 256.667 81.6665)" fill="#131200"/>
<rect x="256.667" y="116.667" width="11.6667" height="11.6667" transform="rotate(90 256.667 116.667)" fill="#131200"/>
<rect x="256.667" y="151.667" width="11.6667" height="11.6667" transform="rotate(90 256.667 151.667)" fill="#131200"/>
<rect x="256.667" y="186.667" width="11.6667" height="11.6667" transform="rotate(90 256.667 186.667)" fill="#131200"/>
<rect x="256.667" y="221.667" width="11.6667" height="11.6667" transform="rotate(90 256.667 221.667)" fill="#131200"/>
<rect width="11.6667" height="11.6667" transform="matrix(6.24105e-08 1 1 -6.24105e-08 105 70)" fill="#131200"/>
<rect width="11.6667" height="11.6667" transform="matrix(6.24105e-08 1 1 -6.24105e-08 105 93.3335)" fill="#131200"/>
<rect width="11.6667" height="11.6667" transform="matrix(6.24105e-08 1 1 -6.24105e-08 105 128.333)" fill="#131200"/>
<rect width="11.6667" height="11.6667" transform="matrix(6.24105e-08 1 1 -6.24105e-08 105 163.333)" fill="#131200"/>
<rect width="11.6667" height="11.6667" transform="matrix(6.24105e-08 1 1 -6.24105e-08 105 198.333)" fill="#131200"/>
<rect width="11.6667" height="11.6667" transform="matrix(6.24105e-08 1 1 -6.24105e-08 105 105)" fill="#131200"/>
<rect width="11.6667" height="11.6667" transform="matrix(6.24105e-08 1 1 -6.24105e-08 105 140)" fill="#131200"/>
<rect width="11.6667" height="11.6667" transform="matrix(6.24105e-08 1 1 -6.24105e-08 105 175)" fill="#131200"/>
<rect width="11.6667" height="11.6667" transform="matrix(6.24105e-08 1 1 -6.24105e-08 105 210)" fill="#131200"/>
<rect x="268.333" y="70" width="11.6667" height="11.6667" transform="rotate(90 268.333 70)" fill="#131200"/>
<rect x="268.333" y="93.3335" width="11.6667" height="11.6667" transform="rotate(90 268.333 93.3335)" fill="#131200"/>
<rect x="268.333" y="128.333" width="11.6667" height="11.6667" transform="rotate(90 268.333 128.333)" fill="#131200"/>
<rect x="268.333" y="163.333" width="11.6667" height="11.6667" transform="rotate(90 268.333 163.333)" fill="#131200"/>
<rect x="268.333" y="198.333" width="11.6667" height="11.6667" transform="rotate(90 268.333 198.333)" fill="#131200"/>
<rect x="268.333" y="105" width="11.6667" height="11.6667" transform="rotate(90 268.333 105)" fill="#131200"/>
<rect x="268.333" y="140" width="11.6667" height="11.6667" transform="rotate(90 268.333 140)" fill="#131200"/>
<rect x="268.333" y="175" width="11.6667" height="11.6667" transform="rotate(90 268.333 175)" fill="#131200"/>
<rect x="268.333" y="210" width="11.6667" height="11.6667" transform="rotate(90 268.333 210)" fill="#131200"/>
<rect width="11.6667" height="11.6667" transform="matrix(6.24105e-08 1 1 -6.24105e-08 105 58.3335)" fill="#131200"/>
<rect width="11.6667" height="11.6667" transform="matrix(6.24105e-08 1 1 -6.24105e-08 105 81.6665)" fill="#131200"/>
<rect x="268.333" y="58.3335" width="11.6667" height="11.6667" transform="rotate(90 268.333 58.3335)" fill="#131200"/>
<rect x="268.333" y="81.6665" width="11.6667" height="11.6667" transform="rotate(90 268.333 81.6665)" fill="#131200"/>
<rect width="11.6667" height="11.6667" transform="matrix(6.24105e-08 1 1 -6.24105e-08 105 46.6665)" fill="#131200"/>
<rect x="268.333" y="46.6665" width="11.6667" height="11.6667" transform="rotate(90 268.333 46.6665)" fill="#131200"/>
<rect width="11.6667" height="11.6667" transform="matrix(6.24105e-08 1 1 -6.24105e-08 116.667 35)" fill="#131200"/>
<rect x="256.667" y="35" width="11.6667" height="11.6667" transform="rotate(90 256.667 35)" fill="#131200"/>
<rect width="11.6667" height="11.6667" transform="matrix(6.24105e-08 1 1 -6.24105e-08 128.333 35)" fill="#131200"/>
<rect x="245" y="35" width="11.6667" height="11.6667" transform="rotate(90 245 35)" fill="#131200"/>
<rect width="11.6667" height="11.6667" transform="matrix(6.24105e-08 1 1 -6.24105e-08 151.667 58.3335)" fill="#131200"/>
<rect x="221.667" y="58.3335" width="11.6667" height="11.6667" transform="rotate(90 221.667 58.3335)" fill="#131200"/>
<rect width="11.6667" height="11.6667" transform="matrix(6.24105e-08 1 1 -6.24105e-08 151.667 35)" fill="#131200"/>
<rect x="221.667" y="35" width="11.6667" height="11.6667" transform="rotate(90 221.667 35)" fill="#131200"/>
<rect width="11.6667" height="11.6667" transform="matrix(6.24105e-08 1 1 -6.24105e-08 151.667 81.6665)" fill="#131200"/>
<rect width="11.6667" height="11.6667" transform="matrix(6.24105e-08 1 1 -6.24105e-08 151.667 116.667)" fill="#131200"/>
<rect width="11.6667" height="11.6667" transform="matrix(6.24105e-08 1 1 -6.24105e-08 151.667 151.667)" fill="#131200"/>
<rect width="11.6667" height="11.6667" transform="matrix(6.24105e-08 1 1 -6.24105e-08 151.667 186.667)" fill="#131200"/>
<rect width="11.6667" height="11.6667" transform="matrix(6.24105e-08 1 1 -6.24105e-08 151.667 221.667)" fill="#131200"/>
<rect x="221.667" y="81.6665" width="11.6667" height="11.6667" transform="rotate(90 221.667 81.6665)" fill="#131200"/>
<rect x="221.667" y="116.667" width="11.6667" height="11.6667" transform="rotate(90 221.667 116.667)" fill="#131200"/>
<rect x="221.667" y="151.667" width="11.6667" height="11.6667" transform="rotate(90 221.667 151.667)" fill="#131200"/>
<rect x="221.667" y="186.667" width="11.6667" height="11.6667" transform="rotate(90 221.667 186.667)" fill="#131200"/>
<rect x="221.667" y="221.667" width="11.6667" height="11.6667" transform="rotate(90 221.667 221.667)" fill="#131200"/>
<rect width="11.6667" height="11.6667" transform="matrix(6.24105e-08 1 1 -6.24105e-08 128.333 81.6665)" fill="#131200"/>
<rect width="11.6667" height="11.6667" transform="matrix(6.24105e-08 1 1 -6.24105e-08 128.333 116.667)" fill="#131200"/>
<rect width="11.6667" height="11.6667" transform="matrix(6.24105e-08 1 1 -6.24105e-08 128.333 151.667)" fill="#131200"/>
<rect width="11.6667" height="11.6667" transform="matrix(6.24105e-08 1 1 -6.24105e-08 128.333 186.667)" fill="#131200"/>
<rect width="11.6667" height="11.6667" transform="matrix(6.24105e-08 1 1 -6.24105e-08 128.333 221.667)" fill="#131200"/>
<rect x="245" y="81.6665" width="11.6667" height="11.6667" transform="rotate(90 245 81.6665)" fill="#131200"/>
<rect x="245" y="116.667" width="11.6667" height="11.6667" transform="rotate(90 245 116.667)" fill="#131200"/>
<rect x="245" y="151.667" width="11.6667" height="11.6667" transform="rotate(90 245 151.667)" fill="#131200"/>
<rect x="245" y="186.667" width="11.6667" height="11.6667" transform="rotate(90 245 186.667)" fill="#131200"/>
<rect x="245" y="221.667" width="11.6667" height="11.6667" transform="rotate(90 245 221.667)" fill="#131200"/>
<rect width="11.6667" height="11.6667" transform="matrix(6.24105e-08 1 1 -6.24105e-08 163.333 58.3335)" fill="#131200"/>
<rect x="210" y="58.3335" width="11.6667" height="11.6667" transform="rotate(90 210 58.3335)" fill="#131200"/>
<rect width="11.6667" height="11.6667" transform="matrix(6.24105e-08 1 1 -6.24105e-08 163.333 35)" fill="#131200"/>
<rect x="210" y="35" width="11.6667" height="11.6667" transform="rotate(90 210 35)" fill="#131200"/>
<rect width="11.6667" height="11.6667" transform="matrix(6.24105e-08 1 1 -6.24105e-08 163.333 81.6665)" fill="#131200"/>
<rect width="11.6667" height="11.6667" transform="matrix(6.24105e-08 1 1 -6.24105e-08 163.333 116.667)" fill="#131200"/>
<rect width="11.6667" height="11.6667" transform="matrix(6.24105e-08 1 1 -6.24105e-08 163.333 151.667)" fill="#131200"/>
<rect width="11.6667" height="11.6667" transform="matrix(6.24105e-08 1 1 -6.24105e-08 163.333 186.667)" fill="#131200"/>
<rect width="11.6667" height="11.6667" transform="matrix(6.24105e-08 1 1 -6.24105e-08 163.333 221.667)" fill="#131200"/>
<rect x="210" y="81.6665" width="11.6667" height="11.6667" transform="rotate(90 210 81.6665)" fill="#131200"/>
<rect x="210" y="116.667" width="11.6667" height="11.6667" transform="rotate(90 210 116.667)" fill="#131200"/>
<rect x="210" y="151.667" width="11.6667" height="11.6667" transform="rotate(90 210 151.667)" fill="#131200"/>
<rect x="210" y="186.667" width="11.6667" height="11.6667" transform="rotate(90 210 186.667)" fill="#131200"/>
<rect x="210" y="221.667" width="11.6667" height="11.6667" transform="rotate(90 210 221.667)" fill="#131200"/>
<rect width="11.6667" height="11.6667" transform="matrix(6.24105e-08 1 1 -6.24105e-08 175 58.3335)" fill="#131200"/>
<rect x="198.333" y="58.3335" width="11.6667" height="11.6667" transform="rotate(90 198.333 58.3335)" fill="#131200"/>
<rect width="11.6667" height="11.6667" transform="matrix(6.24105e-08 1 1 -6.24105e-08 175 35)" fill="#131200"/>
<rect x="198.333" y="35" width="11.6667" height="11.6667" transform="rotate(90 198.333 35)" fill="#131200"/>
<rect width="11.6667" height="11.6667" transform="matrix(6.24105e-08 1 1 -6.24105e-08 175 81.6665)" fill="#131200"/>
<rect width="11.6667" height="11.6667" transform="matrix(6.24105e-08 1 1 -6.24105e-08 175 116.667)" fill="#131200"/>
<rect width="11.6667" height="11.6667" transform="matrix(6.24105e-08 1 1 -6.24105e-08 175 151.667)" fill="#131200"/>
<rect width="11.6667" height="11.6667" transform="matrix(6.24105e-08 1 1 -6.24105e-08 175 186.667)" fill="#131200"/>
<rect width="11.6667" height="11.6667" transform="matrix(6.24105e-08 1 1 -6.24105e-08 175 221.667)" fill="#131200"/>
<rect x="198.333" y="81.6665" width="11.6667" height="11.6667" transform="rotate(90 198.333 81.6665)" fill="#131200"/>
<rect x="198.333" y="116.667" width="11.6667" height="11.6667" transform="rotate(90 198.333 116.667)" fill="#131200"/>
<rect x="198.333" y="151.667" width="11.6667" height="11.6667" transform="rotate(90 198.333 151.667)" fill="#131200"/>
<rect x="198.333" y="186.667" width="11.6667" height="11.6667" transform="rotate(90 198.333 186.667)" fill="#131200"/>
<rect x="198.333" y="221.667" width="11.6667" height="11.6667" transform="rotate(90 198.333 221.667)" fill="#131200"/>
<rect width="11.6667" height="11.6667" transform="matrix(6.24105e-08 1 1 -6.24105e-08 35 93.3335)" fill="#131200"/>
<rect width="11.6667" height="11.6667" transform="matrix(6.24105e-08 1 1 -6.24105e-08 23.3333 93.3335)" fill="#131200"/>
<rect width="11.6667" height="11.6667" transform="matrix(6.24105e-08 1 1 -6.24105e-08 11.6667 81.6665)" fill="#131200"/>
<rect width="11.6667" height="11.6667" transform="matrix(6.24105e-08 1 1 -6.24105e-08 35 70)" fill="#131200"/>
<rect width="11.6667" height="11.6667" transform="matrix(6.24105e-08 1 1 -6.24105e-08 35 116.667)" fill="#131200"/>
<rect width="11.6667" height="11.6667" transform="matrix(6.24105e-08 1 1 -6.24105e-08 35 116.667)" fill="#131200"/>
<rect width="11.6667" height="11.6667" transform="matrix(6.24105e-08 1 1 -6.24105e-08 35 151.667)" fill="#131200"/>
<rect width="11.6667" height="11.6667" transform="matrix(6.24105e-08 1 1 -6.24105e-08 35 186.667)" fill="#131200"/>
<rect width="11.6667" height="11.6667" transform="matrix(6.24105e-08 1 1 -6.24105e-08 11.6667 116.667)" fill="#131200"/>
<rect width="11.6667" height="11.6667" transform="matrix(6.24105e-08 1 1 -6.24105e-08 11.6667 116.667)" fill="#131200"/>
<rect width="11.6667" height="11.6667" transform="matrix(6.24105e-08 1 1 -6.24105e-08 11.6667 151.667)" fill="#131200"/>
<rect width="11.6667" height="11.6667" transform="matrix(6.24105e-08 1 1 -6.24105e-08 11.6667 186.667)" fill="#131200"/>
<rect width="11.6667" height="11.6667" transform="matrix(6.24105e-08 1 1 -6.24105e-08 0 105)" fill="#131200"/>
<rect width="11.6667" height="11.6667" transform="matrix(6.24105e-08 1 1 -6.24105e-08 0 128.333)" fill="#131200"/>
<rect width="11.6667" height="11.6667" transform="matrix(6.24105e-08 1 1 -6.24105e-08 0 163.333)" fill="#131200"/>
<rect width="11.6667" height="11.6667" transform="matrix(6.24105e-08 1 1 -6.24105e-08 0 140)" fill="#131200"/>
<rect width="11.6667" height="11.6667" transform="matrix(6.24105e-08 1 1 -6.24105e-08 0 175)" fill="#131200"/>
<rect width="11.6667" height="11.6667" transform="matrix(6.24105e-08 1 1 -6.24105e-08 0 93.3335)" fill="#131200"/>
<rect width="11.6667" height="11.6667" transform="matrix(6.24105e-08 1 1 -6.24105e-08 0 81.6665)" fill="#131200"/>
<rect width="11.6667" height="11.6667" transform="matrix(6.24105e-08 1 1 -6.24105e-08 11.6667 70)" fill="#131200"/>
<rect width="11.6667" height="11.6667" transform="matrix(6.24105e-08 1 1 -6.24105e-08 23.3333 70)" fill="#131200"/>
<rect width="11.6667" height="11.6667" transform="matrix(6.24105e-08 1 1 -6.24105e-08 46.6667 93.3335)" fill="#131200"/>
<rect width="11.6667" height="11.6667" transform="matrix(6.24105e-08 1 1 -6.24105e-08 46.6667 70)" fill="#131200"/>
<rect width="11.6667" height="11.6667" transform="matrix(6.24105e-08 1 1 -6.24105e-08 46.6667 116.667)" fill="#131200"/>
<rect width="11.6667" height="11.6667" transform="matrix(6.24105e-08 1 1 -6.24105e-08 46.6667 116.667)" fill="#131200"/>
<rect width="11.6667" height="11.6667" transform="matrix(6.24105e-08 1 1 -6.24105e-08 46.6667 151.667)" fill="#131200"/>
<rect width="11.6667" height="11.6667" transform="matrix(6.24105e-08 1 1 -6.24105e-08 46.6667 186.667)" fill="#131200"/>
<rect width="11.6667" height="11.6667" transform="matrix(6.24105e-08 1 1 -6.24105e-08 23.3333 116.667)" fill="#131200"/>
<rect width="11.6667" height="11.6667" transform="matrix(6.24105e-08 1 1 -6.24105e-08 23.3333 116.667)" fill="#131200"/>
<rect width="11.6667" height="11.6667" transform="matrix(6.24105e-08 1 1 -6.24105e-08 23.3333 151.667)" fill="#131200"/>
<rect width="11.6667" height="11.6667" transform="matrix(6.24105e-08 1 1 -6.24105e-08 23.3333 186.667)" fill="#131200"/>
<rect width="11.6667" height="11.6667" transform="matrix(6.24105e-08 1 1 -6.24105e-08 58.3333 93.3335)" fill="#131200"/>
<rect x="105" y="93.3335" width="11.6667" height="11.6667" transform="rotate(90 105 93.3335)" fill="#131200"/>
<rect width="11.6667" height="11.6667" transform="matrix(6.24105e-08 1 1 -6.24105e-08 58.3333 70)" fill="#131200"/>
<rect x="105" y="70" width="11.6667" height="11.6667" transform="rotate(90 105 70)" fill="#131200"/>
<rect width="11.6667" height="11.6667" transform="matrix(6.24105e-08 1 1 -6.24105e-08 58.3333 116.667)" fill="#131200"/>
<rect width="11.6667" height="11.6667" transform="matrix(6.24105e-08 1 1 -6.24105e-08 58.3333 116.667)" fill="#131200"/>
<rect width="11.6667" height="11.6667" transform="matrix(6.24105e-08 1 1 -6.24105e-08 58.3333 151.667)" fill="#131200"/>
<rect width="11.6667" height="11.6667" transform="matrix(6.24105e-08 1 1 -6.24105e-08 58.3333 186.667)" fill="#131200"/>
<rect x="105" y="116.667" width="11.6667" height="11.6667" transform="rotate(90 105 116.667)" fill="#131200"/>
<rect x="105" y="116.667" width="11.6667" height="11.6667" transform="rotate(90 105 116.667)" fill="#131200"/>
<rect x="105" y="151.667" width="11.6667" height="11.6667" transform="rotate(90 105 151.667)" fill="#131200"/>
<rect x="105" y="186.667" width="11.6667" height="11.6667" transform="rotate(90 105 186.667)" fill="#131200"/>
<rect width="11.6667" height="11.6667" transform="matrix(6.24105e-08 1 1 -6.24105e-08 70 93.3335)" fill="#131200"/>
<rect x="93.3333" y="93.3335" width="11.6667" height="11.6667" transform="rotate(90 93.3333 93.3335)" fill="#131200"/>
<rect width="11.6667" height="11.6667" transform="matrix(6.24105e-08 1 1 -6.24105e-08 70 70)" fill="#131200"/>
<rect x="93.3333" y="70" width="11.6667" height="11.6667" transform="rotate(90 93.3333 70)" fill="#131200"/>
<rect width="11.6667" height="11.6667" transform="matrix(6.24105e-08 1 1 -6.24105e-08 70 116.667)" fill="#131200"/>
<rect width="11.6667" height="11.6667" transform="matrix(6.24105e-08 1 1 -6.24105e-08 70 116.667)" fill="#131200"/>
<rect width="11.6667" height="11.6667" transform="matrix(6.24105e-08 1 1 -6.24105e-08 70 151.667)" fill="#131200"/>
<rect width="11.6667" height="11.6667" transform="matrix(6.24105e-08 1 1 -6.24105e-08 70 186.667)" fill="#131200"/>
<rect x="93.3333" y="116.667" width="11.6667" height="11.6667" transform="rotate(90 93.3333 116.667)" fill="#131200"/>
<rect x="93.3333" y="116.667" width="11.6667" height="11.6667" transform="rotate(90 93.3333 116.667)" fill="#131200"/>
<rect x="93.3333" y="151.667" width="11.6667" height="11.6667" transform="rotate(90 93.3333 151.667)" fill="#131200"/>
<rect x="93.3333" y="186.667" width="11.6667" height="11.6667" transform="rotate(90 93.3333 186.667)" fill="#131200"/>
</g>
<defs>
<clipPath id="clip0_104_3162">
<rect width="276" height="268" fill="white"/>
</clipPath>
</defs>
</svg>
