<svg width="36" height="36" viewBox="0 0 36 36" fill="none" xmlns="http://www.w3.org/2000/svg">
<rect width="36" height="36" fill="#131200"/>
<rect x="11.9996" y="6" width="3" height="3" fill="#A9E000"/>
<rect x="11.9996" y="27" width="3" height="3" fill="#A9E000"/>
<rect x="9" y="6" width="3" height="3" fill="#A9E000"/>
<rect x="9" y="27" width="3" height="3" fill="#A9E000"/>
<rect x="15.0004" y="6" width="3" height="3" fill="#A9E000"/>
<rect x="11.9996" y="12" width="3" height="3" fill="#A9E000"/>
<rect x="20.9996" y="12" width="3" height="3" fill="#A9E000"/>
<rect x="11.9996" y="15" width="3" height="3" fill="#A9E000"/>
<rect x="20.9996" y="15" width="3" height="3" fill="#A9E000"/>
<rect x="11.9996" y="18" width="3" height="3" fill="#A9E000"/>
<rect x="20.9996" y="18" width="3" height="3" fill="#A9E000"/>
<rect x="11.9996" y="21" width="3" height="3" fill="#A9E000"/>
<rect x="20.9996" y="21" width="3" height="3" fill="#A9E000"/>
<rect x="15.0004" y="27" width="3" height="3" fill="#A9E000"/>
<rect x="18" y="6" width="3" height="3" fill="#A9E000"/>
<rect x="18" y="27" width="3" height="3" fill="#A9E000"/>
<rect x="20.9996" y="6" width="3" height="3" fill="#A9E000"/>
<rect x="20.9996" y="27" width="3" height="3" fill="#A9E000"/>
<rect x="24.0004" y="6" width="3" height="3" fill="#A9E000"/>
<rect x="24.0004" y="27" width="3" height="3" fill="#A9E000"/>
<rect x="6.00043" y="24" width="3" height="3" fill="#A9E000"/>
<rect x="27" y="24" width="3" height="3" fill="#A9E000"/>
<rect x="6.00043" y="15" width="3" height="3" fill="#A9E000"/>
<rect x="27" y="15" width="3" height="3" fill="#A9E000"/>
<rect x="6.00043" y="21" width="3" height="3" fill="#A9E000"/>
<rect x="27" y="21" width="3" height="3" fill="#A9E000"/>
<rect x="6.00043" y="12" width="3" height="3" fill="#A9E000"/>
<rect x="27" y="12" width="3" height="3" fill="#A9E000"/>
<rect x="6.00043" y="18" width="3" height="3" fill="#A9E000"/>
<rect x="27" y="18" width="3" height="3" fill="#A9E000"/>
<rect x="6.00043" y="9" width="3" height="3" fill="#A9E000"/>
<rect x="27" y="9" width="3" height="3" fill="#A9E000"/>
</svg>
