<svg width="37" height="36" viewBox="0 0 37 36" fill="none" xmlns="http://www.w3.org/2000/svg">
<rect width="3" height="3" transform="matrix(6.24105e-08 1 1 -6.24105e-08 6.50024 12)" fill="#A9E000"/>
<rect width="3" height="3" transform="matrix(-6.24105e-08 -1 -1 6.24105e-08 30.5002 21)" fill="#A9E000"/>
<rect width="3" height="3" transform="matrix(6.24105e-08 1 1 -6.24105e-08 6.50024 9)" fill="#A9E000"/>
<rect width="3" height="3" transform="matrix(-6.24105e-08 -1 -1 6.24105e-08 30.5002 24)" fill="#A9E000"/>
<rect width="3" height="3" transform="matrix(6.24105e-08 1 1 -6.24105e-08 6.50024 6)" fill="#A9E000"/>
<rect width="3" height="3" transform="matrix(-6.24105e-08 -1 -1 6.24105e-08 30.5002 27)" fill="#A9E000"/>
<rect width="3" height="3" transform="matrix(6.24105e-08 1 1 -6.24105e-08 12.5002 12)" fill="#A9E000"/>
<rect width="3" height="3" transform="matrix(-6.24105e-08 -1 -1 6.24105e-08 24.5002 21)" fill="#A9E000"/>
<rect width="3" height="3" transform="matrix(6.24105e-08 1 1 -6.24105e-08 9.50024 12)" fill="#A9E000"/>
<rect width="3" height="3" transform="matrix(-6.24105e-08 -1 -1 6.24105e-08 27.5002 21)" fill="#A9E000"/>
<rect width="3" height="3" transform="matrix(6.24105e-08 1 1 -6.24105e-08 9.50024 9)" fill="#A9E000"/>
<rect width="3" height="3" transform="matrix(-6.24105e-08 -1 -1 6.24105e-08 27.5002 24)" fill="#A9E000"/>
<rect width="3" height="3" transform="matrix(6.24105e-08 1 1 -6.24105e-08 12.5002 6)" fill="#A9E000"/>
<rect width="3" height="3" transform="matrix(-6.24105e-08 -1 -1 6.24105e-08 24.5002 27)" fill="#A9E000"/>
<rect width="3" height="3" transform="matrix(6.24105e-08 1 1 -6.24105e-08 15.5002 3)" fill="#A9E000"/>
<rect width="3" height="3" transform="matrix(-6.24105e-08 -1 -1 6.24105e-08 21.5002 30)" fill="#A9E000"/>
<rect width="3" height="3" transform="matrix(6.24105e-08 1 1 -6.24105e-08 18.5002 3)" fill="#A9E000"/>
<rect width="3" height="3" transform="matrix(-6.24105e-08 -1 -1 6.24105e-08 18.5002 30)" fill="#A9E000"/>
<rect width="3" height="3" transform="matrix(6.24105e-08 1 1 -6.24105e-08 21.5002 3)" fill="#A9E000"/>
<rect width="3" height="3" transform="matrix(-6.24105e-08 -1 -1 6.24105e-08 15.5002 30)" fill="#A9E000"/>
<rect width="3" height="3" transform="matrix(6.24105e-08 1 1 -6.24105e-08 24.5002 3)" fill="#A9E000"/>
<rect width="3" height="3" transform="matrix(-6.24105e-08 -1 -1 6.24105e-08 12.5002 30)" fill="#A9E000"/>
<rect width="3" height="3" transform="matrix(6.24105e-08 1 1 -6.24105e-08 27.5002 6)" fill="#A9E000"/>
<rect width="3" height="3" transform="matrix(-6.24105e-08 -1 -1 6.24105e-08 9.50024 27)" fill="#A9E000"/>
</svg>
