<svg width="37" height="36" viewBox="0 0 37 36" fill="none" xmlns="http://www.w3.org/2000/svg">
<rect width="3" height="3" transform="matrix(6.24105e-08 1 1 -6.24105e-08 12.5 6)" fill="#A9E000"/>
<rect width="3" height="3" transform="matrix(6.24105e-08 1 1 -6.24105e-08 12.5 24)" fill="#A9E000"/>
<rect width="3" height="3" transform="matrix(6.24105e-08 1 1 -6.24105e-08 9.5 6)" fill="#A9E000"/>
<rect width="3" height="3" transform="matrix(6.24105e-08 1 1 -6.24105e-08 6.5 6)" fill="#A9E000"/>
<rect width="3" height="3" transform="matrix(6.24105e-08 1 1 -6.24105e-08 9.5 24)" fill="#A9E000"/>
<rect width="3" height="3" transform="matrix(6.24105e-08 1 1 -6.24105e-08 6.5 24)" fill="#A9E000"/>
<rect width="3" height="3" transform="matrix(6.24105e-08 1 1 -6.24105e-08 30.5 9)" fill="#A9E000"/>
<rect width="3" height="3" transform="matrix(6.24105e-08 1 1 -6.24105e-08 30.5 12)" fill="#A9E000"/>
<rect width="3" height="3" transform="matrix(6.24105e-08 1 1 -6.24105e-08 30.5 15)" fill="#A9E000"/>
<rect width="3" height="3" transform="matrix(6.24105e-08 1 1 -6.24105e-08 30.5 18)" fill="#A9E000"/>
<rect width="3" height="3" transform="matrix(6.24105e-08 1 1 -6.24105e-08 30.5 21)" fill="#A9E000"/>
<rect width="3" height="3" transform="matrix(6.24105e-08 1 1 -6.24105e-08 24.5 24)" fill="#A9E000"/>
<rect width="3" height="3" transform="matrix(6.24105e-08 1 1 -6.24105e-08 27.5 24)" fill="#A9E000"/>
<rect width="3" height="3" transform="matrix(6.24105e-08 1 1 -6.24105e-08 18.5 6)" fill="#A9E000"/>
<rect width="3" height="3" transform="matrix(6.24105e-08 1 1 -6.24105e-08 18.5 24)" fill="#A9E000"/>
<rect width="3" height="3" transform="matrix(6.24105e-08 1 1 -6.24105e-08 15.5 6)" fill="#A9E000"/>
<rect width="3" height="3" transform="matrix(6.24105e-08 1 1 -6.24105e-08 15.5 24)" fill="#A9E000"/>
<rect width="3" height="3" transform="matrix(6.24105e-08 1 1 -6.24105e-08 21.5 6)" fill="#A9E000"/>
<rect width="3" height="3" transform="matrix(6.24105e-08 1 1 -6.24105e-08 24.5 6)" fill="#A9E000"/>
<rect width="3" height="3" transform="matrix(6.24105e-08 1 1 -6.24105e-08 27.5 6)" fill="#A9E000"/>
<rect width="3" height="3" transform="matrix(6.24105e-08 1 1 -6.24105e-08 21.5 27)" fill="#A9E000"/>
<rect width="3" height="3" transform="matrix(6.24105e-08 1 1 -6.24105e-08 21.5 30)" fill="#A9E000"/>
<rect width="3" height="3" transform="matrix(6.24105e-08 1 1 -6.24105e-08 3.5 9)" fill="#A9E000"/>
<rect width="3" height="3" transform="matrix(6.24105e-08 1 1 -6.24105e-08 3.5 12)" fill="#A9E000"/>
<rect width="3" height="3" transform="matrix(6.24105e-08 1 1 -6.24105e-08 3.5 15)" fill="#A9E000"/>
<rect width="3" height="3" transform="matrix(6.24105e-08 1 1 -6.24105e-08 3.5 18)" fill="#A9E000"/>
<rect width="3" height="3" transform="matrix(6.24105e-08 1 1 -6.24105e-08 3.5 21)" fill="#A9E000"/>
</svg>
