<svg width="1205" height="499" viewBox="0 0 1205 499" fill="none" xmlns="http://www.w3.org/2000/svg">
<rect width="184" height="60" transform="translate(76 -0.00976562)" fill="#131200"/>
<path d="M109.32 39.4902V24.4902H121.32V27.4902H124.32V30.4902H121.32V33.4902H115.32V39.4902H109.32ZM115.32 30.4902H118.2V27.4902H115.32V30.4902ZM128.88 39.4902V24.4902H134.88V30.4902H137.88V24.4902H143.88V39.4902H137.88V33.4902H134.88V39.4902H128.88ZM148.44 39.4902V27.4902H151.44V24.4902H160.44V27.4902H163.44V39.4902H157.44V33.4902H154.44V39.4902H148.44ZM154.44 30.4902H157.44V27.6102H154.44V30.4902ZM168 39.4902V36.4902H177V33.4902H171V30.4902H168V27.4902H171V24.4902H183V27.4902H174V30.4902H180V33.4902H183V36.4902H180V39.4902H168ZM187.56 39.4902V24.4902H199.56V27.4902H193.56V30.4902H199.56V33.4902H193.56V36.4902H199.56V39.4902H187.56ZM214.68 39.4902V36.4902H217.68V27.4902H214.68V24.4902H223.68V36.4902H226.68V39.4902H214.68Z" fill="black"/>
<path d="M109.32 39.4902V24.4902H121.32V27.4902H124.32V30.4902H121.32V33.4902H115.32V39.4902H109.32ZM115.32 30.4902H118.2V27.4902H115.32V30.4902ZM128.88 39.4902V24.4902H134.88V30.4902H137.88V24.4902H143.88V39.4902H137.88V33.4902H134.88V39.4902H128.88ZM148.44 39.4902V27.4902H151.44V24.4902H160.44V27.4902H163.44V39.4902H157.44V33.4902H154.44V39.4902H148.44ZM154.44 30.4902H157.44V27.6102H154.44V30.4902ZM168 39.4902V36.4902H177V33.4902H171V30.4902H168V27.4902H171V24.4902H183V27.4902H174V30.4902H180V33.4902H183V36.4902H180V39.4902H168ZM187.56 39.4902V24.4902H199.56V27.4902H193.56V30.4902H199.56V33.4902H193.56V36.4902H199.56V39.4902H187.56ZM214.68 39.4902V36.4902H217.68V27.4902H214.68V24.4902H223.68V36.4902H226.68V39.4902H214.68Z" fill="#87B497"/>
<path d="M349.5 25.9902V16.9902H347.25V14.7402H356.25V16.9902H354V25.9902H349.5ZM362.28 25.9902V23.7402H360.03V16.9902H362.28V14.7402H369.03V16.9902H371.28V23.7402H369.03V25.9902H362.28ZM364.53 23.6502H366.78V17.0802H364.53V23.6502ZM375.06 25.9902V14.7402H379.56V16.9902H381.81V14.7402H386.31V16.9902H384.06V19.2402H381.81V21.4902H384.06V23.7402H386.31V25.9902H381.81V23.7402H379.56V25.9902H375.06ZM390.09 25.9902V14.7402H399.09V16.9902H394.59V19.2402H399.09V21.4902H394.59V23.7402H399.09V25.9902H390.09ZM402.87 25.9902V14.7402H407.37V16.9902H409.62V19.2402H411.87V14.7402H416.37V25.9902H411.87V23.7402H409.62V21.4902H407.37V25.9902H402.87ZM430.68 25.9902V23.7402H428.43V16.9902H430.68V14.7402H437.43V16.9902H439.68V19.2402H435.18V16.9902H432.93V23.7402H435.18V21.4902H439.68V23.7402H437.43V25.9902H430.68ZM443.46 25.9902V14.7402H452.46V16.9902H454.71V19.2402H452.46V23.7402H454.71V25.9902H450.21V23.7402H447.96V25.9902H443.46ZM447.96 19.2402H450.21V16.9902H447.96V19.2402ZM458.49 25.9902V14.7402H467.49V16.9902H462.99V19.2402H467.49V21.4902H462.99V23.7402H467.49V25.9902H458.49ZM471.27 25.9902V16.9902H473.52V14.7402H480.27V16.9902H482.52V25.9902H478.02V21.4902H475.77V25.9902H471.27ZM475.77 19.2402H478.02V17.0802H475.77V19.2402ZM488.55 25.9902V16.9902H486.3V14.7402H495.3V16.9902H493.05V25.9902H488.55ZM499.08 25.9902V14.7402H503.58V25.9902H499.08ZM509.61 25.9902V23.7402H507.36V16.9902H509.61V14.7402H516.36V16.9902H518.61V23.7402H516.36V25.9902H509.61ZM511.86 23.6502H514.11V17.0802H511.86V23.6502ZM522.39 25.9902V14.7402H526.89V16.9902H529.14V19.2402H531.39V14.7402H535.89V25.9902H531.39V23.7402H529.14V21.4902H526.89V25.9902H522.39ZM552.45 28.2402V25.9902H550.2V23.7402H547.95V21.4902H550.2V19.2402H547.95V16.9902H550.2V14.7402H552.45V12.4902H556.95V14.7402H559.2V16.9902H552.45V19.2402H556.95V21.4902H552.45V23.7402H559.2V25.9902H556.95V28.2402H552.45ZM571.26 25.9902V23.7402H578.01V21.4902H573.51V19.2402H571.26V16.9902H573.51V14.7402H582.51V16.9902H575.76V19.2402H580.26V21.4902H582.51V23.7402H580.26V25.9902H571.26ZM586.29 25.9902V14.7402H590.79V25.9902H586.29ZM594.57 25.9902V14.7402H599.07V16.9902H603.57V14.7402H608.07V25.9902H603.57V21.4902H599.07V25.9902H594.57ZM611.85 25.9902V14.7402H620.85V16.9902H623.1V19.2402H620.85V21.4902H616.35V25.9902H611.85ZM616.35 19.2402H618.51V16.9902H616.35V19.2402ZM626.88 25.9902V14.7402H631.38V23.7402H635.88V25.9902H626.88ZM639.66 25.9902V14.7402H644.16V25.9902H639.66ZM647.94 25.9902V14.7402H656.94V16.9902H652.44V19.2402H656.94V21.4902H652.44V25.9902H647.94ZM660.72 25.9902V14.7402H665.22V25.9902H660.72ZM669 25.9902V14.7402H678V16.9902H673.5V19.2402H678V21.4902H673.5V23.7402H678V25.9902H669ZM681.78 25.9902V14.7402H690.78V16.9902H693.03V23.7402H690.78V25.9902H681.78ZM686.28 23.7402H688.44V16.9902H686.28V23.7402ZM705.09 25.9902V14.7402H709.59V16.9902H714.09V14.7402H718.59V25.9902H714.09V21.4902H709.59V25.9902H705.09ZM722.37 25.9902V14.7402H726.87V25.9902H722.37ZM730.65 25.9902V14.7402H735.15V16.9902H737.4V19.2402H739.65V14.7402H744.15V25.9902H739.65V23.7402H737.4V21.4902H735.15V25.9902H730.65ZM747.93 25.9902V14.7402H752.43V25.9902H747.93ZM756.21 25.9902V14.7402H760.71V16.9902H762.96V19.2402H765.21V14.7402H769.71V25.9902H765.21V23.7402H762.96V21.4902H760.71V25.9902H756.21ZM775.74 25.9902V23.7402H773.49V16.9902H775.74V14.7402H784.74V16.9902H777.99V23.7402H780.24V19.2402H784.74V23.7402H782.49V25.9902H775.74ZM806.016 22.2102C806.136 21.8982 806.268 21.6102 806.412 21.3462C806.556 21.0702 806.718 20.8122 806.898 20.5722H797.25V19.0962H806.898C806.73 18.8562 806.574 18.6042 806.43 18.3402C806.286 18.0642 806.154 17.7702 806.034 17.4582H807.402C808.146 18.3342 808.962 19.0002 809.85 19.4562V20.2302C808.962 20.6622 808.146 21.3222 807.402 22.2102H806.016ZM824.61 25.9902V16.9902H822.36V14.7402H831.36V16.9902H829.11V25.9902H824.61ZM837.39 25.9902V23.7402H835.14V14.7402H839.64V16.9902H844.14V14.7402H848.64V23.7402H846.39V25.9902H837.39ZM852.42 25.9902V14.7402H861.42V16.9902H856.92V19.2402H861.42V21.4902H856.92V23.7402H861.42V25.9902H852.42ZM865.2 25.9902V14.7402H874.2V16.9902H869.7V19.2402H874.2V21.4902H869.7V23.7402H874.2V25.9902H865.2ZM880.23 25.9902V16.9902H877.98V14.7402H886.98V16.9902H884.73V25.9902H880.23ZM901.29 25.9902V16.9902H899.04V14.7402H908.04V16.9902H905.79V25.9902H901.29ZM914.07 25.9902V23.7402H911.82V16.9902H914.07V14.7402H920.82V16.9902H923.07V23.7402H920.82V25.9902H914.07ZM916.32 23.6502H918.57V17.0802H916.32V23.6502ZM935.13 25.9902V14.7402H939.63V16.9902H944.13V14.7402H948.63V25.9902H944.13V21.4902H939.63V25.9902H935.13ZM952.41 25.9902V14.7402H956.91V25.9902H952.41ZM960.69 25.9902V14.7402H965.19V16.9902H967.44V19.2402H969.69V14.7402H974.19V25.9902H969.69V23.7402H967.44V21.4902H965.19V25.9902H960.69ZM977.97 25.9902V14.7402H986.97V16.9902H982.47V19.2402H986.97V21.4902H982.47V23.7402H986.97V25.9902H977.97ZM990.75 25.9902V23.7402H995.25V25.9902H990.75ZM347.25 48.9902V37.7402H349.5V39.9902H351.75V42.2402H354V44.4902H356.25V37.7402H358.5V48.9902H356.25V46.7402H354V44.4902H351.75V42.2402H349.5V48.9902H347.25ZM364.53 48.9902V46.7402H362.28V39.9902H364.53V37.7402H369.03V39.9902H371.28V46.7402H369.03V48.9902H364.53ZM364.53 46.6502H369.03V40.0802H364.53V46.6502ZM383.34 48.9902V37.7402H385.59V39.9902H387.84V42.2402H390.09V44.4902H387.84V42.2402H385.59V48.9902H383.34ZM392.34 48.9902V42.2402H390.09V39.9902H392.34V37.7402H394.59V48.9902H392.34ZM398.37 48.9902V37.7402H400.62V48.9902H398.37ZM404.4 48.9902V37.7402H406.65V39.9902H408.9V42.2402H411.15V44.4902H413.4V37.7402H415.65V48.9902H413.4V46.7402H411.15V44.4902H408.9V42.2402H406.65V48.9902H404.4ZM421.68 48.9902V39.9902H419.43V37.7402H426.18V39.9902H423.93V48.9902H421.68ZM429.96 48.9902V37.7402H432.21V48.9902H429.96ZM435.99 48.9902V37.7402H438.24V39.9902H440.49V42.2402H442.74V44.4902H444.99V37.7402H447.24V48.9902H444.99V46.7402H442.74V44.4902H440.49V42.2402H438.24V48.9902H435.99ZM453.27 39.9902V37.7402H460.02V39.9902H453.27ZM451.02 46.7402V39.9902H453.27V46.7402H451.02ZM457.77 46.7402V44.4902H455.52V42.2402H460.02V46.7402H457.77ZM453.27 48.9902V46.7402H457.77V48.9902H453.27ZM476.58 48.9902V42.2402H474.33V39.9902H472.08V37.7402H474.33V39.9902H476.58V42.2402H478.83V48.9902H476.58ZM481.08 39.9902V37.7402H483.33V39.9902H481.08ZM478.83 42.2402V39.9902H481.08V42.2402H478.83ZM487.11 48.9902V37.7402H493.86V39.9902H489.36V42.2402H493.86V44.4902H489.36V46.7402H493.86V48.9902H487.11ZM499.89 48.9902V39.9902H497.64V37.7402H504.39V39.9902H502.14V48.9902H499.89ZM516.45 44.4902V42.2402H529.95V44.4902H516.45ZM544.26 48.9902V46.7402H542.01V37.7402H544.26V46.7402H546.51V48.9902H544.26ZM551.01 46.7402V37.7402H553.26V46.7402H551.01ZM548.76 48.9902V46.7402H546.51V39.9902H548.76V46.7402H551.01V48.9902H548.76ZM557.04 48.9902V37.7402H563.79V39.9902H559.29V42.2402H563.79V44.4902H559.29V46.7402H563.79V48.9902H557.04ZM578.1 48.9902V39.9902H575.85V37.7402H582.6V39.9902H580.35V48.9902H578.1ZM586.38 48.9902V37.7402H593.13V39.9902H595.38V42.2402H593.13V46.7402H595.38V48.9902H593.13V46.7402H590.88V44.4902H588.63V48.9902H586.38ZM588.63 42.2402H593.04V39.9902H588.63V42.2402ZM599.16 48.9902V39.9902H601.41V37.7402H605.91V39.9902H608.16V48.9902H605.91V44.4902H601.41V48.9902H599.16ZM601.41 42.2402H605.91V40.0802H601.41V42.2402ZM618.69 42.2402V39.9902H614.19V37.7402H618.69V39.9902H620.94V42.2402H618.69ZM614.19 48.9902V46.7402H611.94V39.9902H614.19V46.7402H618.69V48.9902H614.19ZM618.69 46.7402V44.4902H620.94V46.7402H618.69ZM624.72 48.9902V37.7402H626.97V42.2402H629.22V44.4902H631.47V46.7402H633.72V48.9902H631.47V46.7402H629.22V44.4902H626.97V48.9902H624.72ZM631.47 39.9902V37.7402H633.72V39.9902H631.47ZM629.22 42.2402V39.9902H631.47V42.2402H629.22ZM645.78 48.9902V37.7402H652.53V39.9902H654.78V46.7402H652.53V48.9902H645.78ZM648.03 42.2402H652.44V39.9902H648.03V42.2402ZM648.03 46.7402H652.44V44.4902H648.03V46.7402ZM658.56 48.9902V39.9902H660.81V37.7402H665.31V39.9902H667.56V48.9902H665.31V44.4902H660.81V48.9902H658.56ZM660.81 42.2402H665.31V40.0802H660.81V42.2402ZM671.34 48.9902V37.7402H673.59V46.7402H678.09V48.9902H671.34ZM681.87 48.9902V39.9902H684.12V37.7402H688.62V39.9902H690.87V48.9902H688.62V44.4902H684.12V48.9902H681.87ZM684.12 42.2402H688.62V40.0802H684.12V42.2402ZM694.65 48.9902V37.7402H696.9V39.9902H699.15V42.2402H701.4V44.4902H703.65V37.7402H705.9V48.9902H703.65V46.7402H701.4V44.4902H699.15V42.2402H696.9V48.9902H694.65ZM716.43 42.2402V39.9902H711.93V37.7402H716.43V39.9902H718.68V42.2402H716.43ZM711.93 48.9902V46.7402H709.68V39.9902H711.93V46.7402H716.43V48.9902H711.93ZM716.43 46.7402V44.4902H718.68V46.7402H716.43ZM722.46 48.9902V37.7402H729.21V39.9902H724.71V42.2402H729.21V44.4902H724.71V46.7402H729.21V48.9902H722.46ZM735.24 39.9902V37.7402H741.99V39.9902H735.24ZM739.74 46.7402V44.4902H735.24V42.2402H732.99V39.9902H735.24V42.2402H739.74V44.4902H741.99V46.7402H739.74ZM732.99 48.9902V46.7402H739.74V48.9902H732.99ZM756.3 48.9902V46.7402H754.05V39.9902H756.3V37.7402H760.8V39.9902H763.05V46.7402H760.8V48.9902H756.3ZM756.3 46.6502H760.8V40.0802H756.3V46.6502ZM766.83 48.9902V37.7402H773.58V39.9902H769.08V42.2402H773.58V44.4902H769.08V48.9902H766.83ZM777.36 48.9902V37.7402H784.11V39.9902H779.61V42.2402H784.11V44.4902H779.61V48.9902H777.36ZM787.89 44.4902V42.2402H794.64V44.4902H787.89ZM805.17 42.2402V39.9902H800.67V37.7402H805.17V39.9902H807.42V42.2402H805.17ZM800.67 48.9902V46.7402H798.42V39.9902H800.67V46.7402H805.17V48.9902H800.67ZM805.17 46.7402V44.4902H807.42V46.7402H805.17ZM811.2 48.9902V37.7402H813.45V42.2402H817.95V37.7402H820.2V48.9902H817.95V44.4902H813.45V48.9902H811.2ZM823.98 48.9902V39.9902H826.23V37.7402H830.73V39.9902H832.98V48.9902H830.73V44.4902H826.23V48.9902H823.98ZM826.23 42.2402H830.73V40.0802H826.23V42.2402ZM836.76 48.9902V37.7402H839.01V48.9902H836.76ZM842.79 48.9902V37.7402H845.04V39.9902H847.29V42.2402H849.54V44.4902H851.79V37.7402H854.04V48.9902H851.79V46.7402H849.54V44.4902H847.29V42.2402H845.04V48.9902H842.79ZM857.82 48.9902V46.7402H860.07V48.9902H857.82Z" fill="black"/>
<rect width="187" height="60" transform="translate(75 106.49)" fill="#131200"/>
<path d="M108.32 145.99V130.99H120.32V133.99H123.32V136.99H120.32V139.99H114.32V145.99H108.32ZM114.32 136.99H117.2V133.99H114.32V136.99ZM127.88 145.99V130.99H133.88V136.99H136.88V130.99H142.88V145.99H136.88V139.99H133.88V145.99H127.88ZM147.44 145.99V133.99H150.44V130.99H159.44V133.99H162.44V145.99H156.44V139.99H153.44V145.99H147.44ZM153.44 136.99H156.44V134.11H153.44V136.99ZM167 145.99V142.99H176V139.99H170V136.99H167V133.99H170V130.99H182V133.99H173V136.99H179V139.99H182V142.99H179V145.99H167ZM186.56 145.99V130.99H198.56V133.99H192.56V136.99H198.56V139.99H192.56V142.99H198.56V145.99H186.56ZM213.68 145.99V139.99H216.68V136.99H222.68V133.99H213.68V130.99H225.68V133.99H228.68V136.99H225.68V139.99H219.68V142.99H228.68V145.99H213.68Z" fill="black"/>
<path d="M108.32 145.99V130.99H120.32V133.99H123.32V136.99H120.32V139.99H114.32V145.99H108.32ZM114.32 136.99H117.2V133.99H114.32V136.99ZM127.88 145.99V130.99H133.88V136.99H136.88V130.99H142.88V145.99H136.88V139.99H133.88V145.99H127.88ZM147.44 145.99V133.99H150.44V130.99H159.44V133.99H162.44V145.99H156.44V139.99H153.44V145.99H147.44ZM153.44 136.99H156.44V134.11H153.44V136.99ZM167 145.99V142.99H176V139.99H170V136.99H167V133.99H170V130.99H182V133.99H173V136.99H179V139.99H182V142.99H179V145.99H167ZM186.56 145.99V130.99H198.56V133.99H192.56V136.99H198.56V139.99H192.56V142.99H198.56V145.99H186.56ZM213.68 145.99V139.99H216.68V136.99H222.68V133.99H213.68V130.99H225.68V133.99H228.68V136.99H225.68V139.99H219.68V142.99H228.68V145.99H213.68Z" fill="#87B497"/>
<path d="M349.5 120.99V111.99H347.25V109.74H356.25V111.99H354V120.99H349.5ZM362.28 120.99V118.74H360.03V111.99H362.28V109.74H369.03V111.99H371.28V118.74H369.03V120.99H362.28ZM364.53 118.65H366.78V112.08H364.53V118.65ZM375.06 120.99V109.74H379.56V111.99H381.81V109.74H386.31V111.99H384.06V114.24H381.81V116.49H384.06V118.74H386.31V120.99H381.81V118.74H379.56V120.99H375.06ZM390.09 120.99V109.74H399.09V111.99H394.59V114.24H399.09V116.49H394.59V118.74H399.09V120.99H390.09ZM402.87 120.99V109.74H407.37V111.99H409.62V114.24H411.87V109.74H416.37V120.99H411.87V118.74H409.62V116.49H407.37V120.99H402.87ZM430.68 120.99V118.74H428.43V111.99H430.68V109.74H437.43V111.99H439.68V114.24H435.18V111.99H432.93V118.74H435.18V116.49H439.68V118.74H437.43V120.99H430.68ZM443.46 120.99V109.74H447.96V118.74H452.46V120.99H443.46ZM456.24 120.99V111.99H458.49V109.74H465.24V111.99H467.49V120.99H462.99V116.49H460.74V120.99H456.24ZM460.74 114.24H462.99V112.08H460.74V114.24ZM471.27 120.99V109.74H475.77V120.99H471.27ZM479.55 120.99V109.74H484.05V111.99H488.55V109.74H493.05V120.99H488.55V116.49H484.05V120.99H479.55ZM505.11 120.99V109.74H514.11V111.99H509.61V114.24H514.11V116.49H509.61V118.74H514.11V120.99H505.11ZM522.39 120.99V118.74H520.14V114.24H517.89V109.74H522.39V114.24H526.89V109.74H531.39V114.24H529.14V118.74H526.89V120.99H522.39ZM535.17 120.99V109.74H544.17V111.99H539.67V114.24H544.17V116.49H539.67V118.74H544.17V120.99H535.17ZM547.95 120.99V109.74H552.45V111.99H554.7V114.24H556.95V109.74H561.45V120.99H556.95V118.74H554.7V116.49H552.45V120.99H547.95ZM567.48 120.99V111.99H565.23V109.74H574.23V111.99H571.98V120.99H567.48ZM588.54 120.99V118.74H586.29V111.99H588.54V109.74H593.04V111.99H590.79V118.74H593.04V120.99H588.54ZM599.07 120.99V111.99H596.82V109.74H605.82V111.99H603.57V120.99H599.07ZM611.85 120.99V118.74H609.6V111.99H611.85V109.74H618.6V111.99H620.85V114.24H616.35V111.99H614.1V118.74H616.35V116.49H620.85V118.74H618.6V120.99H611.85ZM624.63 120.99V109.74H633.63V111.99H629.13V114.24H633.63V116.49H629.13V118.74H633.63V120.99H624.63ZM637.41 120.99V118.74H639.66V111.99H637.41V109.74H641.91V111.99H644.16V118.74H641.91V120.99H637.41ZM365.502 139.94C365.682 139.556 365.856 139.22 366.024 138.932C366.204 138.644 366.378 138.404 366.546 138.212H356.052V137.456H366.546C366.378 137.252 366.204 137.006 366.024 136.718C365.856 136.43 365.682 136.1 365.502 135.728H366.132C366.888 136.604 367.68 137.252 368.508 137.672V137.996C367.68 138.404 366.888 139.052 366.132 139.94H365.502ZM383.34 143.99V141.74H381.09V132.74H383.34V141.74H385.59V143.99H383.34ZM390.09 141.74V132.74H392.34V141.74H390.09ZM387.84 143.99V141.74H385.59V134.99H387.84V141.74H390.09V143.99H387.84ZM396.12 143.99V132.74H402.87V134.99H398.37V137.24H402.87V139.49H398.37V141.74H402.87V143.99H396.12ZM414.93 143.99V132.74H417.18V137.24H421.68V132.74H423.93V143.99H421.68V139.49H417.18V143.99H414.93ZM427.71 143.99V132.74H429.96V143.99H427.71ZM435.99 143.99V134.99H433.74V132.74H440.49V134.99H438.24V143.99H435.99ZM452.55 143.99V141.74H454.8V134.99H452.55V132.74H457.05V141.74H459.3V143.99H452.55ZM463.08 143.99V132.74H465.33V134.99H467.58V137.24H469.83V139.49H467.58V137.24H465.33V143.99H463.08ZM472.08 143.99V137.24H469.83V134.99H472.08V132.74H474.33V143.99H472.08ZM488.64 143.99V134.99H486.39V132.74H493.14V134.99H490.89V143.99H488.64ZM499.17 143.99V141.74H496.92V132.74H499.17V141.74H501.42V143.99H499.17ZM505.92 141.74V132.74H508.17V141.74H505.92ZM503.67 143.99V141.74H501.42V134.99H503.67V141.74H505.92V143.99H503.67ZM511.95 143.99V132.74H518.7V134.99H514.2V137.24H518.7V139.49H514.2V141.74H518.7V143.99H511.95ZM522.48 143.99V132.74H529.23V134.99H524.73V137.24H529.23V139.49H524.73V141.74H529.23V143.99H522.48ZM535.26 143.99V134.99H533.01V132.74H539.76V134.99H537.51V143.99H535.26ZM545.79 134.99V132.74H552.54V134.99H545.79ZM550.29 141.74V139.49H545.79V137.24H543.54V134.99H545.79V137.24H550.29V139.49H552.54V141.74H550.29ZM543.54 143.99V141.74H550.29V143.99H543.54ZM556.32 143.99V141.74H558.57V143.99H556.32ZM572.88 143.99V141.74H570.63V132.74H572.88V141.74H577.38V143.99H572.88ZM577.38 141.74V132.74H579.63V141.74H577.38ZM585.66 134.99V132.74H592.41V134.99H585.66ZM590.16 141.74V139.49H585.66V137.24H583.41V134.99H585.66V137.24H590.16V139.49H592.41V141.74H590.16ZM583.41 143.99V141.74H590.16V143.99H583.41ZM596.19 143.99V132.74H602.94V134.99H598.44V137.24H602.94V139.49H598.44V141.74H602.94V143.99H596.19ZM606.72 143.99V132.74H613.47V134.99H615.72V137.24H613.47V141.74H615.72V143.99H613.47V141.74H611.22V139.49H608.97V143.99H606.72ZM608.97 137.24H613.38V134.99H608.97V137.24ZM621.75 134.99V132.74H628.5V134.99H621.75ZM626.25 141.74V139.49H621.75V137.24H619.5V134.99H621.75V137.24H626.25V139.49H628.5V141.74H626.25ZM619.5 143.99V141.74H626.25V143.99H619.5ZM647.31 137.24V134.99H642.81V132.74H647.31V134.99H649.56V137.24H647.31ZM642.81 143.99V141.74H640.56V134.99H642.81V141.74H647.31V143.99H642.81ZM647.31 141.74V139.49H649.56V141.74H647.31ZM653.34 143.99V132.74H655.59V141.74H660.09V143.99H653.34ZM663.87 143.99V134.99H666.12V132.74H670.62V134.99H672.87V143.99H670.62V139.49H666.12V143.99H663.87ZM666.12 137.24H670.62V135.08H666.12V137.24ZM676.65 143.99V132.74H678.9V143.99H676.65ZM682.68 143.99V132.74H684.93V134.99H687.18V137.24H689.43V139.49H687.18V137.24H684.93V143.99H682.68ZM691.68 143.99V137.24H689.43V134.99H691.68V132.74H693.93V143.99H691.68ZM708.24 143.99V134.99H705.99V132.74H712.74V134.99H710.49V143.99H708.24ZM718.77 143.99V141.74H716.52V134.99H718.77V132.74H723.27V134.99H725.52V141.74H723.27V143.99H718.77ZM718.77 141.65H723.27V135.08H718.77V141.65ZM729.3 143.99V132.74H731.55V137.24H733.8V139.49H736.05V141.74H738.3V143.99H736.05V141.74H733.8V139.49H731.55V143.99H729.3ZM736.05 134.99V132.74H738.3V134.99H736.05ZM733.8 137.24V134.99H736.05V137.24H733.8ZM742.08 143.99V132.74H748.83V134.99H744.33V137.24H748.83V139.49H744.33V141.74H748.83V143.99H742.08ZM752.61 143.99V132.74H754.86V134.99H757.11V137.24H759.36V139.49H761.61V132.74H763.86V143.99H761.61V141.74H759.36V139.49H757.11V137.24H754.86V143.99H752.61ZM769.89 134.99V132.74H776.64V134.99H769.89ZM774.39 141.74V139.49H769.89V137.24H767.64V134.99H769.89V137.24H774.39V139.49H776.64V141.74H774.39ZM767.64 143.99V141.74H774.39V143.99H767.64ZM788.7 143.99V134.99H790.95V132.74H795.45V134.99H797.7V143.99H795.45V139.49H790.95V143.99H788.7ZM790.95 137.24H795.45V135.08H790.95V137.24ZM801.48 143.99V132.74H803.73V134.99H805.98V137.24H808.23V139.49H810.48V132.74H812.73V143.99H810.48V141.74H808.23V139.49H805.98V137.24H803.73V143.99H801.48ZM816.51 143.99V132.74H823.26V134.99H825.51V141.74H823.26V143.99H816.51ZM818.76 141.74H823.17V134.99H818.76V141.74ZM844.32 137.24V134.99H839.82V132.74H844.32V134.99H846.57V137.24H844.32ZM839.82 143.99V141.74H837.57V134.99H839.82V141.74H844.32V143.99H839.82ZM844.32 141.74V139.49H846.57V141.74H844.32ZM850.35 143.99V132.74H852.6V137.24H857.1V132.74H859.35V143.99H857.1V139.49H852.6V143.99H850.35ZM865.38 143.99V141.74H863.13V134.99H865.38V132.74H869.88V134.99H872.13V141.74H869.88V143.99H865.38ZM865.38 141.65H869.88V135.08H865.38V141.65ZM878.16 143.99V141.74H875.91V134.99H878.16V132.74H882.66V134.99H884.91V141.74H882.66V143.99H878.16ZM878.16 141.65H882.66V135.08H878.16V141.65ZM890.94 134.99V132.74H897.69V134.99H890.94ZM895.44 141.74V139.49H890.94V137.24H888.69V134.99H890.94V137.24H895.44V139.49H897.69V141.74H895.44ZM888.69 143.99V141.74H895.44V143.99H888.69ZM901.47 143.99V132.74H908.22V134.99H903.72V137.24H908.22V139.49H903.72V141.74H908.22V143.99H901.47ZM922.53 143.99V134.99H920.28V132.74H927.03V134.99H924.78V143.99H922.53ZM930.81 143.99V132.74H933.06V137.24H937.56V132.74H939.81V143.99H937.56V139.49H933.06V143.99H930.81ZM943.59 143.99V132.74H950.34V134.99H945.84V137.24H950.34V139.49H945.84V141.74H950.34V143.99H943.59ZM954.12 143.99V132.74H956.37V143.99H954.12ZM960.15 143.99V132.74H966.9V134.99H969.15V137.24H966.9V141.74H969.15V143.99H966.9V141.74H964.65V139.49H962.4V143.99H960.15ZM962.4 137.24H966.81V134.99H962.4V137.24ZM347.25 166.99V155.74H354V157.99H356.25V160.24H354V164.74H356.25V166.99H354V164.74H351.75V162.49H349.5V166.99H347.25ZM349.5 160.24H353.91V157.99H349.5V160.24ZM362.28 166.99V164.74H360.03V157.99H362.28V155.74H366.78V157.99H369.03V164.74H366.78V166.99H362.28ZM362.28 164.65H366.78V158.08H362.28V164.65ZM372.81 166.99V155.74H375.06V164.74H379.56V166.99H372.81ZM383.34 166.99V155.74H390.09V157.99H385.59V160.24H390.09V162.49H385.59V164.74H390.09V166.99H383.34ZM393.87 160.24V157.99H396.12V160.24H393.87ZM393.87 164.74V162.49H396.12V164.74H393.87ZM410.43 157.99V155.74H417.18V157.99H410.43ZM414.93 164.74V162.49H410.43V160.24H408.18V157.99H410.43V160.24H414.93V162.49H417.18V164.74H414.93ZM408.18 166.99V164.74H414.93V166.99H408.18ZM420.96 166.99V155.74H427.71V157.99H423.21V160.24H427.71V162.49H423.21V164.74H427.71V166.99H420.96ZM431.49 166.99V155.74H433.74V164.74H438.24V166.99H431.49ZM442.02 166.99V155.74H444.27V164.74H448.77V166.99H442.02ZM452.55 166.99V155.74H459.3V157.99H454.8V160.24H459.3V162.49H454.8V164.74H459.3V166.99H452.55ZM463.08 166.99V155.74H469.83V157.99H472.08V160.24H469.83V164.74H472.08V166.99H469.83V164.74H467.58V162.49H465.33V166.99H463.08ZM465.33 160.24H469.74V157.99H465.33V160.24ZM478.11 166.99V164.74H480.36V166.99H478.11ZM475.86 169.24V166.99H478.11V169.24H475.86ZM494.67 157.99V155.74H501.42V157.99H494.67ZM499.17 164.74V162.49H494.67V160.24H492.42V157.99H494.67V160.24H499.17V162.49H501.42V164.74H499.17ZM492.42 166.99V164.74H499.17V166.99H492.42ZM507.45 166.99V157.99H505.2V155.74H511.95V157.99H509.7V166.99H507.45ZM515.73 166.99V157.99H517.98V155.74H522.48V157.99H524.73V166.99H522.48V162.49H517.98V166.99H515.73ZM517.98 160.24H522.48V158.08H517.98V160.24ZM528.51 166.99V155.74H530.76V160.24H533.01V162.49H535.26V164.74H537.51V166.99H535.26V164.74H533.01V162.49H530.76V166.99H528.51ZM535.26 157.99V155.74H537.51V157.99H535.26ZM533.01 160.24V157.99H535.26V160.24H533.01ZM541.29 166.99V155.74H548.04V157.99H543.54V160.24H548.04V162.49H543.54V164.74H548.04V166.99H541.29ZM551.82 166.99V155.74H558.57V157.99H560.82V160.24H558.57V164.74H560.82V166.99H558.57V164.74H556.32V162.49H554.07V166.99H551.82ZM554.07 160.24H558.48V157.99H554.07V160.24ZM566.85 166.99V164.74H569.1V166.99H566.85ZM564.6 169.24V166.99H566.85V169.24H564.6ZM583.41 166.99V164.74H581.16V157.99H583.41V155.74H587.91V157.99H590.16V164.74H587.91V166.99H583.41ZM583.41 164.65H587.91V158.08H583.41V164.65ZM593.94 166.99V155.74H600.69V157.99H602.94V160.24H600.69V164.74H602.94V166.99H600.69V164.74H598.44V162.49H596.19V166.99H593.94ZM596.19 160.24H600.6V157.99H596.19V160.24ZM615 166.99V155.74H621.75V157.99H624V160.24H621.75V162.49H617.25V166.99H615ZM617.25 160.24H621.66V157.99H617.25V160.24ZM627.78 166.99V157.99H630.03V155.74H634.53V157.99H636.78V166.99H634.53V162.49H630.03V166.99H627.78ZM630.03 160.24H634.53V158.08H630.03V160.24ZM642.81 166.99V157.99H640.56V155.74H647.31V157.99H645.06V166.99H642.81ZM651.09 166.99V155.74H657.84V157.99H660.09V160.24H657.84V164.74H660.09V166.99H657.84V164.74H655.59V162.49H653.34V166.99H651.09ZM653.34 160.24H657.75V157.99H653.34V160.24ZM666.12 166.99V164.74H663.87V157.99H666.12V155.74H670.62V157.99H672.87V164.74H670.62V166.99H666.12ZM666.12 164.65H670.62V158.08H666.12V164.65ZM676.65 166.99V155.74H678.9V157.99H681.15V160.24H683.4V162.49H685.65V155.74H687.9V166.99H685.65V164.74H683.4V162.49H681.15V160.24H678.9V166.99H676.65ZM691.68 166.99V164.74H693.93V166.99H691.68Z" fill="black"/>
<rect width="187" height="60" transform="translate(77.1309 220.824)" fill="#131200"/>
<path d="M110.451 260.324V245.324H122.451V248.324H125.451V251.324H122.451V254.324H116.451V260.324H110.451ZM116.451 251.324H119.331V248.324H116.451V251.324ZM130.011 260.324V245.324H136.011V251.324H139.011V245.324H145.011V260.324H139.011V254.324H136.011V260.324H130.011ZM149.571 260.324V248.324H152.571V245.324H161.571V248.324H164.571V260.324H158.571V254.324H155.571V260.324H149.571ZM155.571 251.324H158.571V248.444H155.571V251.324ZM169.131 260.324V257.324H178.131V254.324H172.131V251.324H169.131V248.324H172.131V245.324H184.131V248.324H175.131V251.324H181.131V254.324H184.131V257.324H181.131V260.324H169.131ZM188.691 260.324V245.324H200.691V248.324H194.691V251.324H200.691V254.324H194.691V257.324H200.691V260.324H188.691ZM215.811 260.324V257.324H224.811V254.324H218.811V251.324H224.811V248.324H215.811V245.324H227.811V248.324H230.811V251.324H227.811V254.324H230.811V257.324H227.811V260.324H215.811Z" fill="black"/>
<path d="M110.451 260.324V245.324H122.451V248.324H125.451V251.324H122.451V254.324H116.451V260.324H110.451ZM116.451 251.324H119.331V248.324H116.451V251.324ZM130.011 260.324V245.324H136.011V251.324H139.011V245.324H145.011V260.324H139.011V254.324H136.011V260.324H130.011ZM149.571 260.324V248.324H152.571V245.324H161.571V248.324H164.571V260.324H158.571V254.324H155.571V260.324H149.571ZM155.571 251.324H158.571V248.444H155.571V251.324ZM169.131 260.324V257.324H178.131V254.324H172.131V251.324H169.131V248.324H172.131V245.324H184.131V248.324H175.131V251.324H181.131V254.324H184.131V257.324H181.131V260.324H169.131ZM188.691 260.324V245.324H200.691V248.324H194.691V251.324H200.691V254.324H194.691V257.324H200.691V260.324H188.691ZM215.811 260.324V257.324H224.811V254.324H218.811V251.324H224.811V248.324H215.811V245.324H227.811V248.324H230.811V251.324H227.811V254.324H230.811V257.324H227.811V260.324H215.811Z" fill="#87B497"/>
<path d="M347.381 235.324V233.074H354.131V230.824H349.631V228.574H347.381V226.324H349.631V224.074H358.631V226.324H351.881V228.574H356.381V230.824H358.631V233.074H356.381V235.324H347.381ZM364.661 235.324V226.324H362.411V224.074H371.411V226.324H369.161V235.324H364.661ZM375.191 235.324V226.324H377.441V224.074H384.191V226.324H386.441V235.324H381.941V230.824H379.691V235.324H375.191ZM379.691 228.574H381.941V226.414H379.691V228.574ZM390.221 235.324V224.074H394.721V226.324H396.971V224.074H401.471V226.324H399.221V228.574H396.971V230.824H399.221V233.074H401.471V235.324H396.971V233.074H394.721V235.324H390.221ZM405.251 235.324V224.074H409.751V235.324H405.251ZM413.531 235.324V224.074H418.031V226.324H420.281V228.574H422.531V224.074H427.031V235.324H422.531V233.074H420.281V230.824H418.031V235.324H413.531ZM433.061 235.324V233.074H430.811V226.324H433.061V224.074H442.061V226.324H435.311V233.074H437.561V228.574H442.061V233.074H439.811V235.324H433.061ZM458.621 237.574V235.324H456.371V233.074H454.121V230.824H456.371V228.574H454.121V226.324H456.371V224.074H458.621V221.824H463.121V224.074H465.371V226.324H458.621V228.574H463.121V230.824H458.621V233.074H465.371V235.324H463.121V237.574H458.621ZM477.431 235.324V224.074H486.431V226.324H488.681V228.574H486.431V230.824H481.931V235.324H477.431ZM481.931 228.574H484.091V226.324H481.931V228.574ZM492.461 235.324V224.074H496.961V228.574H499.211V224.074H503.711V235.324H499.211V230.824H496.961V235.324H492.461ZM507.491 235.324V226.324H509.741V224.074H516.491V226.324H518.741V235.324H514.241V230.824H511.991V235.324H507.491ZM511.991 228.574H514.241V226.414H511.991V228.574ZM522.521 235.324V233.074H529.271V230.824H524.771V228.574H522.521V226.324H524.771V224.074H533.771V226.324H527.021V228.574H531.521V230.824H533.771V233.074H531.521V235.324H522.521ZM537.551 235.324V224.074H546.551V226.324H542.051V228.574H546.551V230.824H542.051V233.074H546.551V235.324H537.551ZM558.611 235.324V230.824H560.861V228.574H565.361V226.324H558.611V224.074H567.611V226.324H569.861V228.574H567.611V230.824H563.111V233.074H569.861V235.324H558.611ZM581.921 235.324V224.074H586.421V226.324H590.921V224.074H595.421V235.324H590.921V230.824H586.421V235.324H581.921ZM599.201 235.324V224.074H603.701V235.324H599.201ZM607.481 235.324V224.074H611.981V226.324H614.231V228.574H616.481V224.074H620.981V235.324H616.481V233.074H614.231V230.824H611.981V235.324H607.481ZM624.761 235.324V224.074H629.261V235.324H624.761ZM633.041 235.324V224.074H637.541V226.324H639.791V228.574H642.041V224.074H646.541V235.324H642.041V233.074H639.791V230.824H637.541V235.324H633.041ZM652.571 235.324V233.074H650.321V226.324H652.571V224.074H661.571V226.324H654.821V233.074H657.071V228.574H661.571V233.074H659.321V235.324H652.571ZM365.633 254.274C365.813 253.89 365.987 253.554 366.155 253.266C366.335 252.978 366.509 252.738 366.677 252.546H356.183V251.79H366.677C366.509 251.586 366.335 251.34 366.155 251.052C365.987 250.764 365.813 250.434 365.633 250.062H366.263C367.019 250.938 367.811 251.586 368.639 252.006V252.33C367.811 252.738 367.019 253.386 366.263 254.274H365.633ZM383.471 249.324V247.074H390.221V249.324H383.471ZM387.971 256.074V253.824H383.471V251.574H381.221V249.324H383.471V251.574H387.971V253.824H390.221V256.074H387.971ZM381.221 258.324V256.074H387.971V258.324H381.221ZM396.251 258.324V249.324H394.001V247.074H400.751V249.324H398.501V258.324H396.251ZM404.531 258.324V249.324H406.781V247.074H411.281V249.324H413.531V258.324H411.281V253.824H406.781V258.324H404.531ZM406.781 251.574H411.281V249.414H406.781V251.574ZM417.311 258.324V247.074H419.561V251.574H421.811V253.824H424.061V256.074H426.311V258.324H424.061V256.074H421.811V253.824H419.561V258.324H417.311ZM424.061 249.324V247.074H426.311V249.324H424.061ZM421.811 251.574V249.324H424.061V251.574H421.811ZM430.091 258.324V247.074H436.841V249.324H432.341V251.574H436.841V253.824H432.341V256.074H436.841V258.324H430.091ZM440.621 258.324V247.074H447.371V249.324H449.621V251.574H447.371V256.074H449.621V258.324H447.371V256.074H445.121V253.824H442.871V258.324H440.621ZM442.871 251.574H447.281V249.324H442.871V251.574ZM455.651 249.324V247.074H462.401V249.324H455.651ZM460.151 256.074V253.824H455.651V251.574H453.401V249.324H455.651V251.574H460.151V253.824H462.401V256.074H460.151ZM453.401 258.324V256.074H460.151V258.324H453.401ZM474.461 258.324V247.074H481.211V249.324H476.711V251.574H481.211V253.824H476.711V256.074H481.211V258.324H474.461ZM484.991 258.324V249.324H487.241V247.074H491.741V249.324H493.991V258.324H491.741V253.824H487.241V258.324H484.991ZM487.241 251.574H491.741V249.414H487.241V251.574ZM497.771 258.324V247.074H504.521V249.324H506.771V251.574H504.521V256.074H506.771V258.324H504.521V256.074H502.271V253.824H500.021V258.324H497.771ZM500.021 251.574H504.431V249.324H500.021V251.574ZM510.551 258.324V247.074H512.801V249.324H515.051V251.574H517.301V253.824H519.551V247.074H521.801V258.324H519.551V256.074H517.301V253.824H515.051V251.574H512.801V258.324H510.551ZM538.361 258.324V251.574H536.111V249.324H533.861V247.074H536.111V249.324H538.361V251.574H540.611V258.324H538.361ZM542.861 249.324V247.074H545.111V249.324H542.861ZM540.611 251.574V249.324H542.861V251.574H540.611ZM548.891 258.324V247.074H551.141V258.324H548.891ZM554.921 258.324V247.074H561.671V249.324H557.171V251.574H561.671V253.824H557.171V256.074H561.671V258.324H554.921ZM565.451 258.324V247.074H567.701V256.074H572.201V258.324H565.451ZM575.981 258.324V247.074H582.731V249.324H584.981V256.074H582.731V258.324H575.981ZM578.231 256.074H582.641V249.324H578.231V256.074ZM588.761 258.324V256.074H591.011V258.324H588.761ZM603.071 258.324V247.074H609.821V249.324H612.071V251.574H609.821V253.824H605.321V258.324H603.071ZM605.321 251.574H609.731V249.324H605.321V251.574ZM615.851 258.324V249.324H618.101V247.074H622.601V249.324H624.851V258.324H622.601V253.824H618.101V258.324H615.851ZM618.101 251.574H622.601V249.414H618.101V251.574ZM630.881 258.324V249.324H628.631V247.074H635.381V249.324H633.131V258.324H630.881ZM639.161 258.324V247.074H645.911V249.324H648.161V251.574H645.911V256.074H648.161V258.324H645.911V256.074H643.661V253.824H641.411V258.324H639.161ZM641.411 251.574H645.821V249.324H641.411V251.574ZM654.191 258.324V256.074H651.941V249.324H654.191V247.074H658.691V249.324H660.941V256.074H658.691V258.324H654.191ZM654.191 255.984H658.691V249.414H654.191V255.984ZM664.721 258.324V247.074H666.971V249.324H669.221V251.574H671.471V253.824H673.721V247.074H675.971V258.324H673.721V256.074H671.471V253.824H669.221V251.574H666.971V258.324H664.721ZM682.001 249.324V247.074H688.751V249.324H682.001ZM686.501 256.074V253.824H682.001V251.574H679.751V249.324H682.001V251.574H686.501V253.824H688.751V256.074H686.501ZM679.751 258.324V256.074H686.501V258.324H679.751ZM700.811 258.324V247.074H703.061V249.324H705.311V251.574H707.561V253.824H705.311V251.574H703.061V258.324H700.811ZM709.811 258.324V251.574H707.561V249.324H709.811V247.074H712.061V258.324H709.811ZM715.841 258.324V247.074H718.091V258.324H715.841ZM721.871 258.324V247.074H724.121V249.324H726.371V251.574H728.621V253.824H730.871V247.074H733.121V258.324H730.871V256.074H728.621V253.824H726.371V251.574H724.121V258.324H721.871ZM736.901 258.324V247.074H743.651V249.324H739.151V251.574H743.651V253.824H739.151V256.074H743.651V258.324H736.901ZM757.961 258.324V256.074H755.711V247.074H757.961V256.074H760.211V258.324H757.961ZM764.711 256.074V247.074H766.961V256.074H764.711ZM762.461 258.324V256.074H760.211V249.324H762.461V256.074H764.711V258.324H762.461ZM770.741 258.324V247.074H772.991V258.324H770.741ZM779.021 258.324V249.324H776.771V247.074H783.521V249.324H781.271V258.324H779.021ZM787.301 258.324V247.074H789.551V251.574H794.051V247.074H796.301V258.324H794.051V253.824H789.551V258.324H787.301ZM810.611 249.324V247.074H817.361V249.324H810.611ZM815.111 256.074V253.824H810.611V251.574H808.361V249.324H810.611V251.574H815.111V253.824H817.361V256.074H815.111ZM808.361 258.324V256.074H815.111V258.324H808.361ZM821.141 258.324V247.074H823.391V251.574H827.891V247.074H830.141V258.324H827.891V253.824H823.391V258.324H821.141ZM836.171 258.324V256.074H833.921V249.324H836.171V247.074H840.671V249.324H842.921V256.074H840.671V258.324H836.171ZM836.171 255.984H840.671V249.414H836.171V255.984ZM846.701 258.324V247.074H853.451V249.324H855.701V251.574H853.451V256.074H855.701V258.324H853.451V256.074H851.201V253.824H848.951V258.324H846.701ZM848.951 251.574H853.361V249.324H848.951V251.574ZM861.731 258.324V249.324H859.481V247.074H866.231V249.324H863.981V258.324H861.731ZM870.011 258.324V247.074H876.761V249.324H872.261V251.574H876.761V253.824H872.261V256.074H876.761V258.324H870.011ZM880.541 258.324V247.074H887.291V249.324H889.541V251.574H887.291V256.074H889.541V258.324H887.291V256.074H885.041V253.824H882.791V258.324H880.541ZM882.791 251.574H887.201V249.324H882.791V251.574ZM908.351 251.574V249.324H903.851V247.074H908.351V249.324H910.601V251.574H908.351ZM903.851 258.324V256.074H901.601V249.324H903.851V256.074H908.351V258.324H903.851ZM908.351 256.074V253.824H910.601V256.074H908.351ZM916.631 258.324V256.074H914.381V249.324H916.631V247.074H921.131V249.324H923.381V256.074H921.131V258.324H916.631ZM916.631 255.984H921.131V249.414H916.631V255.984ZM929.411 258.324V256.074H927.161V249.324H929.411V247.074H933.911V249.324H936.161V256.074H933.911V258.324H929.411ZM929.411 255.984H933.911V249.414H929.411V255.984ZM939.941 258.324V247.074H942.191V256.074H946.691V258.324H939.941ZM950.471 258.324V247.074H957.221V249.324H959.471V256.074H957.221V258.324H950.471ZM952.721 256.074H957.131V249.324H952.721V256.074ZM965.501 258.324V256.074H963.251V249.324H965.501V247.074H970.001V249.324H972.251V256.074H970.001V258.324H965.501ZM965.501 255.984H970.001V249.414H965.501V255.984ZM978.281 258.324V256.074H976.031V247.074H978.281V256.074H980.531V258.324H978.281ZM985.031 256.074V247.074H987.281V256.074H985.031ZM982.781 258.324V256.074H980.531V249.324H982.781V256.074H985.031V258.324H982.781ZM991.061 258.324V247.074H993.311V249.324H995.561V251.574H997.811V253.824H1000.06V247.074H1002.31V258.324H1000.06V256.074H997.811V253.824H995.561V251.574H993.311V258.324H991.061ZM1008.34 249.324V247.074H1015.09V249.324H1008.34ZM1012.84 256.074V253.824H1008.34V251.574H1006.09V249.324H1008.34V251.574H1012.84V253.824H1015.09V256.074H1012.84ZM1006.09 258.324V256.074H1012.84V258.324H1006.09ZM347.381 281.324V272.324H349.631V270.074H354.131V272.324H356.381V281.324H354.131V276.824H349.631V281.324H347.381ZM349.631 274.574H354.131V272.414H349.631V274.574ZM360.161 281.324V270.074H362.411V272.324H364.661V274.574H366.911V276.824H369.161V270.074H371.411V281.324H369.161V279.074H366.911V276.824H364.661V274.574H362.411V281.324H360.161ZM375.191 281.324V270.074H381.941V272.324H384.191V279.074H381.941V281.324H375.191ZM377.441 279.074H381.851V272.324H377.441V279.074ZM403.001 283.574V281.324H398.501V279.074H396.251V272.324H398.501V270.074H403.001V272.324H405.251V279.074H403.001V281.324H405.251V283.574H403.001ZM398.501 278.984H403.001V272.414H398.501V278.984ZM411.281 281.324V279.074H409.031V270.074H411.281V279.074H415.781V281.324H411.281ZM415.781 279.074V270.074H418.031V279.074H415.781ZM421.811 281.324V272.324H424.061V270.074H428.561V272.324H430.811V281.324H428.561V276.824H424.061V281.324H421.811ZM424.061 274.574H428.561V272.414H424.061V274.574ZM434.591 281.324V270.074H436.841V279.074H441.341V281.324H434.591ZM445.121 281.324V270.074H447.371V281.324H445.121ZM451.151 281.324V270.074H457.901V272.324H453.401V274.574H457.901V276.824H453.401V281.324H451.151ZM466.181 281.324V274.574H463.931V272.324H461.681V270.074H463.931V272.324H466.181V274.574H468.431V281.324H466.181ZM470.681 272.324V270.074H472.931V272.324H470.681ZM468.431 274.574V272.324H470.681V274.574H468.431ZM484.991 281.324V270.074H491.741V272.324H487.241V274.574H491.741V276.824H487.241V281.324H484.991ZM497.771 281.324V279.074H495.521V272.324H497.771V270.074H502.271V272.324H504.521V279.074H502.271V281.324H497.771ZM497.771 278.984H502.271V272.414H497.771V278.984ZM508.301 281.324V270.074H515.051V272.324H517.301V274.574H515.051V279.074H517.301V281.324H515.051V279.074H512.801V276.824H510.551V281.324H508.301ZM510.551 274.574H514.961V272.324H510.551V274.574ZM529.361 281.324V270.074H536.111V272.324H538.361V279.074H536.111V281.324H529.361ZM531.611 279.074H536.021V272.324H531.611V279.074ZM542.141 281.324V272.324H544.391V270.074H548.891V272.324H551.141V281.324H548.891V276.824H544.391V281.324H542.141ZM544.391 274.574H548.891V272.414H544.391V274.574ZM557.171 281.324V279.074H554.921V272.324H557.171V270.074H561.671V272.324H563.921V279.074H561.671V281.324H557.171ZM557.171 278.984H561.671V272.414H557.171V278.984ZM575.981 281.324V270.074H582.731V272.324H584.981V274.574H582.731V279.074H584.981V281.324H582.731V279.074H580.481V276.824H578.231V281.324H575.981ZM578.231 274.574H582.641V272.324H578.231V274.574ZM591.011 281.324V279.074H588.761V272.324H591.011V270.074H595.511V272.324H597.761V279.074H595.511V281.324H591.011ZM591.011 278.984H595.511V272.414H591.011V278.984ZM601.541 281.324V270.074H603.791V279.074H608.291V281.324H601.541ZM612.071 281.324V270.074H618.821V272.324H614.321V274.574H618.821V276.824H614.321V279.074H618.821V281.324H612.071ZM624.851 272.324V270.074H631.601V272.324H624.851ZM629.351 279.074V276.824H624.851V274.574H622.601V272.324H624.851V274.574H629.351V276.824H631.601V279.074H629.351ZM622.601 281.324V279.074H629.351V281.324H622.601ZM635.381 281.324V279.074H637.631V281.324H635.381Z" fill="black"/>
<rect width="187" height="60" transform="translate(76 328.157)" fill="#131200"/>
<path d="M109.32 367.657V352.657H121.32V355.657H124.32V358.657H121.32V361.657H115.32V367.657H109.32ZM115.32 358.657H118.2V355.657H115.32V358.657ZM128.88 367.657V352.657H134.88V358.657H137.88V352.657H143.88V367.657H137.88V361.657H134.88V367.657H128.88ZM148.44 367.657V355.657H151.44V352.657H160.44V355.657H163.44V367.657H157.44V361.657H154.44V367.657H148.44ZM154.44 358.657H157.44V355.777H154.44V358.657ZM168 367.657V364.657H177V361.657H171V358.657H168V355.657H171V352.657H183V355.657H174V358.657H180V361.657H183V364.657H180V367.657H168ZM187.56 367.657V352.657H199.56V355.657H193.56V358.657H199.56V361.657H193.56V364.657H199.56V367.657H187.56ZM220.68 367.657V361.657H214.68V352.657H226.68V358.657H229.68V361.657H226.68V367.657H220.68Z" fill="black"/>
<path d="M109.32 367.657V352.657H121.32V355.657H124.32V358.657H121.32V361.657H115.32V367.657H109.32ZM115.32 358.657H118.2V355.657H115.32V358.657ZM128.88 367.657V352.657H134.88V358.657H137.88V352.657H143.88V367.657H137.88V361.657H134.88V367.657H128.88ZM148.44 367.657V355.657H151.44V352.657H160.44V355.657H163.44V367.657H157.44V361.657H154.44V367.657H148.44ZM154.44 358.657H157.44V355.777H154.44V358.657ZM168 367.657V364.657H177V361.657H171V358.657H168V355.657H171V352.657H183V355.657H174V358.657H180V361.657H183V364.657H180V367.657H168ZM187.56 367.657V352.657H199.56V355.657H193.56V358.657H199.56V361.657H193.56V364.657H199.56V367.657H187.56ZM220.68 367.657V361.657H214.68V352.657H226.68V358.657H229.68V361.657H226.68V367.657H220.68Z" fill="#87B497"/>
<path d="M347.25 342.657V331.407H356.25V333.657H358.5V335.907H356.25V338.157H351.75V342.657H347.25ZM351.75 335.907H353.91V333.657H351.75V335.907ZM362.28 342.657V331.407H371.28V333.657H366.78V335.907H371.28V338.157H366.78V340.407H371.28V342.657H362.28ZM375.06 342.657V331.407H384.06V333.657H379.56V335.907H384.06V338.157H379.56V340.407H384.06V342.657H375.06ZM387.84 342.657V331.407H396.84V333.657H399.09V335.907H396.84V340.407H399.09V342.657H394.59V340.407H392.34V342.657H387.84ZM392.34 335.907H394.59V333.657H392.34V335.907ZM402.87 338.157V335.907H411.87V338.157H402.87ZM417.9 342.657V333.657H415.65V331.407H424.65V333.657H422.4V342.657H417.9ZM430.68 342.657V340.407H428.43V333.657H430.68V331.407H437.43V333.657H439.68V340.407H437.43V342.657H430.68ZM432.93 340.317H435.18V333.747H432.93V340.317ZM443.46 338.157V335.907H452.46V338.157H443.46ZM456.24 342.657V331.407H465.24V333.657H467.49V335.907H465.24V338.157H460.74V342.657H456.24ZM460.74 335.907H462.9V333.657H460.74V335.907ZM471.27 342.657V331.407H480.27V333.657H475.77V335.907H480.27V338.157H475.77V340.407H480.27V342.657H471.27ZM484.05 342.657V331.407H493.05V333.657H488.55V335.907H493.05V338.157H488.55V340.407H493.05V342.657H484.05ZM496.83 342.657V331.407H505.83V333.657H508.08V335.907H505.83V340.407H508.08V342.657H503.58V340.407H501.33V342.657H496.83ZM501.33 335.907H503.58V333.657H501.33V335.907ZM520.14 342.657V331.407H529.14V333.657H531.39V335.907H529.14V338.157H524.64V342.657H520.14ZM524.64 335.907H526.8V333.657H524.64V335.907ZM535.17 342.657V331.407H544.17V333.657H546.42V335.907H544.17V340.407H546.42V342.657H541.92V340.407H539.67V342.657H535.17ZM539.67 335.907H541.92V333.657H539.67V335.907ZM550.2 342.657V331.407H554.7V342.657H550.2ZM560.73 342.657V340.407H558.48V333.657H560.73V331.407H567.48V333.657H569.73V335.907H565.23V333.657H562.98V340.407H565.23V338.157H569.73V340.407H567.48V342.657H560.73ZM573.51 342.657V331.407H582.51V333.657H578.01V335.907H582.51V338.157H578.01V340.407H582.51V342.657H573.51ZM594.57 342.657V331.407H603.57V333.657H605.82V340.407H603.57V342.657H594.57ZM599.07 340.407H601.23V333.657H599.07V340.407ZM609.6 342.657V331.407H614.1V342.657H609.6ZM617.88 342.657V340.407H624.63V338.157H620.13V335.907H617.88V333.657H620.13V331.407H629.13V333.657H622.38V335.907H626.88V338.157H629.13V340.407H626.88V342.657H617.88ZM635.16 342.657V340.407H632.91V333.657H635.16V331.407H641.91V333.657H644.16V335.907H639.66V333.657H637.41V340.407H639.66V338.157H644.16V340.407H641.91V342.657H635.16ZM650.19 342.657V340.407H647.94V333.657H650.19V331.407H656.94V333.657H659.19V340.407H656.94V342.657H650.19ZM652.44 340.317H654.69V333.747H652.44V340.317ZM667.47 342.657V340.407H665.22V335.907H662.97V331.407H667.47V335.907H671.97V331.407H676.47V335.907H674.22V340.407H671.97V342.657H667.47ZM680.25 342.657V331.407H689.25V333.657H684.75V335.907H689.25V338.157H684.75V340.407H689.25V342.657H680.25ZM693.03 342.657V331.407H702.03V333.657H704.28V335.907H702.03V340.407H704.28V342.657H699.78V340.407H697.53V342.657H693.03ZM697.53 335.907H699.78V333.657H697.53V335.907ZM712.56 342.657V335.907H710.31V333.657H708.06V331.407H712.56V333.657H717.06V331.407H721.56V333.657H719.31V335.907H717.06V342.657H712.56ZM365.502 361.607C365.682 361.223 365.856 360.887 366.024 360.599C366.204 360.311 366.378 360.071 366.546 359.879H356.052V359.123H366.546C366.378 358.919 366.204 358.673 366.024 358.385C365.856 358.097 365.682 357.767 365.502 357.395H366.132C366.888 358.271 367.68 358.919 368.508 359.339V359.663C367.68 360.071 366.888 360.719 366.132 361.607H365.502ZM383.34 365.657V363.407H381.09V356.657H383.34V354.407H387.84V356.657H390.09V363.407H387.84V365.657H383.34ZM383.34 363.317H387.84V356.747H383.34V363.317ZM396.12 365.657V356.657H393.87V354.407H400.62V356.657H398.37V365.657H396.12ZM411.15 358.907V356.657H406.65V354.407H411.15V356.657H413.4V358.907H411.15ZM406.65 365.657V363.407H404.4V356.657H406.65V363.407H411.15V365.657H406.65ZM411.15 363.407V361.157H413.4V363.407H411.15ZM417.18 361.157V358.907H423.93V361.157H417.18ZM429.96 356.657V354.407H436.71V356.657H429.96ZM434.46 363.407V361.157H429.96V358.907H427.71V356.657H429.96V358.907H434.46V361.157H436.71V363.407H434.46ZM427.71 365.657V363.407H434.46V365.657H427.71ZM442.74 365.657V356.657H440.49V354.407H447.24V356.657H444.99V365.657H442.74ZM455.52 365.657V358.907H453.27V356.657H451.02V354.407H453.27V356.657H455.52V358.907H457.77V365.657H455.52ZM460.02 356.657V354.407H462.27V356.657H460.02ZM457.77 358.907V356.657H460.02V358.907H457.77ZM466.05 365.657V354.407H468.3V363.407H472.8V365.657H466.05ZM476.58 365.657V354.407H483.33V356.657H478.83V358.907H483.33V361.157H478.83V363.407H483.33V365.657H476.58ZM497.64 365.657V356.657H495.39V354.407H502.14V356.657H499.89V365.657H497.64ZM505.92 365.657V354.407H512.67V356.657H514.92V358.907H512.67V363.407H514.92V365.657H512.67V363.407H510.42V361.157H508.17V365.657H505.92ZM508.17 358.907H512.58V356.657H508.17V358.907ZM518.7 365.657V356.657H520.95V354.407H525.45V356.657H527.7V365.657H525.45V361.157H520.95V365.657H518.7ZM520.95 358.907H525.45V356.747H520.95V358.907ZM531.48 365.657V354.407H538.23V356.657H540.48V363.407H538.23V365.657H531.48ZM533.73 363.407H538.14V356.657H533.73V363.407ZM544.26 365.657V354.407H551.01V356.657H546.51V358.907H551.01V361.157H546.51V363.407H551.01V365.657H544.26ZM557.04 356.657V354.407H563.79V356.657H557.04ZM561.54 363.407V361.157H557.04V358.907H554.79V356.657H557.04V358.907H561.54V361.157H563.79V363.407H561.54ZM554.79 365.657V363.407H561.54V365.657H554.79ZM575.85 365.657V354.407H582.6V356.657H584.85V363.407H582.6V365.657H575.85ZM578.1 358.907H582.51V356.657H578.1V358.907ZM578.1 363.407H582.51V361.157H578.1V363.407ZM588.63 365.657V354.407H595.38V356.657H590.88V358.907H595.38V361.157H590.88V363.407H595.38V365.657H588.63ZM601.41 365.657V356.657H599.16V354.407H605.91V356.657H603.66V365.657H601.41ZM611.94 365.657V363.407H609.69V354.407H611.94V363.407H614.19V365.657H611.94ZM618.69 363.407V354.407H620.94V363.407H618.69ZM616.44 365.657V363.407H614.19V356.657H616.44V363.407H618.69V365.657H616.44ZM624.72 365.657V354.407H631.47V356.657H626.97V358.907H631.47V361.157H626.97V363.407H631.47V365.657H624.72ZM635.25 365.657V354.407H642V356.657H637.5V358.907H642V361.157H637.5V363.407H642V365.657H635.25ZM645.78 365.657V354.407H648.03V356.657H650.28V358.907H652.53V361.157H654.78V354.407H657.03V365.657H654.78V363.407H652.53V361.157H650.28V358.907H648.03V365.657H645.78ZM671.34 356.657V354.407H678.09V356.657H671.34ZM675.84 363.407V361.157H671.34V358.907H669.09V356.657H671.34V358.907H675.84V361.157H678.09V363.407H675.84ZM669.09 365.657V363.407H675.84V365.657H669.09ZM681.87 365.657V354.407H688.62V356.657H684.12V358.907H688.62V361.157H684.12V363.407H688.62V365.657H681.87ZM692.4 365.657V354.407H694.65V363.407H699.15V365.657H692.4ZM702.93 365.657V354.407H705.18V363.407H709.68V365.657H702.93ZM713.46 365.657V354.407H720.21V356.657H715.71V358.907H720.21V361.157H715.71V363.407H720.21V365.657H713.46ZM723.99 365.657V354.407H730.74V356.657H732.99V358.907H730.74V363.407H732.99V365.657H730.74V363.407H728.49V361.157H726.24V365.657H723.99ZM726.24 358.907H730.65V356.657H726.24V358.907ZM739.02 356.657V354.407H745.77V356.657H739.02ZM743.52 363.407V361.157H739.02V358.907H736.77V356.657H739.02V358.907H743.52V361.157H745.77V363.407H743.52ZM736.77 365.657V363.407H743.52V365.657H736.77ZM751.8 365.657V363.407H754.05V365.657H751.8ZM749.55 367.907V365.657H751.8V367.907H749.55ZM768.36 356.657V354.407H775.11V356.657H768.36ZM772.86 363.407V361.157H768.36V358.907H766.11V356.657H768.36V358.907H772.86V361.157H775.11V363.407H772.86ZM766.11 365.657V363.407H772.86V365.657H766.11ZM781.14 365.657V356.657H778.89V354.407H785.64V356.657H783.39V365.657H781.14ZM789.42 365.657V356.657H791.67V354.407H796.17V356.657H798.42V365.657H796.17V361.157H791.67V365.657H789.42ZM791.67 358.907H796.17V356.747H791.67V358.907ZM802.2 365.657V354.407H804.45V358.907H806.7V361.157H808.95V363.407H811.2V365.657H808.95V363.407H806.7V361.157H804.45V365.657H802.2ZM808.95 356.657V354.407H811.2V356.657H808.95ZM806.7 358.907V356.657H808.95V358.907H806.7ZM814.98 365.657V354.407H821.73V356.657H817.23V358.907H821.73V361.157H817.23V363.407H821.73V365.657H814.98ZM825.51 365.657V354.407H832.26V356.657H834.51V358.907H832.26V363.407H834.51V365.657H832.26V363.407H830.01V361.157H827.76V365.657H825.51ZM827.76 358.907H832.17V356.657H827.76V358.907ZM840.54 356.657V354.407H847.29V356.657H840.54ZM845.04 363.407V361.157H840.54V358.907H838.29V356.657H840.54V358.907H845.04V361.157H847.29V363.407H845.04ZM838.29 365.657V363.407H845.04V365.657H838.29ZM351.75 390.907V388.657H349.5V386.407H347.25V384.157H349.5V381.907H347.25V379.657H349.5V377.407H351.75V375.157H354V377.407H356.25V379.657H349.5V381.907H354V384.157H349.5V386.407H356.25V388.657H354V390.907H351.75ZM368.31 388.657V377.407H375.06V379.657H377.31V381.907H375.06V384.157H370.56V388.657H368.31ZM370.56 381.907H374.97V379.657H370.56V381.907ZM381.09 388.657V379.657H383.34V377.407H387.84V379.657H390.09V388.657H387.84V384.157H383.34V388.657H381.09ZM383.34 381.907H387.84V379.747H383.34V381.907ZM396.12 388.657V379.657H393.87V377.407H400.62V379.657H398.37V388.657H396.12ZM404.4 388.657V377.407H411.15V379.657H413.4V381.907H411.15V386.407H413.4V388.657H411.15V386.407H408.9V384.157H406.65V388.657H404.4ZM406.65 381.907H411.06V379.657H406.65V381.907ZM419.43 388.657V386.407H417.18V379.657H419.43V377.407H423.93V379.657H426.18V386.407H423.93V388.657H419.43ZM419.43 386.317H423.93V379.747H419.43V386.317ZM429.96 388.657V377.407H432.21V379.657H434.46V381.907H436.71V384.157H438.96V377.407H441.21V388.657H438.96V386.407H436.71V384.157H434.46V381.907H432.21V388.657H429.96ZM447.24 379.657V377.407H453.99V379.657H447.24ZM451.74 386.407V384.157H447.24V381.907H444.99V379.657H447.24V381.907H451.74V384.157H453.99V386.407H451.74ZM444.99 388.657V386.407H451.74V388.657H444.99ZM457.77 388.657V386.407H460.02V388.657H457.77ZM472.08 388.657V377.407H474.33V386.407H478.83V388.657H472.08ZM482.61 388.657V377.407H484.86V388.657H482.61ZM495.39 390.907V388.657H490.89V386.407H488.64V379.657H490.89V377.407H495.39V379.657H497.64V386.407H495.39V388.657H497.64V390.907H495.39ZM490.89 386.317H495.39V379.747H490.89V386.317ZM503.67 388.657V386.407H501.42V377.407H503.67V386.407H508.17V388.657H503.67ZM508.17 386.407V377.407H510.42V386.407H508.17ZM514.2 388.657V377.407H516.45V388.657H514.2ZM520.23 388.657V377.407H526.98V379.657H529.23V386.407H526.98V388.657H520.23ZM522.48 386.407H526.89V379.657H522.48V386.407ZM533.01 388.657V377.407H535.26V388.657H533.01ZM541.29 388.657V379.657H539.04V377.407H545.79V379.657H543.54V388.657H541.29ZM554.07 388.657V381.907H551.82V379.657H549.57V377.407H551.82V379.657H554.07V381.907H556.32V388.657H554.07ZM558.57 379.657V377.407H560.82V379.657H558.57ZM556.32 381.907V379.657H558.57V381.907H556.32ZM575.13 379.657V377.407H581.88V379.657H575.13ZM579.63 386.407V384.157H575.13V381.907H572.88V379.657H575.13V381.907H579.63V384.157H581.88V386.407H579.63ZM572.88 388.657V386.407H579.63V388.657H572.88ZM587.91 388.657V379.657H585.66V377.407H592.41V379.657H590.16V388.657H587.91ZM596.19 388.657V379.657H598.44V377.407H602.94V379.657H605.19V388.657H602.94V384.157H598.44V388.657H596.19ZM598.44 381.907H602.94V379.747H598.44V381.907ZM613.47 388.657V381.907H611.22V379.657H608.97V377.407H611.22V379.657H613.47V381.907H615.72V388.657H613.47ZM617.97 379.657V377.407H620.22V379.657H617.97ZM615.72 381.907V379.657H617.97V381.907H615.72ZM626.25 379.657V377.407H633V379.657H626.25ZM630.75 386.407V384.157H626.25V381.907H624V379.657H626.25V381.907H630.75V384.157H633V386.407H630.75ZM624 388.657V386.407H630.75V388.657H624ZM645.06 388.657V377.407H647.31V388.657H645.06ZM651.09 388.657V377.407H653.34V379.657H655.59V381.907H657.84V384.157H660.09V377.407H662.34V388.657H660.09V386.407H657.84V384.157H655.59V381.907H653.34V388.657H651.09ZM676.65 388.657V379.657H674.4V377.407H681.15V379.657H678.9V388.657H676.65ZM684.93 388.657V377.407H687.18V381.907H691.68V377.407H693.93V388.657H691.68V384.157H687.18V388.657H684.93ZM697.71 388.657V377.407H704.46V379.657H699.96V381.907H704.46V384.157H699.96V386.407H704.46V388.657H697.71ZM718.77 379.657V377.407H725.52V379.657H718.77ZM723.27 386.407V384.157H718.77V381.907H716.52V379.657H718.77V381.907H723.27V384.157H725.52V386.407H723.27ZM716.52 388.657V386.407H723.27V388.657H716.52ZM733.8 388.657V381.907H731.55V379.657H729.3V377.407H731.55V379.657H733.8V381.907H736.05V388.657H733.8ZM738.3 379.657V377.407H740.55V379.657H738.3ZM736.05 381.907V379.657H738.3V381.907H736.05ZM746.58 379.657V377.407H753.33V379.657H746.58ZM751.08 386.407V384.157H746.58V381.907H744.33V379.657H746.58V381.907H751.08V384.157H753.33V386.407H751.08ZM744.33 388.657V386.407H751.08V388.657H744.33ZM759.36 388.657V379.657H757.11V377.407H763.86V379.657H761.61V388.657H759.36ZM767.64 388.657V377.407H774.39V379.657H769.89V381.907H774.39V384.157H769.89V386.407H774.39V388.657H767.64ZM778.17 388.657V377.407H780.42V379.657H782.67V381.907H784.92V384.157H782.67V381.907H780.42V388.657H778.17ZM787.17 388.657V381.907H784.92V379.657H787.17V377.407H789.42V388.657H787.17ZM793.2 388.657V386.407H795.45V388.657H793.2Z" fill="black"/>
<rect width="187" height="60" transform="translate(77.1309 425.99)" fill="#131200"/>
<path d="M110.451 465.49V450.49H122.451V453.49H125.451V456.49H122.451V459.49H116.451V465.49H110.451ZM116.451 456.49H119.331V453.49H116.451V456.49ZM130.011 465.49V450.49H136.011V456.49H139.011V450.49H145.011V465.49H139.011V459.49H136.011V465.49H130.011ZM149.571 465.49V453.49H152.571V450.49H161.571V453.49H164.571V465.49H158.571V459.49H155.571V465.49H149.571ZM155.571 456.49H158.571V453.61H155.571V456.49ZM169.131 465.49V462.49H178.131V459.49H172.131V456.49H169.131V453.49H172.131V450.49H184.131V453.49H175.131V456.49H181.131V459.49H184.131V462.49H181.131V465.49H169.131ZM188.691 465.49V450.49H200.691V453.49H194.691V456.49H200.691V459.49H194.691V462.49H200.691V465.49H188.691ZM215.811 465.49V462.49H224.811V459.49H215.811V450.49H230.811V453.49H221.811V456.49H227.811V459.49H230.811V462.49H227.811V465.49H215.811Z" fill="black"/>
<path d="M110.451 465.49V450.49H122.451V453.49H125.451V456.49H122.451V459.49H116.451V465.49H110.451ZM116.451 456.49H119.331V453.49H116.451V456.49ZM130.011 465.49V450.49H136.011V456.49H139.011V450.49H145.011V465.49H139.011V459.49H136.011V465.49H130.011ZM149.571 465.49V453.49H152.571V450.49H161.571V453.49H164.571V465.49H158.571V459.49H155.571V465.49H149.571ZM155.571 456.49H158.571V453.61H155.571V456.49ZM169.131 465.49V462.49H178.131V459.49H172.131V456.49H169.131V453.49H172.131V450.49H184.131V453.49H175.131V456.49H181.131V459.49H184.131V462.49H181.131V465.49H169.131ZM188.691 465.49V450.49H200.691V453.49H194.691V456.49H200.691V459.49H194.691V462.49H200.691V465.49H188.691ZM215.811 465.49V462.49H224.811V459.49H215.811V450.49H230.811V453.49H221.811V456.49H227.811V459.49H230.811V462.49H227.811V465.49H215.811Z" fill="#87B497"/>
<path d="M347.381 451.99V440.74H356.381V442.99H358.631V449.74H356.381V451.99H347.381ZM351.881 449.74H354.041V442.99H351.881V449.74ZM362.411 451.99V442.99H364.661V440.74H371.411V442.99H373.661V451.99H369.161V447.49H366.911V451.99H362.411ZM366.911 445.24H369.161V443.08H366.911V445.24ZM379.691 451.99V449.74H377.441V442.99H379.691V440.74H386.441V442.99H388.691V449.74H386.441V451.99H379.691ZM381.941 449.65H384.191V443.08H381.941V449.65ZM403.001 451.99V449.74H400.751V442.99H403.001V440.74H412.001V442.99H405.251V449.74H407.501V445.24H412.001V449.74H409.751V451.99H403.001ZM418.031 451.99V449.74H415.781V442.99H418.031V440.74H424.781V442.99H427.031V449.74H424.781V451.99H418.031ZM420.281 449.65H422.531V443.08H420.281V449.65ZM435.311 451.99V449.74H433.061V445.24H430.811V440.74H435.311V445.24H439.811V440.74H444.311V445.24H442.061V449.74H439.811V451.99H435.311ZM448.091 451.99V440.74H457.091V442.99H452.591V445.24H457.091V447.49H452.591V449.74H457.091V451.99H448.091ZM460.871 451.99V440.74H469.871V442.99H472.121V445.24H469.871V449.74H472.121V451.99H467.621V449.74H465.371V451.99H460.871ZM465.371 445.24H467.621V442.99H465.371V445.24ZM475.901 451.99V440.74H480.401V442.99H482.651V445.24H484.901V440.74H489.401V451.99H484.901V449.74H482.651V447.49H480.401V451.99H475.901ZM493.181 451.99V442.99H495.431V440.74H502.181V442.99H504.431V451.99H499.931V447.49H497.681V451.99H493.181ZM497.681 445.24H499.931V443.08H497.681V445.24ZM508.211 451.99V440.74H512.711V442.99H514.961V445.24H517.211V440.74H521.711V451.99H517.211V449.74H514.961V447.49H512.711V451.99H508.211ZM527.741 451.99V449.74H525.491V442.99H527.741V440.74H534.491V442.99H536.741V445.24H532.241V442.99H529.991V449.74H532.241V447.49H536.741V449.74H534.491V451.99H527.741ZM540.521 451.99V440.74H549.521V442.99H545.021V445.24H549.521V447.49H545.021V449.74H549.521V451.99H540.521ZM566.081 454.24V451.99H563.831V449.74H561.581V447.49H563.831V445.24H561.581V442.99H563.831V440.74H566.081V438.49H570.581V440.74H572.831V442.99H566.081V445.24H570.581V447.49H566.081V449.74H572.831V451.99H570.581V454.24H566.081ZM587.141 451.99V449.74H584.891V442.99H587.141V440.74H596.141V442.99H589.391V449.74H591.641V445.24H596.141V449.74H593.891V451.99H587.141ZM599.921 451.99V442.99H602.171V440.74H608.921V442.99H611.171V451.99H606.671V447.49H604.421V451.99H599.921ZM604.421 445.24H606.671V443.08H604.421V445.24ZM614.951 451.99V440.74H619.451V442.99H623.951V440.74H628.451V451.99H623.951V447.49H619.451V451.99H614.951ZM632.231 451.99V440.74H641.231V442.99H636.731V445.24H641.231V447.49H636.731V449.74H641.231V451.99H632.231ZM653.291 451.99V449.74H660.041V447.49H655.541V445.24H653.291V442.99H655.541V440.74H664.541V442.99H657.791V445.24H662.291V447.49H664.541V449.74H662.291V451.99H653.291ZM670.571 451.99V442.99H668.321V440.74H677.321V442.99H675.071V451.99H670.571ZM683.351 451.99V449.74H681.101V440.74H685.601V449.74H687.851V440.74H692.351V449.74H690.101V451.99H683.351ZM696.131 451.99V440.74H705.131V442.99H707.381V449.74H705.131V451.99H696.131ZM700.631 449.74H702.791V442.99H700.631V449.74ZM711.161 451.99V440.74H715.661V451.99H711.161ZM721.691 451.99V449.74H719.441V442.99H721.691V440.74H728.441V442.99H730.691V449.74H728.441V451.99H721.691ZM723.941 449.65H726.191V443.08H723.941V449.65ZM365.633 470.94C365.813 470.556 365.987 470.22 366.155 469.932C366.335 469.644 366.509 469.404 366.677 469.212H356.183V468.456H366.677C366.509 468.252 366.335 468.006 366.155 467.718C365.987 467.43 365.813 467.1 365.633 466.728H366.263C367.019 467.604 367.811 468.252 368.639 468.672V468.996C367.811 469.404 367.019 470.052 366.263 470.94H365.633ZM381.221 474.99V463.74H387.971V465.99H390.221V468.24H387.971V470.49H383.471V474.99H381.221ZM383.471 468.24H387.881V465.99H383.471V468.24ZM394.001 474.99V465.99H396.251V463.74H400.751V465.99H403.001V474.99H400.751V470.49H396.251V474.99H394.001ZM396.251 468.24H400.751V466.08H396.251V468.24ZM409.031 474.99V465.99H406.781V463.74H413.531V465.99H411.281V474.99H409.031ZM417.311 474.99V463.74H424.061V465.99H426.311V468.24H424.061V472.74H426.311V474.99H424.061V472.74H421.811V470.49H419.561V474.99H417.311ZM419.561 468.24H423.971V465.99H419.561V468.24ZM432.341 474.99V472.74H430.091V465.99H432.341V463.74H436.841V465.99H439.091V472.74H436.841V474.99H432.341ZM432.341 472.65H436.841V466.08H432.341V472.65ZM442.871 474.99V463.74H445.121V465.99H447.371V468.24H449.621V470.49H451.871V463.74H454.121V474.99H451.871V472.74H449.621V470.49H447.371V468.24H445.121V474.99H442.871ZM460.151 465.99V463.74H466.901V465.99H460.151ZM464.651 472.74V470.49H460.151V468.24H457.901V465.99H460.151V468.24H464.651V470.49H466.901V472.74H464.651ZM457.901 474.99V472.74H464.651V474.99H457.901ZM481.211 474.99V465.99H478.961V463.74H485.711V465.99H483.461V474.99H481.211ZM489.491 474.99V465.99H491.741V463.74H496.241V465.99H498.491V474.99H496.241V470.49H491.741V474.99H489.491ZM491.741 468.24H496.241V466.08H491.741V468.24ZM502.271 474.99V463.74H504.521V468.24H506.771V470.49H509.021V472.74H511.271V474.99H509.021V472.74H506.771V470.49H504.521V474.99H502.271ZM509.021 465.99V463.74H511.271V465.99H509.021ZM506.771 468.24V465.99H509.021V468.24H506.771ZM515.051 474.99V463.74H521.801V465.99H517.301V468.24H521.801V470.49H517.301V472.74H521.801V474.99H515.051ZM533.861 474.99V463.74H540.611V465.99H542.861V472.74H540.611V474.99H533.861ZM536.111 472.74H540.521V465.99H536.111V472.74ZM546.641 474.99V465.99H548.891V463.74H553.391V465.99H555.641V474.99H553.391V470.49H548.891V474.99H546.641ZM548.891 468.24H553.391V466.08H548.891V468.24ZM561.671 474.99V472.74H559.421V465.99H561.671V463.74H566.171V465.99H568.421V472.74H566.171V474.99H561.671ZM561.671 472.65H566.171V466.08H561.671V472.65ZM582.731 465.99V463.74H589.481V465.99H582.731ZM587.231 472.74V470.49H582.731V468.24H580.481V465.99H582.731V468.24H587.231V470.49H589.481V472.74H587.231ZM580.481 474.99V472.74H587.231V474.99H580.481ZM593.261 474.99V463.74H600.011V465.99H595.511V468.24H600.011V470.49H595.511V472.74H600.011V474.99H593.261ZM603.791 474.99V465.99H606.041V463.74H610.541V465.99H612.791V474.99H610.541V470.49H606.041V474.99H603.791ZM606.041 468.24H610.541V466.08H606.041V468.24ZM618.821 474.99V465.99H616.571V463.74H623.321V465.99H621.071V474.99H618.821ZM629.351 465.99V463.74H636.101V465.99H629.351ZM633.851 472.74V470.49H629.351V468.24H627.101V465.99H629.351V468.24H633.851V470.49H636.101V472.74H633.851ZM627.101 474.99V472.74H633.851V474.99H627.101ZM639.881 474.99V472.74H642.131V474.99H639.881ZM656.441 474.99V465.99H654.191V463.74H660.941V465.99H658.691V474.99H656.441ZM664.721 474.99V463.74H666.971V468.24H671.471V463.74H673.721V474.99H671.471V470.49H666.971V474.99H664.721ZM677.501 474.99V463.74H684.251V465.99H679.751V468.24H684.251V470.49H679.751V472.74H684.251V474.99H677.501ZM703.061 468.24V465.99H698.561V463.74H703.061V465.99H705.311V468.24H703.061ZM698.561 474.99V472.74H696.311V465.99H698.561V472.74H703.061V474.99H698.561ZM703.061 472.74V470.49H705.311V472.74H703.061ZM711.341 474.99V472.74H709.091V465.99H711.341V463.74H715.841V465.99H718.091V472.74H715.841V474.99H711.341ZM711.341 472.65H715.841V466.08H711.341V472.65ZM721.871 474.99V463.74H724.121V465.99H726.371V468.24H728.621V470.49H726.371V468.24H724.121V474.99H721.871ZM730.871 474.99V468.24H728.621V465.99H730.871V463.74H733.121V474.99H730.871ZM736.901 474.99V463.74H739.151V465.99H741.401V468.24H743.651V470.49H741.401V468.24H739.151V474.99H736.901ZM745.901 474.99V468.24H743.651V465.99H745.901V463.74H748.151V474.99H745.901ZM754.181 474.99V472.74H751.931V463.74H754.181V472.74H758.681V474.99H754.181ZM758.681 472.74V463.74H760.931V472.74H758.681ZM764.711 474.99V463.74H766.961V465.99H769.211V468.24H771.461V470.49H773.711V463.74H775.961V474.99H773.711V472.74H771.461V470.49H769.211V468.24H766.961V474.99H764.711ZM779.741 474.99V463.74H781.991V474.99H779.741ZM788.021 474.99V465.99H785.771V463.74H792.521V465.99H790.271V474.99H788.021ZM800.801 474.99V468.24H798.551V465.99H796.301V463.74H798.551V465.99H800.801V468.24H803.051V474.99H800.801ZM805.301 465.99V463.74H807.551V465.99H805.301ZM803.051 468.24V465.99H805.301V468.24H803.051ZM821.861 465.99V463.74H828.611V465.99H821.861ZM826.361 472.74V470.49H821.861V468.24H819.611V465.99H821.861V468.24H826.361V470.49H828.611V472.74H826.361ZM819.611 474.99V472.74H826.361V474.99H819.611ZM832.391 474.99V463.74H834.641V468.24H839.141V463.74H841.391V474.99H839.141V470.49H834.641V474.99H832.391ZM845.171 474.99V465.99H847.421V463.74H851.921V465.99H854.171V474.99H851.921V470.49H847.421V474.99H845.171ZM847.421 468.24H851.921V466.08H847.421V468.24ZM857.951 474.99V463.74H864.701V465.99H866.951V468.24H864.701V470.49H860.201V474.99H857.951ZM860.201 468.24H864.611V465.99H860.201V468.24ZM870.731 474.99V463.74H877.481V465.99H872.981V468.24H877.481V470.49H872.981V472.74H877.481V474.99H870.731ZM883.511 465.99V463.74H890.261V465.99H883.511ZM888.011 472.74V470.49H883.511V468.24H881.261V465.99H883.511V468.24H888.011V470.49H890.261V472.74H888.011ZM881.261 474.99V472.74H888.011V474.99H881.261ZM902.321 474.99V463.74H909.071V465.99H904.571V468.24H909.071V470.49H904.571V474.99H902.321ZM915.101 474.99V472.74H912.851V463.74H915.101V472.74H919.601V474.99H915.101ZM919.601 472.74V463.74H921.851V472.74H919.601ZM927.881 474.99V465.99H925.631V463.74H932.381V465.99H930.131V474.99H927.881ZM938.411 474.99V472.74H936.161V463.74H938.411V472.74H942.911V474.99H938.411ZM942.911 472.74V463.74H945.161V472.74H942.911ZM948.941 474.99V463.74H955.691V465.99H957.941V468.24H955.691V472.74H957.941V474.99H955.691V472.74H953.441V470.49H951.191V474.99H948.941ZM951.191 468.24H955.601V465.99H951.191V468.24ZM961.721 474.99V463.74H968.471V465.99H963.971V468.24H968.471V470.49H963.971V472.74H968.471V474.99H961.721ZM982.781 465.99V463.74H989.531V465.99H982.781ZM980.531 472.74V465.99H982.781V472.74H980.531ZM987.281 472.74V470.49H985.031V468.24H989.531V472.74H987.281ZM982.781 474.99V472.74H987.281V474.99H982.781ZM993.311 474.99V465.99H995.561V463.74H1000.06V465.99H1002.31V474.99H1000.06V470.49H995.561V474.99H993.311ZM995.561 468.24H1000.06V466.08H995.561V468.24ZM1006.09 474.99V463.74H1008.34V465.99H1010.59V468.24H1012.84V470.49H1010.59V468.24H1008.34V474.99H1006.09ZM1015.09 474.99V468.24H1012.84V465.99H1015.09V463.74H1017.34V474.99H1015.09ZM1021.12 474.99V463.74H1027.87V465.99H1023.37V468.24H1027.87V470.49H1023.37V472.74H1027.87V474.99H1021.12ZM1033.9 465.99V463.74H1040.65V465.99H1033.9ZM1038.4 472.74V470.49H1033.9V468.24H1031.65V465.99H1033.9V468.24H1038.4V470.49H1040.65V472.74H1038.4ZM1031.65 474.99V472.74H1038.4V474.99H1031.65ZM1057.21 477.24V474.99H1054.96V472.74H1052.71V470.49H1054.96V468.24H1052.71V465.99H1054.96V463.74H1057.21V461.49H1059.46V463.74H1061.71V465.99H1054.96V468.24H1059.46V470.49H1054.96V472.74H1061.71V474.99H1059.46V477.24H1057.21ZM1073.77 474.99V463.74H1076.02V465.99H1078.27V468.24H1080.52V470.49H1078.27V468.24H1076.02V474.99H1073.77ZM1082.77 474.99V468.24H1080.52V465.99H1082.77V463.74H1085.02V474.99H1082.77ZM1088.8 474.99V463.74H1095.55V465.99H1091.05V468.24H1095.55V470.49H1091.05V472.74H1095.55V474.99H1088.8ZM1106.08 468.24V465.99H1101.58V463.74H1106.08V465.99H1108.33V468.24H1106.08ZM1101.58 474.99V472.74H1099.33V465.99H1101.58V472.74H1106.08V474.99H1101.58ZM1106.08 472.74V470.49H1108.33V472.74H1106.08ZM1112.11 474.99V463.74H1114.36V468.24H1118.86V463.74H1121.11V474.99H1118.86V470.49H1114.36V474.99H1112.11ZM1124.89 474.99V465.99H1127.14V463.74H1131.64V465.99H1133.89V474.99H1131.64V470.49H1127.14V474.99H1124.89ZM1127.14 468.24H1131.64V466.08H1127.14V468.24ZM1137.67 474.99V463.74H1139.92V465.99H1142.17V468.24H1144.42V470.49H1146.67V463.74H1148.92V474.99H1146.67V472.74H1144.42V470.49H1142.17V468.24H1139.92V474.99H1137.67ZM1152.7 474.99V463.74H1154.95V474.99H1152.7ZM1165.48 468.24V465.99H1160.98V463.74H1165.48V465.99H1167.73V468.24H1165.48ZM1160.98 474.99V472.74H1158.73V465.99H1160.98V472.74H1165.48V474.99H1160.98ZM1165.48 472.74V470.49H1167.73V472.74H1165.48ZM1173.76 465.99V463.74H1180.51V465.99H1173.76ZM1178.26 472.74V470.49H1173.76V468.24H1171.51V465.99H1173.76V468.24H1178.26V470.49H1180.51V472.74H1178.26ZM1171.51 474.99V472.74H1178.26V474.99H1171.51ZM1184.29 474.99V472.74H1186.54V474.99H1184.29Z" fill="black"/>
<path d="M166.318 107.441C167.099 108.222 168.366 108.222 169.147 107.441L181.875 94.7127C182.656 93.9316 182.656 92.6653 181.875 91.8842C181.094 91.1032 179.827 91.1032 179.046 91.8842L167.732 103.198L156.419 91.8842C155.638 91.1032 154.371 91.1032 153.59 91.8842C152.809 92.6653 152.809 93.9316 153.59 94.7127L166.318 107.441ZM167.732 59.4639H165.732V69.9959H167.732H169.732V59.4639H167.732ZM167.732 72.2131H165.732V93.2771H167.732H169.732V72.2131H167.732ZM167.732 95.4944H165.732V106.026H167.732H169.732V95.4944H167.732Z" fill="#131200"/>
<path d="M166.318 218.186C167.099 218.967 168.366 218.967 169.147 218.186L181.875 205.458C182.656 204.677 182.656 203.41 181.875 202.629C181.094 201.848 179.827 201.848 179.046 202.629L167.732 213.943L156.419 202.629C155.638 201.848 154.371 201.848 153.59 202.629C152.809 203.41 152.809 204.677 153.59 205.458L166.318 218.186ZM167.732 170.209H165.732V180.741H167.732H169.732V170.209H167.732ZM167.732 182.958H165.732V204.022H167.732H169.732V182.958H167.732ZM167.732 206.239H165.732V216.771H167.732H169.732V206.239H167.732Z" fill="#131200"/>
<path d="M166.318 328.931C167.099 329.712 168.366 329.712 169.147 328.931L181.875 316.203C182.656 315.422 182.656 314.156 181.875 313.374C181.094 312.593 179.827 312.593 179.046 313.374L167.732 324.688L156.419 313.374C155.638 312.593 154.371 312.593 153.59 313.374C152.809 314.156 152.809 315.422 153.59 316.203L166.318 328.931ZM167.732 280.954H165.732V291.486H167.732H169.732V280.954H167.732ZM167.732 293.703H165.732V314.767H167.732H169.732V293.703H167.732ZM167.732 316.985H165.732V327.517H167.732H169.732V316.985H167.732Z" fill="#131200"/>
<path d="M166.318 427.404C167.099 428.185 168.366 428.185 169.147 427.404L181.875 414.677C182.656 413.895 182.656 412.629 181.875 411.848C181.094 411.067 179.827 411.067 179.046 411.848L167.732 423.162L156.419 411.848C155.638 411.067 154.371 411.067 153.59 411.848C152.809 412.629 152.809 413.895 153.59 414.677L166.318 427.404ZM167.732 388.157L165.732 388.157L165.732 396.715L167.732 396.715L169.732 396.715L169.732 388.157L167.732 388.157ZM167.732 398.516L165.732 398.516L165.732 415.631L167.732 415.631L169.732 415.631L169.732 398.516L167.732 398.516ZM167.732 417.433L165.732 417.433L165.732 425.99L167.732 425.99L169.732 425.99L169.732 417.433L167.732 417.433Z" fill="#131200"/>
<path d="M60.0757 31.0754C60.8568 30.2943 60.8568 29.028 60.0757 28.2469L47.3478 15.519C46.5668 14.738 45.3004 14.738 44.5194 15.519C43.7383 16.3001 43.7383 17.5664 44.5194 18.3474L55.8331 29.6612L44.5194 40.9749C43.7383 41.7559 43.7383 43.0222 44.5194 43.8033C45.3004 44.5843 46.5667 44.5843 47.3478 43.8033L60.0757 31.0754ZM167.732 496.369L167.732 498.369L169.732 498.369L169.732 496.369L167.732 496.369ZM30.1211 496.369L28.1211 496.369L28.1211 498.369L30.1211 498.369L30.1211 496.369ZM30.1211 29.6611L30.1211 27.6611L28.1211 27.6611L28.1211 29.6611L30.1211 29.6611ZM58.6615 29.6612L58.6615 27.6612L45.7504 27.6611L45.7504 29.6611L45.7504 31.6611L58.6615 31.6612L58.6615 29.6612ZM43.0322 29.6611L43.0322 27.6611L30.1211 27.6611L30.1211 29.6611L30.1211 31.6611L43.0322 31.6611L43.0322 29.6611ZM30.1211 29.6611L28.1211 29.6611L28.1211 39.2579L30.1211 39.2579L32.1211 39.2579L32.1211 29.6611L30.1211 29.6611ZM30.1211 41.2783L28.1211 41.2783L28.1211 60.4719L30.1211 60.4719L32.1211 60.4719L32.1211 41.2783L30.1211 41.2783ZM30.1211 62.4923L28.1211 62.4923L28.1211 81.6859L30.1211 81.6859L32.1211 81.6859L32.1211 62.4923L30.1211 62.4923ZM30.1211 83.7063L28.1211 83.7063L28.1211 102.9L30.1211 102.9L32.1211 102.9L32.1211 83.7063L30.1211 83.7063ZM30.1211 104.92L28.1211 104.92L28.1211 124.114L30.1211 124.114L32.1211 124.114L32.1211 104.92L30.1211 104.92ZM30.1211 126.134L28.1211 126.134L28.1211 145.328L30.1211 145.328L32.1211 145.328L32.1211 126.134L30.1211 126.134ZM30.1211 147.348L28.1211 147.348L28.1211 166.542L30.1211 166.542L32.1211 166.542L32.1211 147.348L30.1211 147.348ZM30.1211 168.562L28.1211 168.562L28.1211 187.756L30.1211 187.756L32.1211 187.756L32.1211 168.562L30.1211 168.562ZM30.1211 189.776L28.1211 189.776L28.1211 208.97L30.1211 208.97L32.1211 208.97L32.1211 189.776L30.1211 189.776ZM30.1211 210.99L28.1211 210.99L28.1211 230.184L30.1211 230.184L32.1211 230.184L32.1211 210.99L30.1211 210.99ZM30.1211 232.204L28.1211 232.204L28.1211 251.398L30.1211 251.398L32.1211 251.398L32.1211 232.204L30.1211 232.204ZM30.1211 253.418L28.1211 253.418L28.1211 272.612L30.1211 272.612L32.1211 272.612L32.1211 253.418L30.1211 253.418ZM30.1211 274.632L28.1211 274.632L28.1211 293.826L30.1211 293.826L32.1211 293.826L32.1211 274.632L30.1211 274.632ZM30.1211 295.846L28.1211 295.846L28.1211 315.04L30.1211 315.04L32.1211 315.04L32.1211 295.846L30.1211 295.846ZM30.1211 317.06L28.1211 317.06L28.1211 336.254L30.1211 336.254L32.1211 336.254L32.1211 317.06L30.1211 317.06ZM30.1211 338.274L28.1211 338.274L28.1211 357.468L30.1211 357.468L32.1211 357.468L32.1211 338.274L30.1211 338.274ZM30.1211 359.488L28.1211 359.488L28.1211 378.682L30.1211 378.682L32.1211 378.682L32.1211 359.488L30.1211 359.488ZM30.1211 380.702L28.1211 380.702L28.1211 399.896L30.1211 399.896L32.1211 399.896L32.1211 380.702L30.1211 380.702ZM30.1211 401.916L28.1211 401.916L28.1211 421.11L30.1211 421.11L32.1211 421.11L32.1211 401.916L30.1211 401.916ZM30.1211 423.13L28.1211 423.13L28.1211 442.324L30.1211 442.324L32.1211 442.324L32.1211 423.13L30.1211 423.13ZM30.1211 444.344L28.1211 444.344L28.1211 463.538L30.1211 463.538L32.1211 463.538L32.1211 444.344L30.1211 444.344ZM30.1211 465.558L28.1211 465.558L28.1211 484.752L30.1211 484.752L32.1211 484.752L32.1211 465.558L30.1211 465.558ZM30.1211 486.772L28.1211 486.772L28.1211 496.369L30.1211 496.369L32.1211 496.369L32.1211 486.772L30.1211 486.772ZM30.1211 496.369L30.1211 498.369L39.0144 498.369L39.0144 496.369L39.0144 494.369L30.1211 494.369L30.1211 496.369ZM40.8866 496.369L40.8866 498.369L58.6731 498.369L58.6731 496.369L58.6731 494.369L40.8866 494.369L40.8866 496.369ZM60.5454 496.369L60.5454 498.369L78.3319 498.369L78.3319 496.369L78.3319 494.369L60.5454 494.369L60.5454 496.369ZM80.2042 496.369L80.2042 498.369L97.9907 498.369L97.9907 496.369L97.9907 494.369L80.2042 494.369L80.2042 496.369ZM99.8629 496.369L99.8629 498.369L117.649 498.369L117.649 496.369L117.649 494.369L99.8629 494.369L99.8629 496.369ZM119.522 496.369L119.522 498.369L137.308 498.369L137.308 496.369L137.308 494.369L119.522 494.369L119.522 496.369ZM139.18 496.369L139.18 498.369L156.967 498.369L156.967 496.369L156.967 494.369L139.18 494.369L139.18 496.369ZM158.839 496.369L158.839 498.369L167.732 498.369L167.732 496.369L167.732 494.369L158.839 494.369L158.839 496.369ZM167.732 496.369L169.732 496.369L169.732 489.52L167.732 489.52L165.732 489.52L165.732 496.369L167.732 496.369ZM167.732 488.078L169.732 488.078L169.732 481.228L167.732 481.228L165.732 481.228L165.732 488.078L167.732 488.078Z" fill="#131200"/>
<rect width="135" height="51" transform="translate(0.894531 338.123) rotate(-90)" fill="#87B497"/>
<path d="M35.8945 315.123L20.8945 315.123L20.8945 306.123L23.8945 306.123L23.8945 303.123L26.8945 303.123L26.8945 306.123L32.8945 306.123L32.8945 303.123L35.8945 303.123L35.8945 306.123L32.8945 306.123L32.8945 309.123L29.8945 309.123L29.8945 312.123L35.8945 312.123L35.8945 315.123ZM26.8945 312.123L26.8945 306.243L23.8945 306.243L23.8945 312.123L26.8945 312.123ZM35.8945 298.083L20.8945 298.083L20.8945 289.083L23.8945 289.083L23.8945 295.083L26.8945 295.083L26.8945 289.083L29.8945 289.083L29.8945 295.083L32.8945 295.083L32.8945 289.083L35.8945 289.083L35.8945 298.083ZM35.8945 284.043L20.8945 284.043L20.8945 275.043L23.8945 275.043L23.8945 272.043L26.8945 272.043L26.8945 275.043L29.8945 275.043L29.8945 281.043L35.8945 281.043L35.8945 284.043ZM26.8945 281.043L26.8945 275.163L23.8945 275.163L23.8945 281.043L26.8945 281.043ZM35.8945 267.003L20.8945 267.003L20.8945 258.003L23.8945 258.003L23.8945 264.003L26.8945 264.003L26.8945 258.003L29.8945 258.003L29.8945 264.003L32.8945 264.003L32.8945 258.003L35.8945 258.003L35.8945 267.003ZM35.8945 252.963L23.8945 252.963L23.8945 249.963L20.8945 249.963L20.8945 243.963L23.8945 243.963L23.8945 240.963L35.8945 240.963L35.8945 243.963L29.8945 243.963L29.8945 249.963L35.8945 249.963L35.8945 252.963ZM26.8945 249.963L26.8945 243.963L24.0145 243.963L24.0145 249.963L26.8945 249.963ZM35.8945 232.923L23.8945 232.923L23.8945 235.923L20.8945 235.923L20.8945 226.923L23.8945 226.923L23.8945 229.923L35.8945 229.923L35.8945 232.923Z" fill="black"/>
</svg>
