<svg width="201" height="201" viewBox="0 0 201 201" fill="none" xmlns="http://www.w3.org/2000/svg">
<g clip-path="url(#clip0_104_11402)">
<rect width="9.09091" height="9.09091" transform="matrix(8.14215e-08 1 1 -8.14215e-08 91.5117 0.602295)" fill="#131200"/>
<rect width="9.09091" height="9.09091" transform="matrix(8.14215e-08 1 1 -8.14215e-08 82.4209 9.69312)" fill="#131200"/>
<rect width="9.09091" height="9.09091" transform="matrix(8.14215e-08 1 1 -8.14215e-08 100.603 9.69312)" fill="#131200"/>
<rect width="9.09091" height="9.09091" transform="matrix(8.14215e-08 1 1 -8.14215e-08 109.693 18.7844)" fill="#131200"/>
<rect width="9.09091" height="9.09091" transform="matrix(8.14215e-08 1 1 -8.14215e-08 73.3306 18.7839)" fill="#131200"/>
<rect width="9.09091" height="9.09091" transform="matrix(8.14215e-08 1 1 -8.14215e-08 64.2388 36.9661)" fill="#131200"/>
<rect width="9.09091" height="9.09091" transform="matrix(8.14215e-08 1 1 -8.14215e-08 74.2393 82.4204)" fill="#131200"/>
<rect width="9.09091" height="9.09091" transform="matrix(8.14215e-08 1 1 -8.14215e-08 109.694 82.4204)" fill="#131200"/>
<rect width="9.09091" height="9.09091" transform="matrix(8.14215e-08 1 1 -8.14215e-08 74.2393 73.3293)" fill="#131200"/>
<rect width="9.09091" height="9.09091" transform="matrix(8.14215e-08 1 1 -8.14215e-08 109.694 73.3293)" fill="#131200"/>
<rect width="9.09091" height="9.09091" transform="matrix(8.14215e-08 1 1 -8.14215e-08 118.785 36.9658)" fill="#131200"/>
<rect width="9.09091" height="9.09091" transform="matrix(8.14215e-08 1 1 -8.14215e-08 64.2393 127.875)" fill="#131200"/>
<rect width="9.09091" height="9.09091" transform="matrix(8.14215e-08 1 1 -8.14215e-08 73.3301 155.148)" fill="#131200"/>
<rect width="9.09091" height="9.09091" transform="matrix(8.14215e-08 1 1 -8.14215e-08 73.3301 173.33)" fill="#131200"/>
<rect width="9.09091" height="9.09091" transform="matrix(8.14215e-08 1 1 -8.14215e-08 109.694 173.329)" fill="#131200"/>
<rect width="9.09091" height="9.09091" transform="matrix(8.14215e-08 1 1 -8.14215e-08 109.694 182.42)" fill="#131200"/>
<rect width="9.09091" height="9.09091" transform="matrix(8.14215e-08 1 1 -8.14215e-08 109.694 164.239)" fill="#131200"/>
<rect width="9.09091" height="9.09091" transform="matrix(8.14215e-08 1 1 -8.14215e-08 109.694 155.147)" fill="#131200"/>
<rect x="127.875" y="127.875" width="9.09091" height="9.09091" transform="rotate(90 127.875 127.875)" fill="#131200"/>
<rect width="9.09091" height="9.09091" transform="matrix(8.14215e-08 1 1 -8.14215e-08 55.1484 55.1477)" fill="#131200"/>
<rect width="9.09091" height="9.09091" transform="matrix(8.14215e-08 1 1 -8.14215e-08 127.876 55.1475)" fill="#131200"/>
<rect width="9.09091" height="9.09091" transform="matrix(8.14215e-08 1 1 -8.14215e-08 55.1479 73.3298)" fill="#131200"/>
<rect width="9.09091" height="9.09091" transform="matrix(8.14215e-08 1 1 -8.14215e-08 127.876 73.3296)" fill="#131200"/>
<rect width="9.09091" height="9.09091" transform="matrix(8.14215e-08 1 1 -8.14215e-08 55.1489 91.511)" fill="#131200"/>
<rect width="9.09091" height="9.09091" transform="matrix(8.14215e-08 1 1 -8.14215e-08 127.875 91.5112)" fill="#131200"/>
<rect width="9.09091" height="9.09091" transform="matrix(8.14215e-08 1 1 -8.14215e-08 55.1489 109.693)" fill="#131200"/>
<rect width="9.09091" height="9.09091" transform="matrix(8.14215e-08 1 1 -8.14215e-08 127.875 109.693)" fill="#131200"/>
<rect width="9.09091" height="9.09091" transform="matrix(8.14215e-08 1 1 -8.14215e-08 155.149 127.875)" fill="#131200"/>
<rect x="36.9668" y="127.875" width="9.09091" height="9.09091" transform="rotate(90 36.9668 127.875)" fill="#131200"/>
<rect width="9.09091" height="9.09091" transform="matrix(8.14215e-08 1 1 -8.14215e-08 109.693 27.8755)" fill="#131200"/>
<rect width="9.09091" height="9.09091" transform="matrix(8.14215e-08 1 1 -8.14215e-08 73.3306 27.8748)" fill="#131200"/>
<rect width="9.09091" height="9.09091" transform="matrix(8.14215e-08 1 1 -8.14215e-08 64.2388 46.0571)" fill="#131200"/>
<rect width="9.09091" height="9.09091" transform="matrix(8.14215e-08 1 1 -8.14215e-08 74.2393 91.5115)" fill="#131200"/>
<rect width="9.09091" height="9.09091" transform="matrix(8.14215e-08 1 1 -8.14215e-08 109.694 91.5115)" fill="#131200"/>
<rect width="9.09091" height="9.09091" transform="matrix(8.14215e-08 1 1 -8.14215e-08 118.785 46.0569)" fill="#131200"/>
<rect width="9.09091" height="9.09091" transform="matrix(8.14215e-08 1 1 -8.14215e-08 64.2388 136.966)" fill="#131200"/>
<rect width="9.09091" height="9.09091" transform="matrix(8.14215e-08 1 1 -8.14215e-08 73.3301 164.239)" fill="#131200"/>
<rect width="9.09091" height="9.09091" transform="matrix(8.14215e-08 1 1 -8.14215e-08 82.4214 182.42)" fill="#131200"/>
<rect width="9.09091" height="9.09091" transform="matrix(8.14215e-08 1 1 -8.14215e-08 91.5122 173.33)" fill="#131200"/>
<rect width="9.09091" height="9.09091" transform="matrix(8.14215e-08 1 1 -8.14215e-08 91.5117 182.421)" fill="#131200"/>
<rect width="9.09091" height="9.09091" transform="matrix(8.14215e-08 1 1 -8.14215e-08 91.5122 164.239)" fill="#131200"/>
<rect width="9.09091" height="9.09091" transform="matrix(8.14215e-08 1 1 -8.14215e-08 100.604 191.511)" fill="#131200"/>
<rect x="127.875" y="136.966" width="9.09091" height="9.09091" transform="rotate(90 127.875 136.966)" fill="#131200"/>
<rect width="9.09091" height="9.09091" transform="matrix(8.14215e-08 1 1 -8.14215e-08 73.3306 146.057)" fill="#131200"/>
<rect x="118.785" y="146.057" width="9.09091" height="9.09091" transform="rotate(90 118.785 146.057)" fill="#131200"/>
<rect width="9.09091" height="9.09091" transform="matrix(8.14215e-08 1 1 -8.14215e-08 55.1479 64.2388)" fill="#131200"/>
<rect width="9.09091" height="9.09091" transform="matrix(8.14215e-08 1 1 -8.14215e-08 127.876 64.2385)" fill="#131200"/>
<rect width="9.09091" height="9.09091" transform="matrix(8.14215e-08 1 1 -8.14215e-08 55.1479 82.4207)" fill="#131200"/>
<rect width="9.09091" height="9.09091" transform="matrix(8.14215e-08 1 1 -8.14215e-08 127.876 82.4202)" fill="#131200"/>
<rect width="9.09091" height="9.09091" transform="matrix(8.14215e-08 1 1 -8.14215e-08 55.1489 100.602)" fill="#131200"/>
<rect width="9.09091" height="9.09091" transform="matrix(8.14215e-08 1 1 -8.14215e-08 127.875 100.602)" fill="#131200"/>
<rect width="9.09091" height="9.09091" transform="matrix(8.14215e-08 1 1 -8.14215e-08 155.149 118.784)" fill="#131200"/>
<rect x="36.9668" y="118.784" width="9.09091" height="9.09091" transform="rotate(90 36.9668 118.784)" fill="#131200"/>
<rect width="9.09091" height="9.09091" transform="matrix(8.14215e-08 1 1 -8.14215e-08 155.148 109.694)" fill="#131200"/>
<rect x="36.9668" y="109.693" width="9.09091" height="9.09091" transform="rotate(90 36.9668 109.693)" fill="#131200"/>
<rect width="9.09091" height="9.09091" transform="matrix(8.14215e-08 1 1 -8.14215e-08 146.058 100.602)" fill="#131200"/>
<rect x="46.0571" y="100.602" width="9.09091" height="9.09091" transform="rotate(90 46.0571 100.602)" fill="#131200"/>
<rect width="9.09091" height="9.09091" transform="matrix(8.14215e-08 1 1 -8.14215e-08 146.058 91.5112)" fill="#131200"/>
<rect x="46.0571" y="91.5112" width="9.09091" height="9.09091" transform="rotate(90 46.0571 91.5112)" fill="#131200"/>
<rect width="9.09091" height="9.09091" transform="matrix(8.14215e-08 1 1 -8.14215e-08 136.966 82.4207)" fill="#131200"/>
<rect x="55.1479" y="82.4207" width="9.09091" height="9.09091" transform="rotate(90 55.1479 82.4207)" fill="#131200"/>
<rect width="9.09091" height="9.09091" transform="matrix(8.14215e-08 1 1 -8.14215e-08 55.1484 118.784)" fill="#131200"/>
<rect width="9.09091" height="9.09091" transform="matrix(8.14215e-08 1 1 -8.14215e-08 127.875 118.784)" fill="#131200"/>
<rect width="9.09091" height="9.09091" transform="matrix(8.14215e-08 1 1 -8.14215e-08 155.149 136.966)" fill="#131200"/>
<rect x="36.9663" y="136.966" width="9.09091" height="9.09091" transform="rotate(90 36.9663 136.966)" fill="#131200"/>
<rect width="9.09091" height="9.09091" transform="matrix(8.14215e-08 1 1 -8.14215e-08 146.057 146.057)" fill="#131200"/>
<rect x="46.0581" y="146.057" width="9.09091" height="9.09091" transform="rotate(90 46.0581 146.057)" fill="#131200"/>
<rect width="9.09091" height="9.09091" transform="matrix(8.14215e-08 1 1 -8.14215e-08 136.967 127.875)" fill="#131200"/>
<rect x="55.1484" y="127.875" width="9.09091" height="9.09091" transform="rotate(90 55.1484 127.875)" fill="#131200"/>
<rect width="9.09091" height="9.09091" transform="matrix(8.14215e-08 1 1 -8.14215e-08 136.967 136.966)" fill="#131200"/>
<rect x="55.1484" y="136.966" width="9.09091" height="9.09091" transform="rotate(90 55.1484 136.966)" fill="#131200"/>
<rect width="9.09091" height="9.09091" transform="matrix(8.14215e-08 1 1 -8.14215e-08 82.4209 27.8752)" fill="#131200"/>
<rect width="9.09091" height="9.09091" transform="matrix(8.14215e-08 1 1 -8.14215e-08 82.4219 64.2383)" fill="#131200"/>
<rect width="9.09091" height="9.09091" transform="matrix(8.14215e-08 1 1 -8.14215e-08 82.4214 100.602)" fill="#131200"/>
<rect width="9.09091" height="9.09091" transform="matrix(8.14215e-08 1 1 -8.14215e-08 82.4209 146.057)" fill="#131200"/>
<rect width="9.09091" height="9.09091" transform="matrix(8.14215e-08 1 1 -8.14215e-08 91.5127 27.875)" fill="#131200"/>
<rect width="9.09091" height="9.09091" transform="matrix(8.14215e-08 1 1 -8.14215e-08 91.5122 64.2385)" fill="#131200"/>
<rect width="9.09091" height="9.09091" transform="matrix(8.14215e-08 1 1 -8.14215e-08 91.5117 100.602)" fill="#131200"/>
<rect width="9.09091" height="9.09091" transform="matrix(8.14215e-08 1 1 -8.14215e-08 91.5122 146.057)" fill="#131200"/>
<rect width="9.09091" height="9.09091" transform="matrix(8.14215e-08 1 1 -8.14215e-08 100.603 27.875)" fill="#131200"/>
<rect width="9.09091" height="9.09091" transform="matrix(8.14215e-08 1 1 -8.14215e-08 100.603 64.2388)" fill="#131200"/>
<rect width="9.09091" height="9.09091" transform="matrix(8.14215e-08 1 1 -8.14215e-08 100.603 100.602)" fill="#131200"/>
<rect width="9.09091" height="9.09091" transform="matrix(8.14215e-08 1 1 -8.14215e-08 100.603 146.057)" fill="#131200"/>
</g>
<defs>
<clipPath id="clip0_104_11402">
<rect width="200" height="200" fill="white" transform="translate(0.602539 0.602539)"/>
</clipPath>
</defs>
</svg>
