<svg width="301" height="301" viewBox="0 0 301 301" fill="none" xmlns="http://www.w3.org/2000/svg">
<g clip-path="url(#clip0_104_3834)">
<rect width="13.6364" height="13.6364" transform="matrix(6.24105e-08 1 1 -6.24105e-08 137.267 0.903809)" fill="#131200"/>
<rect width="13.6364" height="13.6364" transform="matrix(6.24105e-08 1 1 -6.24105e-08 123.631 14.5403)" fill="#131200"/>
<rect width="13.6364" height="13.6364" transform="matrix(6.24105e-08 1 1 -6.24105e-08 150.904 14.5403)" fill="#131200"/>
<rect width="13.6364" height="13.6364" transform="matrix(6.24105e-08 1 1 -6.24105e-08 164.54 28.1765)" fill="#131200"/>
<rect width="13.6364" height="13.6364" transform="matrix(6.24105e-08 1 1 -6.24105e-08 109.995 28.1765)" fill="#131200"/>
<rect width="13.6364" height="13.6364" transform="matrix(6.24105e-08 1 1 -6.24105e-08 96.3584 55.4492)" fill="#131200"/>
<rect width="13.6364" height="13.6364" transform="matrix(6.24105e-08 1 1 -6.24105e-08 111.358 123.631)" fill="#131200"/>
<rect width="13.6364" height="13.6364" transform="matrix(6.24105e-08 1 1 -6.24105e-08 164.54 123.631)" fill="#131200"/>
<rect width="13.6364" height="13.6364" transform="matrix(6.24105e-08 1 1 -6.24105e-08 111.358 109.995)" fill="#131200"/>
<rect width="13.6364" height="13.6364" transform="matrix(6.24105e-08 1 1 -6.24105e-08 164.54 109.995)" fill="#131200"/>
<rect width="13.6364" height="13.6364" transform="matrix(6.24105e-08 1 1 -6.24105e-08 178.177 55.4492)" fill="#131200"/>
<rect width="13.6364" height="13.6364" transform="matrix(6.24105e-08 1 1 -6.24105e-08 96.3584 191.813)" fill="#131200"/>
<rect width="13.6364" height="13.6364" transform="matrix(6.24105e-08 1 1 -6.24105e-08 109.995 232.722)" fill="#131200"/>
<rect width="13.6364" height="13.6364" transform="matrix(6.24105e-08 1 1 -6.24105e-08 109.995 259.995)" fill="#131200"/>
<rect width="13.6364" height="13.6364" transform="matrix(6.24105e-08 1 1 -6.24105e-08 164.54 259.995)" fill="#131200"/>
<rect width="13.6364" height="13.6364" transform="matrix(6.24105e-08 1 1 -6.24105e-08 164.54 273.631)" fill="#131200"/>
<rect width="13.6364" height="13.6364" transform="matrix(6.24105e-08 1 1 -6.24105e-08 164.54 246.358)" fill="#131200"/>
<rect width="13.6364" height="13.6364" transform="matrix(6.24105e-08 1 1 -6.24105e-08 164.54 232.722)" fill="#131200"/>
<rect x="191.813" y="191.813" width="13.6364" height="13.6364" transform="rotate(90 191.813 191.813)" fill="#131200"/>
<rect width="13.6364" height="13.6364" transform="matrix(6.24105e-08 1 1 -6.24105e-08 82.722 82.7219)" fill="#131200"/>
<rect width="13.6364" height="13.6364" transform="matrix(6.24105e-08 1 1 -6.24105e-08 191.813 82.7219)" fill="#131200"/>
<rect width="13.6364" height="13.6364" transform="matrix(6.24105e-08 1 1 -6.24105e-08 82.722 109.995)" fill="#131200"/>
<rect width="13.6364" height="13.6364" transform="matrix(6.24105e-08 1 1 -6.24105e-08 191.813 109.995)" fill="#131200"/>
<rect width="13.6364" height="13.6364" transform="matrix(6.24105e-08 1 1 -6.24105e-08 82.722 137.267)" fill="#131200"/>
<rect width="13.6364" height="13.6364" transform="matrix(6.24105e-08 1 1 -6.24105e-08 191.813 137.267)" fill="#131200"/>
<rect width="13.6364" height="13.6364" transform="matrix(6.24105e-08 1 1 -6.24105e-08 82.722 164.54)" fill="#131200"/>
<rect width="13.6364" height="13.6364" transform="matrix(6.24105e-08 1 1 -6.24105e-08 191.813 164.54)" fill="#131200"/>
<rect width="13.6364" height="13.6364" transform="matrix(6.24105e-08 1 1 -6.24105e-08 232.722 191.813)" fill="#131200"/>
<rect x="55.4493" y="191.813" width="13.6364" height="13.6364" transform="rotate(90 55.4493 191.813)" fill="#131200"/>
<rect width="13.6364" height="13.6364" transform="matrix(6.24105e-08 1 1 -6.24105e-08 164.54 41.813)" fill="#131200"/>
<rect width="13.6364" height="13.6364" transform="matrix(6.24105e-08 1 1 -6.24105e-08 109.995 41.813)" fill="#131200"/>
<rect width="13.6364" height="13.6364" transform="matrix(6.24105e-08 1 1 -6.24105e-08 96.3584 69.0857)" fill="#131200"/>
<rect width="13.6364" height="13.6364" transform="matrix(6.24105e-08 1 1 -6.24105e-08 111.358 137.267)" fill="#131200"/>
<rect width="13.6364" height="13.6364" transform="matrix(6.24105e-08 1 1 -6.24105e-08 164.54 137.267)" fill="#131200"/>
<rect width="13.6364" height="13.6364" transform="matrix(6.24105e-08 1 1 -6.24105e-08 178.177 69.0857)" fill="#131200"/>
<rect width="13.6364" height="13.6364" transform="matrix(6.24105e-08 1 1 -6.24105e-08 96.3584 205.449)" fill="#131200"/>
<rect width="13.6364" height="13.6364" transform="matrix(6.24105e-08 1 1 -6.24105e-08 109.995 246.358)" fill="#131200"/>
<rect width="13.6364" height="13.6364" transform="matrix(6.24105e-08 1 1 -6.24105e-08 123.631 273.631)" fill="#131200"/>
<rect width="13.6364" height="13.6364" transform="matrix(6.24105e-08 1 1 -6.24105e-08 137.267 259.995)" fill="#131200"/>
<rect width="13.6364" height="13.6364" transform="matrix(6.24105e-08 1 1 -6.24105e-08 137.267 273.631)" fill="#131200"/>
<rect width="13.6364" height="13.6364" transform="matrix(6.24105e-08 1 1 -6.24105e-08 137.267 246.358)" fill="#131200"/>
<rect width="13.6364" height="13.6364" transform="matrix(6.24105e-08 1 1 -6.24105e-08 150.904 287.268)" fill="#131200"/>
<rect x="191.813" y="205.449" width="13.6364" height="13.6364" transform="rotate(90 191.813 205.449)" fill="#131200"/>
<rect width="13.6364" height="13.6364" transform="matrix(6.24105e-08 1 1 -6.24105e-08 109.995 219.086)" fill="#131200"/>
<rect x="178.177" y="219.086" width="13.6364" height="13.6364" transform="rotate(90 178.177 219.086)" fill="#131200"/>
<rect width="13.6364" height="13.6364" transform="matrix(6.24105e-08 1 1 -6.24105e-08 82.722 96.3584)" fill="#131200"/>
<rect width="13.6364" height="13.6364" transform="matrix(6.24105e-08 1 1 -6.24105e-08 191.813 96.3584)" fill="#131200"/>
<rect width="13.6364" height="13.6364" transform="matrix(6.24105e-08 1 1 -6.24105e-08 82.722 123.631)" fill="#131200"/>
<rect width="13.6364" height="13.6364" transform="matrix(6.24105e-08 1 1 -6.24105e-08 191.813 123.631)" fill="#131200"/>
<rect width="13.6364" height="13.6364" transform="matrix(6.24105e-08 1 1 -6.24105e-08 82.722 150.904)" fill="#131200"/>
<rect width="13.6364" height="13.6364" transform="matrix(6.24105e-08 1 1 -6.24105e-08 191.813 150.904)" fill="#131200"/>
<rect width="13.6364" height="13.6364" transform="matrix(6.24105e-08 1 1 -6.24105e-08 232.722 178.177)" fill="#131200"/>
<rect x="55.4493" y="178.177" width="13.6364" height="13.6364" transform="rotate(90 55.4493 178.177)" fill="#131200"/>
<rect width="13.6364" height="13.6364" transform="matrix(6.24105e-08 1 1 -6.24105e-08 232.722 164.54)" fill="#131200"/>
<rect x="55.4493" y="164.54" width="13.6364" height="13.6364" transform="rotate(90 55.4493 164.54)" fill="#131200"/>
<rect width="13.6364" height="13.6364" transform="matrix(6.24105e-08 1 1 -6.24105e-08 219.086 150.904)" fill="#131200"/>
<rect x="69.0856" y="150.904" width="13.6364" height="13.6364" transform="rotate(90 69.0856 150.904)" fill="#131200"/>
<rect width="13.6364" height="13.6364" transform="matrix(6.24105e-08 1 1 -6.24105e-08 219.086 137.267)" fill="#131200"/>
<rect x="69.0856" y="137.267" width="13.6364" height="13.6364" transform="rotate(90 69.0856 137.267)" fill="#131200"/>
<rect width="13.6364" height="13.6364" transform="matrix(6.24105e-08 1 1 -6.24105e-08 205.449 123.631)" fill="#131200"/>
<rect x="82.722" y="123.631" width="13.6364" height="13.6364" transform="rotate(90 82.722 123.631)" fill="#131200"/>
<rect width="13.6364" height="13.6364" transform="matrix(6.24105e-08 1 1 -6.24105e-08 82.722 178.177)" fill="#131200"/>
<rect width="13.6364" height="13.6364" transform="matrix(6.24105e-08 1 1 -6.24105e-08 191.813 178.177)" fill="#131200"/>
<rect width="13.6364" height="13.6364" transform="matrix(6.24105e-08 1 1 -6.24105e-08 232.722 205.449)" fill="#131200"/>
<rect x="55.4493" y="205.449" width="13.6364" height="13.6364" transform="rotate(90 55.4493 205.449)" fill="#131200"/>
<rect width="13.6364" height="13.6364" transform="matrix(6.24105e-08 1 1 -6.24105e-08 219.086 219.086)" fill="#131200"/>
<rect x="69.0856" y="219.086" width="13.6364" height="13.6364" transform="rotate(90 69.0856 219.086)" fill="#131200"/>
<rect width="13.6364" height="13.6364" transform="matrix(6.24105e-08 1 1 -6.24105e-08 205.449 191.813)" fill="#131200"/>
<rect x="82.722" y="191.813" width="13.6364" height="13.6364" transform="rotate(90 82.722 191.813)" fill="#131200"/>
<rect width="13.6364" height="13.6364" transform="matrix(6.24105e-08 1 1 -6.24105e-08 205.449 205.449)" fill="#131200"/>
<rect x="82.722" y="205.449" width="13.6364" height="13.6364" transform="rotate(90 82.722 205.449)" fill="#131200"/>
<rect width="13.6364" height="13.6364" transform="matrix(6.24105e-08 1 1 -6.24105e-08 123.631 41.813)" fill="#131200"/>
<rect width="13.6364" height="13.6364" transform="matrix(6.24105e-08 1 1 -6.24105e-08 123.631 96.3584)" fill="#131200"/>
<rect width="13.6364" height="13.6364" transform="matrix(6.24105e-08 1 1 -6.24105e-08 123.631 150.904)" fill="#131200"/>
<rect width="13.6364" height="13.6364" transform="matrix(6.24105e-08 1 1 -6.24105e-08 123.631 219.086)" fill="#131200"/>
<rect width="13.6364" height="13.6364" transform="matrix(6.24105e-08 1 1 -6.24105e-08 137.267 41.813)" fill="#131200"/>
<rect width="13.6364" height="13.6364" transform="matrix(6.24105e-08 1 1 -6.24105e-08 137.267 96.3584)" fill="#131200"/>
<rect width="13.6364" height="13.6364" transform="matrix(6.24105e-08 1 1 -6.24105e-08 137.267 150.904)" fill="#131200"/>
<rect width="13.6364" height="13.6364" transform="matrix(6.24105e-08 1 1 -6.24105e-08 137.267 219.086)" fill="#131200"/>
<rect width="13.6364" height="13.6364" transform="matrix(6.24105e-08 1 1 -6.24105e-08 150.904 41.813)" fill="#131200"/>
<rect width="13.6364" height="13.6364" transform="matrix(6.24105e-08 1 1 -6.24105e-08 150.904 96.3584)" fill="#131200"/>
<rect width="13.6364" height="13.6364" transform="matrix(6.24105e-08 1 1 -6.24105e-08 150.904 150.904)" fill="#131200"/>
<rect width="13.6364" height="13.6364" transform="matrix(6.24105e-08 1 1 -6.24105e-08 150.904 219.086)" fill="#131200"/>
</g>
<defs>
<clipPath id="clip0_104_3834">
<rect width="300" height="300" fill="white" transform="translate(0.903809 0.903809)"/>
</clipPath>
</defs>
</svg>
