<svg width="100" height="101" viewBox="0 0 100 101" fill="none" xmlns="http://www.w3.org/2000/svg">
<path d="M78.5158 33.0686C77.9435 41.012 72.0509 47.1311 65.6252 47.1311C59.1994 47.1311 53.297 41.0139 52.7345 33.0686C52.1486 24.8049 57.8849 19.0061 65.6252 19.0061C73.3654 19.0061 79.1017 24.9553 78.5158 33.0686Z" stroke="#A9E000" stroke-width="4" stroke-linecap="round" stroke-linejoin="round"/>
<path d="M65.6242 59.6311C52.8957 59.6311 40.6555 65.9534 37.5891 78.2659C37.1828 79.8948 38.2043 81.5061 39.8781 81.5061H91.3723C93.0461 81.5061 94.0617 79.8948 93.6613 78.2659C90.5949 65.7561 78.3547 59.6311 65.6242 59.6311Z" stroke="#A9E000" stroke-width="4" stroke-miterlimit="10"/>
<path d="M39.0627 36.5725C38.6056 42.9163 33.8439 47.9124 28.7111 47.9124C23.5783 47.9124 18.8087 42.9182 18.3595 36.5725C17.8927 29.9729 22.5275 25.2561 28.7111 25.2561C34.8947 25.2561 39.5295 30.094 39.0627 36.5725Z" stroke="#A9E000" stroke-width="4" stroke-linecap="round" stroke-linejoin="round"/>
<path d="M40.2343 60.0217C36.7089 58.4065 32.8261 57.7854 28.7109 57.7854C18.5546 57.7854 8.76949 62.8342 6.31832 72.6682C5.99605 73.969 6.81246 75.2561 8.1484 75.2561H30.0781" stroke="#A9E000" stroke-width="4" stroke-miterlimit="10" stroke-linecap="round"/>
</svg>
