<svg width="90" height="91" viewBox="0 0 90 91" fill="none" xmlns="http://www.w3.org/2000/svg">
<g clip-path="url(#clip0_2020_26813)">
<path d="M80.2875 43.0436L47.175 9.9311C45.7875 8.5436 43.875 7.7561 41.8875 7.7561H15C10.875 7.7561 7.5 11.1311 7.5 15.2561V42.1436C7.5 44.1311 8.2875 46.0436 9.7125 47.4311L42.825 80.5436C45.75 83.4686 50.5125 83.4686 53.4375 80.5436L80.325 53.6561C83.25 50.7311 83.25 46.0061 80.2875 43.0436ZM48.1125 75.2561L15 42.1436V15.2561H41.8875L75 48.3686L48.1125 75.2561Z" fill="#A9E000"/>
<path d="M24.375 30.2561C27.4816 30.2561 30 27.7377 30 24.6311C30 21.5245 27.4816 19.0061 24.375 19.0061C21.2684 19.0061 18.75 21.5245 18.75 24.6311C18.75 27.7377 21.2684 30.2561 24.375 30.2561Z" fill="#A9E000"/>
</g>
<defs>
<clipPath id="clip0_2020_26813">
<rect width="90" height="90" fill="white" transform="translate(0 0.256104)"/>
</clipPath>
</defs>
</svg>
