<svg width="80" height="81" viewBox="0 0 80 81" fill="none" xmlns="http://www.w3.org/2000/svg">
<g clip-path="url(#clip0_2020_26823)">
<path d="M13.3327 16.2562V32.2562M13.3327 42.9229V58.9229M13.3327 72.2562V80.2562M66.666 72.2562V80.2562M50.666 50.9229C44.775 50.9229 39.9993 46.1472 39.9993 40.2562C39.9993 34.3651 44.775 29.5895 50.666 29.5895C56.5572 29.5895 61.3327 34.3651 61.3327 40.2562C61.3327 46.1472 56.5572 50.9229 50.666 50.9229ZM7.99935 2.92285H71.9993C74.9449 2.92285 77.3327 5.31066 77.3327 8.25619V66.9229C77.3327 69.8685 74.9449 72.2562 71.9993 72.2562H7.99935C5.05383 72.2562 2.66602 69.8685 2.66602 66.9229V8.25619C2.66602 5.31066 5.05383 2.92285 7.99935 2.92285Z" stroke="#A9E000" stroke-width="4"/>
</g>
<defs>
<clipPath id="clip0_2020_26823">
<rect width="80" height="80" fill="white" transform="translate(0 0.256104)"/>
</clipPath>
</defs>
</svg>
