<svg xmlns="http://www.w3.org/2000/svg" xmlns:xlink="http://www.w3.org/1999/xlink" version="1.1" x="0px" y="0px" viewBox="-912.34 655.461 91 113.75" enable-background="new -912.34 655.461 91 91" xml:space="preserve"><g><path d="M-893.633,684.124c-0.838,7.625-0.997,15.346-0.368,22.992c0.574,6.992,0.794,15.562,4.649,21.697   c3.967,6.314,11.789,8.043,18.636,9.303c6.965,1.281,15.342,2.471,21.698-1.516c5.654-3.547,8.407-10.094,9.479-16.438   c1.416-8.369,1.264-17.177,1.266-25.642c0-4.389,0-8.779-0.104-13.166c-0.079-3.297-0.259-6.563-2.184-9.379   c-3.527-5.154-10.153-6.682-15.904-7.791c-8.562-1.654-17.756-2.514-25.967,1.055c-6.665,2.895-12.195,8.418-13.766,15.664   C-896.604,682.78-895.104,684.026-893.633,684.124z M-861.46,667.991c5.388,0.639,12.678,1.348,16.931,5.129   c2.286,2.031,2.864,4.836,3.069,7.764c0.261,3.736,0.385,7.5,0.425,11.242c0.081,7.439-0.046,14.934-0.601,22.354   c-0.471,6.309-1.742,12.963-6.678,17.385c-5.325,4.77-13.23,3.568-19.688,2.428c-5.719-1.01-13.712-2.166-17.209-7.387   c-3.919-5.85-3.644-14.775-4.096-21.521c-0.542-8.09-0.646-16.168-0.529-24.273c0.008-0.563-0.27-1.002-0.668-1.293   C-886.395,668.614-872.069,666.735-861.46,667.991z"/><path d="M-859.243,706.821c-1.051,1.498-1.987,3.073-2.955,4.628c-0.464,0.746-0.858,1.693-1.451,2.328   c-0.958,1.031-0.981,0.912-2.204,0.293c-2.475-1.252-4.4-4.701-7.345-4.688c-0.183,0-0.387,0.168-0.366,0.365   c0.215,2.023,2.006,3.244,3.389,4.643c1.398,1.414,3.176,3.967,5.277,4.326c1.779,0.305,3.101-0.854,4.091-2.174   c1.809-2.41,3.467-5.123,4.963-7.734C-854.564,706.575-857.807,704.774-859.243,706.821z"/><path d="M-859.962,720.131c-1.328,1.221-2.47,2.59-3.726,3.879c-0.251,0.258-1.496,1.811-1.907,1.768   c-0.03-0.004-1.048-1.137-1.131-1.211c-1.521-1.348-3.484-2.436-5.418-3.039c-0.36-0.113-0.835,0.002-1.088,0.287   c-0.184,0.207-0.276,0.367-0.31,0.645c-0.138,1.129,1.456,1.799,2.196,2.363c1.505,1.148,2.307,2.709,3.654,3.912   c3.655,3.26,8.23-3.779,10.515-5.818C-855.288,721.229-858.094,718.414-859.962,720.131z"/><path d="M-861.017,695.431c4.371-3.639,4.673-10.355,3.547-15.531c-1.244-5.711-6.57-6.939-11.698-6.066   c-0.891,0.15-1.383,0.764-1.544,1.484c-0.281-0.123-0.638-0.014-0.831,0.26c-1.662,2.346-1.37,6.357-1.659,9.143   c-0.291,2.809-0.857,5.867,0.361,8.545C-870.721,697.923-864.739,698.53-861.017,695.431z M-868.569,678.253   c1.378-0.047,2.953-0.359,4.306,0.033c2.095,0.605,2.389,2.422,2.595,4.352c0.35,3.283,0.392,8.281-3.158,9.977   c-4.661,2.227-4.856-3.887-4.86-6.793c-0.002-2.293,0.451-5.309,0.044-7.84C-869.338,678.159-868.982,678.265-868.569,678.253z"/></g></svg>