<svg xmlns="http://www.w3.org/2000/svg" version="1.1" viewBox="-5.0 -10.0 110.0 135.0">
 <path d="m55.676 8.0039h-2.2695v-3.4062c0-0.625-0.50781-1.1367-1.1367-1.1367h-4.5391c-0.625 0-1.1367 0.50781-1.1367 1.1367v3.4062h-2.2695c-10.641 0-19.297 8.6562-19.297 19.297v29.512c0 10.641 8.6562 19.297 19.297 19.297h11.352c10.641 0 19.297-8.6562 19.297-19.297v-29.512c0-10.641-8.6562-19.297-19.297-19.297zm-6.8125-2.2695h2.2695v2.2695h-2.2695zm1.1367 21.566c1.8789 0 3.4062 1.5273 3.4062 3.4062v9.082c0 1.8789-1.5273 3.4062-3.4062 3.4062s-3.4062-1.5273-3.4062-3.4062v-9.082c0-1.8789 1.5273-3.4062 3.4062-3.4062zm-22.699 0c0-9.3867 7.6367-17.027 17.027-17.027h4.543v14.871c-2.5859 0.52734-4.5391 2.8203-4.5391 5.5586v3.4062h-17.031zm45.398 29.508c0 9.3867-7.6367 17.027-17.027 17.027h-11.352c-9.3867 0-17.027-7.6367-17.027-17.027l0.007812-20.43h17.027v3.4062c0 3.1289 2.5469 5.6758 5.6758 5.6758s5.6758-2.5469 5.6758-5.6758v-3.4062h17.027zm0-22.699h-17.023v-3.4062c0-2.7422-1.9531-5.0312-4.5391-5.5586v-14.871h4.543c9.3867 0 17.027 7.6367 17.027 17.027zm-12.484 46.535h-20.43c-0.42969 0-0.82422 0.24219-1.0156 0.62891-0.19141 0.38281-0.15234 0.84375 0.10938 1.1875l10.215 13.621c0.21094 0.28516 0.54688 0.45703 0.90625 0.45703s0.69531-0.16797 0.90625-0.45312l10.215-13.621c0.25781-0.34375 0.30078-0.80469 0.10938-1.1875-0.19141-0.38672-0.58594-0.63281-1.0156-0.63281zm-10.215 12.867-7.9453-10.594h15.891z"/>
</svg>