<svg width="44" height="44" viewBox="0 0 44 44" fill="none" xmlns="http://www.w3.org/2000/svg">
<rect x="14.6252" y="7.35938" width="3.58852" height="3.58852" transform="rotate(90 14.6252 7.35938)" fill="#FCFCFC"/>
<rect x="11.0377" y="10.9473" width="3.58852" height="3.58852" transform="rotate(90 11.0377 10.9473)" fill="#FCFCFC"/>
<rect x="7.45013" y="14.5342" width="3.58852" height="3.58852" transform="rotate(90 7.45013 14.5342)" fill="#FCFCFC"/>
<rect x="32.5682" y="14.5342" width="3.58852" height="3.58852" transform="rotate(90 32.5682 14.5342)" fill="#FCFCFC"/>
<rect x="7.45013" y="18.125" width="3.58852" height="3.58852" transform="rotate(90 7.45013 18.125)" fill="#FCFCFC"/>
<rect x="32.5682" y="18.125" width="3.58852" height="3.58852" transform="rotate(90 32.5682 18.125)" fill="#FCFCFC"/>
<rect x="7.45013" y="21.7119" width="3.58852" height="3.58852" transform="rotate(90 7.45013 21.7119)" fill="#FCFCFC"/>
<rect x="32.5682" y="21.7119" width="3.58852" height="3.58852" transform="rotate(90 32.5682 21.7119)" fill="#FCFCFC"/>
<rect x="25.3904" y="18.125" width="3.58852" height="3.58852" transform="rotate(90 25.3904 18.125)" fill="#FCFCFC"/>
<rect x="25.3904" y="21.7119" width="3.58852" height="3.58852" transform="rotate(90 25.3904 21.7119)" fill="#FCFCFC"/>
<rect x="7.45013" y="25.3027" width="3.58852" height="3.58852" transform="rotate(90 7.45013 25.3027)" fill="#FCFCFC"/>
<rect x="32.5682" y="25.3027" width="3.58852" height="3.58852" transform="rotate(90 32.5682 25.3027)" fill="#FCFCFC"/>
<rect x="21.8029" y="25.3027" width="3.58852" height="3.58852" transform="rotate(90 21.8029 25.3027)" fill="#FCFCFC"/>
<rect x="36.1584" y="36.0674" width="3.58852" height="3.58852" transform="rotate(90 36.1584 36.0674)" fill="#FCFCFC"/>
<rect x="32.5682" y="32.4775" width="3.58852" height="3.58852" transform="rotate(90 32.5682 32.4775)" fill="#FCFCFC"/>
<rect x="11.0377" y="28.8896" width="3.58852" height="3.58852" transform="rotate(90 11.0377 28.8896)" fill="#FCFCFC"/>
<rect x="28.9807" y="28.8896" width="3.58852" height="3.58852" transform="rotate(90 28.9807 28.8896)" fill="#FCFCFC"/>
<rect x="28.9807" y="10.9473" width="3.58852" height="3.58852" transform="rotate(90 28.9807 10.9473)" fill="#FCFCFC"/>
<rect x="14.6252" y="32.4775" width="3.58852" height="3.58852" transform="rotate(90 14.6252 32.4775)" fill="#FCFCFC"/>
<rect x="18.2154" y="7.35938" width="3.58852" height="3.58852" transform="rotate(90 18.2154 7.35938)" fill="#FCFCFC"/>
<rect x="18.2154" y="32.4775" width="3.58852" height="3.58852" transform="rotate(90 18.2154 32.4775)" fill="#FCFCFC"/>
<rect x="21.8029" y="7.35938" width="3.58852" height="3.58852" transform="rotate(90 21.8029 7.35938)" fill="#FCFCFC"/>
<rect x="21.8029" y="32.4775" width="3.58852" height="3.58852" transform="rotate(90 21.8029 32.4775)" fill="#FCFCFC"/>
<rect x="25.3904" y="7.35938" width="3.58852" height="3.58852" transform="rotate(90 25.3904 7.35938)" fill="#FCFCFC"/>
<rect x="25.3904" y="32.4775" width="3.58852" height="3.58852" transform="rotate(90 25.3904 32.4775)" fill="#FCFCFC"/>
</svg>
