<svg width="60" height="60" viewBox="0 0 60 60" fill="none" xmlns="http://www.w3.org/2000/svg">
<rect x="19.9991" y="10" width="5" height="5" transform="rotate(90 19.9991 10)" fill="#A9E000"/>
<rect x="15" y="15" width="5" height="5" transform="rotate(90 15 15)" fill="#A9E000"/>
<rect x="10.0009" y="20" width="5" height="5" transform="rotate(90 10.0009 20)" fill="#A9E000"/>
<rect x="45" y="20" width="5" height="5" transform="rotate(90 45 20)" fill="#A9E000"/>
<rect x="10.0009" y="25" width="5" height="5" transform="rotate(90 10.0009 25)" fill="#A9E000"/>
<rect x="45" y="25" width="5" height="5" transform="rotate(90 45 25)" fill="#A9E000"/>
<rect x="10.0009" y="30" width="5" height="5" transform="rotate(90 10.0009 30)" fill="#A9E000"/>
<rect x="45" y="30" width="5" height="5" transform="rotate(90 45 30)" fill="#A9E000"/>
<rect x="34.9991" y="25" width="5" height="5" transform="rotate(90 34.9991 25)" fill="#A9E000"/>
<rect x="34.9991" y="30" width="5" height="5" transform="rotate(90 34.9991 30)" fill="#A9E000"/>
<rect x="10.0009" y="35" width="5" height="5" transform="rotate(90 10.0009 35)" fill="#A9E000"/>
<rect x="45" y="35" width="5" height="5" transform="rotate(90 45 35)" fill="#A9E000"/>
<rect x="30" y="35" width="5" height="5" transform="rotate(90 30 35)" fill="#A9E000"/>
<rect x="49.9991" y="50" width="5" height="5" transform="rotate(90 49.9991 50)" fill="#A9E000"/>
<rect x="45" y="45" width="5" height="5" transform="rotate(90 45 45)" fill="#A9E000"/>
<rect x="15" y="40" width="5" height="5" transform="rotate(90 15 40)" fill="#A9E000"/>
<rect x="40.0009" y="40" width="5" height="5" transform="rotate(90 40.0009 40)" fill="#A9E000"/>
<rect x="40.0009" y="15" width="5" height="5" transform="rotate(90 40.0009 15)" fill="#A9E000"/>
<rect x="19.9991" y="45" width="5" height="5" transform="rotate(90 19.9991 45)" fill="#A9E000"/>
<rect x="25.0009" y="10" width="5" height="5" transform="rotate(90 25.0009 10)" fill="#A9E000"/>
<rect x="25.0009" y="45" width="5" height="5" transform="rotate(90 25.0009 45)" fill="#A9E000"/>
<rect x="30" y="10" width="5" height="5" transform="rotate(90 30 10)" fill="#A9E000"/>
<rect x="30" y="45" width="5" height="5" transform="rotate(90 30 45)" fill="#A9E000"/>
<rect x="34.9991" y="10" width="5" height="5" transform="rotate(90 34.9991 10)" fill="#A9E000"/>
<rect x="34.9991" y="45" width="5" height="5" transform="rotate(90 34.9991 45)" fill="#A9E000"/>
</svg>
