<svg width="99" height="80" viewBox="0 0 99 80" fill="none" xmlns="http://www.w3.org/2000/svg">
<rect width="6.66667" height="6.66667" transform="matrix(6.24105e-08 1 1 -6.24105e-08 18.6667 26.6665)" fill="#A9E000"/>
<rect width="6.66667" height="6.66667" transform="matrix(6.24105e-08 1 1 -6.24105e-08 85.3333 26.6665)" fill="#A9E000"/>
<rect width="6.66667" height="6.66667" transform="matrix(6.24105e-08 1 1 -6.24105e-08 92 26.6665)" fill="#A9E000"/>
<rect width="6.66667" height="6.66667" transform="matrix(6.24105e-08 1 1 -6.24105e-08 18.6667 46.6665)" fill="#A9E000"/>
<rect width="6.66667" height="6.66667" transform="matrix(6.24105e-08 1 1 -6.24105e-08 12 53.3335)" fill="#A9E000"/>
<rect width="6.66667" height="6.66667" transform="matrix(6.24105e-08 1 1 -6.24105e-08 12 60)" fill="#A9E000"/>
<rect width="6.66667" height="6.66667" transform="matrix(6.24105e-08 1 1 -6.24105e-08 5.33334 66.6665)" fill="#A9E000"/>
<rect width="6.66667" height="6.66667" transform="matrix(6.24105e-08 1 1 -6.24105e-08 12 73.3335)" fill="#A9E000"/>
<rect width="6.66667" height="6.66667" transform="matrix(6.24105e-08 1 1 -6.24105e-08 18.6667 73.3335)" fill="#A9E000"/>
<rect width="6.66667" height="6.66667" transform="matrix(6.24105e-08 1 1 -6.24105e-08 25.3333 66.6665)" fill="#A9E000"/>
<rect width="6.66667" height="6.66667" transform="matrix(6.24105e-08 1 1 -6.24105e-08 32 60)" fill="#A9E000"/>
<rect width="6.66667" height="6.66667" transform="matrix(6.24105e-08 1 1 -6.24105e-08 38.6667 60)" fill="#A9E000"/>
<rect width="6.66667" height="6.66667" transform="matrix(6.24105e-08 1 1 -6.24105e-08 52 60)" fill="#A9E000"/>
<rect width="6.66667" height="6.66667" transform="matrix(6.24105e-08 1 1 -6.24105e-08 45.3333 53.3335)" fill="#A9E000"/>
<rect width="6.66667" height="6.66667" transform="matrix(6.24105e-08 1 1 -6.24105e-08 58.6667 60)" fill="#A9E000"/>
<rect width="6.66667" height="6.66667" transform="matrix(6.24105e-08 1 1 -6.24105e-08 65.3333 66.6665)" fill="#A9E000"/>
<rect width="6.66667" height="6.66667" transform="matrix(6.24105e-08 1 1 -6.24105e-08 78.6667 73.3335)" fill="#A9E000"/>
<rect width="6.66667" height="6.66667" transform="matrix(6.24105e-08 1 1 -6.24105e-08 72 73.3335)" fill="#A9E000"/>
<rect width="6.66667" height="6.66667" transform="matrix(6.24105e-08 1 1 -6.24105e-08 78.6667 60)" fill="#A9E000"/>
<rect width="6.66667" height="6.66667" transform="matrix(6.24105e-08 1 1 -6.24105e-08 85.3333 66.6665)" fill="#A9E000"/>
<rect width="6.66667" height="6.66667" transform="matrix(6.24105e-08 1 1 -6.24105e-08 78.6667 53.3335)" fill="#A9E000"/>
<rect width="6.66667" height="6.66667" transform="matrix(6.24105e-08 1 1 -6.24105e-08 78.6667 40)" fill="#A9E000"/>
<rect width="6.66667" height="6.66667" transform="matrix(6.24105e-08 1 1 -6.24105e-08 85.3333 40)" fill="#A9E000"/>
<rect width="6.66667" height="6.66667" transform="matrix(6.24105e-08 1 1 -6.24105e-08 72 46.6665)" fill="#A9E000"/>
<rect width="6.66667" height="6.66667" transform="matrix(6.24105e-08 1 1 -6.24105e-08 92 33.3335)" fill="#A9E000"/>
<rect width="6.66667" height="6.66667" transform="matrix(6.24105e-08 1 1 -6.24105e-08 25.3333 20)" fill="#A9E000"/>
<rect width="6.66667" height="6.66667" transform="matrix(6.24105e-08 1 1 -6.24105e-08 32 13.3335)" fill="#A9E000"/>
<rect width="6.66667" height="6.66667" transform="matrix(6.24105e-08 1 1 -6.24105e-08 38.6667 6.6665)" fill="#A9E000"/>
<rect width="6.66667" height="6.66667" transform="matrix(6.24105e-08 1 1 -6.24105e-08 45.3333 0)" fill="#A9E000"/>
<rect width="6.66667" height="6.66667" transform="matrix(6.24105e-08 1 1 -6.24105e-08 52 6.6665)" fill="#A9E000"/>
<rect width="6.66667" height="6.66667" transform="matrix(6.24105e-08 1 1 -6.24105e-08 58.6667 13.3335)" fill="#A9E000"/>
<rect width="6.66667" height="6.66667" transform="matrix(6.24105e-08 1 1 -6.24105e-08 65.3333 20)" fill="#A9E000"/>
<rect width="6.66667" height="6.66667" transform="matrix(6.24105e-08 1 1 -6.24105e-08 12 26.6665)" fill="#A9E000"/>
<rect width="6.66667" height="6.66667" transform="matrix(6.24105e-08 1 1 -6.24105e-08 78.6667 26.6665)" fill="#A9E000"/>
<rect width="6.66667" height="6.66667" transform="matrix(6.24105e-08 1 1 -6.24105e-08 12 40)" fill="#A9E000"/>
<rect width="6.66667" height="6.66667" transform="matrix(6.24105e-08 1 1 -6.24105e-08 5.33334 40)" fill="#A9E000"/>
<rect width="6.66667" height="6.66667" transform="matrix(6.24105e-08 1 1 -6.24105e-08 5.33334 26.6665)" fill="#A9E000"/>
<rect width="6.66667" height="6.66667" transform="matrix(6.24105e-08 1 1 -6.24105e-08 0 26.6665)" fill="#A9E000"/>
<rect width="6.66667" height="6.66667" transform="matrix(6.24105e-08 1 1 -6.24105e-08 72 26.6665)" fill="#A9E000"/>
<rect width="6.66667" height="6.66667" transform="matrix(6.24105e-08 1 1 -6.24105e-08 0 33.3335)" fill="#A9E000"/>
</svg>
