<svg width="599" height="376" viewBox="0 0 599 376" fill="none" xmlns="http://www.w3.org/2000/svg">
<path d="M3 25.7363V10.7363H12V13.7363H6V16.7363H12V19.7363H6V25.7363H3ZM16.56 25.7363V13.7363H19.56V10.7363H25.56V13.7363H28.56V25.7363H25.56V19.7363H19.56V25.7363H16.56ZM19.56 16.7363H25.56V13.8563H19.56V16.7363ZM33.12 25.7363V10.7363H36.12V25.7363H33.12ZM40.68 25.7363V10.7363H49.68V13.7363H52.68V16.7363H49.68V22.7363H52.68V25.7363H49.68V22.7363H46.68V19.7363H43.68V25.7363H40.68ZM43.68 16.7363H49.56V13.7363H43.68V16.7363ZM67.8 25.7363V10.7363H76.8V13.7363H79.8V22.7363H76.8V25.7363H67.8ZM70.8 22.7363H76.68V13.7363H70.8V22.7363ZM84.36 25.7363V10.7363H87.36V25.7363H84.36ZM94.92 13.7363V10.7363H103.92V13.7363H94.92ZM100.92 22.7363V19.7363H94.92V16.7363H91.92V13.7363H94.92V16.7363H100.92V19.7363H103.92V22.7363H100.92ZM91.92 25.7363V22.7363H100.92V25.7363H91.92ZM111.48 25.7363V13.7363H108.48V10.7363H117.48V13.7363H114.48V25.7363H111.48ZM122.04 25.7363V10.7363H131.04V13.7363H134.04V16.7363H131.04V22.7363H134.04V25.7363H131.04V22.7363H128.04V19.7363H125.04V25.7363H122.04ZM125.04 16.7363H130.92V13.7363H125.04V16.7363ZM138.6 25.7363V10.7363H141.6V25.7363H138.6ZM146.16 25.7363V10.7363H155.16V13.7363H158.16V22.7363H155.16V25.7363H146.16ZM149.16 16.7363H155.04V13.7363H149.16V16.7363ZM149.16 22.7363H155.04V19.7363H149.16V22.7363ZM165.72 25.7363V22.7363H162.72V10.7363H165.72V22.7363H171.72V25.7363H165.72ZM171.72 22.7363V10.7363H174.72V22.7363H171.72ZM182.28 25.7363V13.7363H179.28V10.7363H188.28V13.7363H185.28V25.7363H182.28ZM192.84 25.7363V10.7363H195.84V25.7363H192.84ZM203.4 25.7363V22.7363H200.4V13.7363H203.4V10.7363H209.4V13.7363H212.4V22.7363H209.4V25.7363H203.4ZM203.4 22.6163H209.4V13.8563H203.4V22.6163ZM216.96 25.7363V10.7363H219.96V13.7363H222.96V16.7363H225.96V19.7363H228.96V10.7363H231.96V25.7363H228.96V22.7363H225.96V19.7363H222.96V16.7363H219.96V25.7363H216.96ZM236.52 16.7363V13.7363H239.52V16.7363H236.52ZM236.52 22.7363V19.7363H239.52V22.7363H236.52Z" fill="#87B497"/>
<path d="M3 25.7363V10.7363H12V13.7363H6V16.7363H12V19.7363H6V25.7363H3ZM16.56 25.7363V13.7363H19.56V10.7363H25.56V13.7363H28.56V25.7363H25.56V19.7363H19.56V25.7363H16.56ZM19.56 16.7363H25.56V13.8563H19.56V16.7363ZM33.12 25.7363V10.7363H36.12V25.7363H33.12ZM40.68 25.7363V10.7363H49.68V13.7363H52.68V16.7363H49.68V22.7363H52.68V25.7363H49.68V22.7363H46.68V19.7363H43.68V25.7363H40.68ZM43.68 16.7363H49.56V13.7363H43.68V16.7363ZM67.8 25.7363V10.7363H76.8V13.7363H79.8V22.7363H76.8V25.7363H67.8ZM70.8 22.7363H76.68V13.7363H70.8V22.7363ZM84.36 25.7363V10.7363H87.36V25.7363H84.36ZM94.92 13.7363V10.7363H103.92V13.7363H94.92ZM100.92 22.7363V19.7363H94.92V16.7363H91.92V13.7363H94.92V16.7363H100.92V19.7363H103.92V22.7363H100.92ZM91.92 25.7363V22.7363H100.92V25.7363H91.92ZM111.48 25.7363V13.7363H108.48V10.7363H117.48V13.7363H114.48V25.7363H111.48ZM122.04 25.7363V10.7363H131.04V13.7363H134.04V16.7363H131.04V22.7363H134.04V25.7363H131.04V22.7363H128.04V19.7363H125.04V25.7363H122.04ZM125.04 16.7363H130.92V13.7363H125.04V16.7363ZM138.6 25.7363V10.7363H141.6V25.7363H138.6ZM146.16 25.7363V10.7363H155.16V13.7363H158.16V22.7363H155.16V25.7363H146.16ZM149.16 16.7363H155.04V13.7363H149.16V16.7363ZM149.16 22.7363H155.04V19.7363H149.16V22.7363ZM165.72 25.7363V22.7363H162.72V10.7363H165.72V22.7363H171.72V25.7363H165.72ZM171.72 22.7363V10.7363H174.72V22.7363H171.72ZM182.28 25.7363V13.7363H179.28V10.7363H188.28V13.7363H185.28V25.7363H182.28ZM192.84 25.7363V10.7363H195.84V25.7363H192.84ZM203.4 25.7363V22.7363H200.4V13.7363H203.4V10.7363H209.4V13.7363H212.4V22.7363H209.4V25.7363H203.4ZM203.4 22.6163H209.4V13.8563H203.4V22.6163ZM216.96 25.7363V10.7363H219.96V13.7363H222.96V16.7363H225.96V19.7363H228.96V10.7363H231.96V25.7363H228.96V22.7363H225.96V19.7363H222.96V16.7363H219.96V25.7363H216.96ZM236.52 16.7363V13.7363H239.52V16.7363H236.52ZM236.52 22.7363V19.7363H239.52V22.7363H236.52Z" fill="#131200"/>
<circle cx="242.31" cy="215.235" r="157.648" stroke="#131200" stroke-width="5.14024"/>
<path d="M242.91 58.9053V373.511" stroke="#131200" stroke-width="4" stroke-dasharray="19 2"/>
<path d="M400.218 216.203L242.31 216.203" stroke="#131200" stroke-width="4" stroke-dasharray="19 2"/>
<path d="M242.31 216.213L394.859 175.5" stroke="#131200" stroke-width="4" stroke-dasharray="19 2"/>
<path d="M241.475 217.655L354.148 104.982" stroke="#131200" stroke-width="4" stroke-dasharray="19 2"/>
<path d="M242.916 216.213L394.856 256.926" stroke="#131200" stroke-width="4" stroke-dasharray="19 2"/>
<path d="M241.15 214.452L354.141 327.442" stroke="#131200" stroke-width="4" stroke-dasharray="19 2"/>
<path d="M417.147 202.236V190.986H423.897V193.236H419.397V195.486H423.897V197.736H419.397V202.236H417.147ZM429.927 202.236V199.986H427.677V190.986H429.927V199.986H434.427V202.236H429.927ZM434.427 199.986V190.986H436.677V199.986H434.427ZM440.457 202.236V190.986H442.707V193.236H444.957V195.486H447.207V197.736H449.457V190.986H451.707V202.236H449.457V199.986H447.207V197.736H444.957V195.486H442.707V202.236H440.457ZM455.487 202.236V190.986H462.237V193.236H464.487V199.986H462.237V202.236H455.487ZM457.737 199.986H462.147V193.236H457.737V199.986ZM468.267 202.236V190.986H475.017V193.236H477.267V195.486H475.017V199.986H477.267V202.236H475.017V199.986H472.767V197.736H470.517V202.236H468.267ZM470.517 195.486H474.927V193.236H470.517V195.486ZM481.047 202.236V193.236H483.297V190.986H487.797V193.236H490.047V202.236H487.797V197.736H483.297V202.236H481.047ZM483.297 195.486H487.797V193.326H483.297V195.486ZM493.827 202.236V190.986H496.077V202.236H493.827ZM502.107 193.236V190.986H508.857V193.236H502.107ZM506.607 199.986V197.736H502.107V195.486H499.857V193.236H502.107V195.486H506.607V197.736H508.857V199.986H506.607ZM499.857 202.236V199.986H506.607V202.236H499.857ZM512.637 202.236V190.986H519.387V193.236H514.887V195.486H519.387V197.736H514.887V199.986H519.387V202.236H512.637Z" fill="black"/>
<path d="M410.554 121.918V112.918H408.304V110.668H415.054V112.918H412.804V121.918H410.554ZM418.834 121.918V110.668H425.584V112.918H421.084V115.168H425.584V117.418H421.084V119.668H425.584V121.918H418.834ZM429.364 121.918V112.918H431.614V110.668H436.114V112.918H438.364V121.918H436.114V117.418H431.614V121.918H429.364ZM431.614 115.168H436.114V113.008H431.614V115.168ZM442.144 121.918V110.668H444.394V112.918H446.644V115.168H448.894V117.418H446.644V115.168H444.394V121.918H442.144ZM451.144 121.918V115.168H448.894V112.918H451.144V110.668H453.394V121.918H451.144ZM469.954 124.168V121.918H467.704V119.668H465.454V117.418H467.704V115.168H465.454V112.918H467.704V110.668H469.954V108.418H472.204V110.668H474.454V112.918H467.704V115.168H472.204V117.418H467.704V119.668H474.454V121.918H472.204V124.168H469.954ZM408.304 144.918V133.668H415.054V135.918H417.304V142.668H415.054V144.918H408.304ZM410.554 142.668H414.964V135.918H410.554V142.668ZM421.084 144.918V133.668H427.834V135.918H423.334V138.168H427.834V140.418H423.334V142.668H427.834V144.918H421.084ZM436.114 144.918V142.668H433.864V138.168H431.614V133.668H433.864V138.168H436.114V142.668H438.364V144.918H436.114ZM440.614 138.168V133.668H442.864V138.168H440.614ZM438.364 142.668V138.168H440.614V142.668H438.364ZM446.644 144.918V133.668H453.394V135.918H448.894V138.168H453.394V140.418H448.894V142.668H453.394V144.918H446.644ZM457.174 144.918V133.668H459.424V142.668H463.924V144.918H457.174ZM469.954 144.918V142.668H467.704V135.918H469.954V133.668H474.454V135.918H476.704V142.668H474.454V144.918H469.954ZM469.954 142.578H474.454V136.008H469.954V142.578ZM480.484 144.918V133.668H487.234V135.918H489.484V138.168H487.234V140.418H482.734V144.918H480.484ZM482.734 138.168H487.144V135.918H482.734V138.168ZM493.264 144.918V133.668H495.514V135.918H497.764V138.168H500.014V140.418H497.764V138.168H495.514V144.918H493.264ZM502.264 144.918V138.168H500.014V135.918H502.264V133.668H504.514V144.918H502.264ZM508.294 144.918V133.668H515.044V135.918H510.544V138.168H515.044V140.418H510.544V142.668H515.044V144.918H508.294ZM518.824 144.918V133.668H521.074V135.918H523.324V138.168H525.574V140.418H527.824V133.668H530.074V144.918H527.824V142.668H525.574V140.418H523.324V138.168H521.074V144.918H518.824ZM536.104 144.918V135.918H533.854V133.668H540.604V135.918H538.354V144.918H536.104Z" fill="black"/>
<path d="M330.804 66.5928V55.3428H333.054V64.3428H337.554V66.5928H330.804ZM341.334 66.5928V55.3428H343.584V66.5928H341.334ZM354.114 68.8428V66.5928H349.614V64.3428H347.364V57.5928H349.614V55.3428H354.114V57.5928H356.364V64.3428H354.114V66.5928H356.364V68.8428H354.114ZM349.614 64.2528H354.114V57.6828H349.614V64.2528ZM362.394 66.5928V64.3428H360.144V55.3428H362.394V64.3428H366.894V66.5928H362.394ZM366.894 64.3428V55.3428H369.144V64.3428H366.894ZM372.924 66.5928V55.3428H375.174V66.5928H372.924ZM378.954 66.5928V55.3428H385.704V57.5928H387.954V64.3428H385.704V66.5928H378.954ZM381.204 64.3428H385.614V57.5928H381.204V64.3428ZM391.734 66.5928V55.3428H393.984V66.5928H391.734ZM400.014 66.5928V57.5928H397.764V55.3428H404.514V57.5928H402.264V66.5928H400.014ZM412.794 66.5928V59.8428H410.544V57.5928H408.294V55.3428H410.544V57.5928H412.794V59.8428H415.044V66.5928H412.794ZM417.294 57.5928V55.3428H419.544V57.5928H417.294ZM415.044 59.8428V57.5928H417.294V59.8428H415.044ZM436.104 68.8428V66.5928H433.854V64.3428H431.604V62.0928H433.854V59.8428H431.604V57.5928H433.854V55.3428H436.104V53.0928H438.354V55.3428H440.604V57.5928H433.854V59.8428H438.354V62.0928H433.854V64.3428H440.604V66.5928H438.354V68.8428H436.104ZM452.664 66.5928V55.3428H454.914V57.5928H457.164V59.8428H459.414V62.0928H457.164V59.8428H454.914V66.5928H452.664ZM461.664 66.5928V59.8428H459.414V57.5928H461.664V55.3428H463.914V66.5928H461.664ZM467.694 66.5928V55.3428H469.944V57.5928H472.194V59.8428H474.444V62.0928H472.194V59.8428H469.944V66.5928H467.694ZM476.694 66.5928V59.8428H474.444V57.5928H476.694V55.3428H478.944V66.5928H476.694Z" fill="black"/>
<path d="M2.25 66.5928V55.3428H4.5V57.5928H6.75V59.8428H9V62.0928H6.75V59.8428H4.5V66.5928H2.25ZM11.25 66.5928V59.8428H9V57.5928H11.25V55.3428H13.5V66.5928H11.25ZM17.28 66.5928V55.3428H19.53V66.5928H17.28ZM23.31 66.5928V55.3428H25.56V57.5928H27.81V59.8428H30.06V62.0928H32.31V55.3428H34.56V66.5928H32.31V64.3428H30.06V62.0928H27.81V59.8428H25.56V66.5928H23.31ZM38.34 66.5928V55.3428H40.59V66.5928H38.34ZM44.37 66.5928V55.3428H46.62V57.5928H48.87V59.8428H51.12V62.0928H53.37V55.3428H55.62V66.5928H53.37V64.3428H51.12V62.0928H48.87V59.8428H46.62V66.5928H44.37ZM61.65 57.5928V55.3428H68.4V57.5928H61.65ZM59.4 64.3428V57.5928H61.65V64.3428H59.4ZM66.15 64.3428V62.0928H63.9V59.8428H68.4V64.3428H66.15ZM61.65 66.5928V64.3428H66.15V66.5928H61.65ZM4.5 89.5928V80.5928H2.25V78.3428H9V80.5928H6.75V89.5928H4.5ZM12.78 89.5928V78.3428H19.53V80.5928H21.78V82.8428H19.53V87.3428H21.78V89.5928H19.53V87.3428H17.28V85.0928H15.03V89.5928H12.78ZM15.03 82.8428H19.44V80.5928H15.03V82.8428ZM25.56 89.5928V78.3428H32.31V80.5928H27.81V82.8428H32.31V85.0928H27.81V87.3428H32.31V89.5928H25.56ZM36.09 89.5928V80.5928H38.34V78.3428H42.84V80.5928H45.09V89.5928H42.84V85.0928H38.34V89.5928H36.09ZM38.34 82.8428H42.84V80.6828H38.34V82.8428ZM51.12 80.5928V78.3428H57.87V80.5928H51.12ZM55.62 87.3428V85.0928H51.12V82.8428H48.87V80.5928H51.12V82.8428H55.62V85.0928H57.87V87.3428H55.62ZM48.87 89.5928V87.3428H55.62V89.5928H48.87ZM63.9 89.5928V87.3428H61.65V78.3428H63.9V87.3428H68.4V89.5928H63.9ZM68.4 87.3428V78.3428H70.65V87.3428H68.4ZM74.43 89.5928V78.3428H81.18V80.5928H83.43V82.8428H81.18V87.3428H83.43V89.5928H81.18V87.3428H78.93V85.0928H76.68V89.5928H74.43ZM76.68 82.8428H81.09V80.5928H76.68V82.8428ZM91.71 89.5928V82.8428H89.46V80.5928H87.21V78.3428H89.46V80.5928H91.71V82.8428H93.96V89.5928H91.71ZM96.21 80.5928V78.3428H98.46V80.5928H96.21ZM93.96 82.8428V80.5928H96.21V82.8428H93.96Z" fill="black"/>
<path d="M417.147 246.236V234.986H419.397V237.236H421.647V239.486H423.897V241.736H421.647V239.486H419.397V246.236H417.147ZM426.147 246.236V239.486H423.897V237.236H426.147V234.986H428.397V246.236H426.147ZM432.177 246.236V237.236H434.427V234.986H438.927V237.236H441.177V246.236H438.927V241.736H434.427V246.236H432.177ZM434.427 239.486H438.927V237.326H434.427V239.486ZM444.957 246.236V234.986H451.707V237.236H453.957V239.486H451.707V243.986H453.957V246.236H451.707V243.986H449.457V241.736H447.207V246.236H444.957ZM447.207 239.486H451.617V237.236H447.207V239.486ZM457.737 246.236V234.986H459.987V239.486H462.237V241.736H464.487V243.986H466.737V246.236H464.487V243.986H462.237V241.736H459.987V246.236H457.737ZM464.487 237.236V234.986H466.737V237.236H464.487ZM462.237 239.486V237.236H464.487V239.486H462.237ZM470.517 246.236V234.986H477.267V237.236H472.767V239.486H477.267V241.736H472.767V243.986H477.267V246.236H470.517ZM483.297 246.236V237.236H481.047V234.986H487.797V237.236H485.547V246.236H483.297ZM491.577 246.236V234.986H493.827V246.236H491.577ZM497.607 246.236V234.986H499.857V237.236H502.107V239.486H504.357V241.736H506.607V234.986H508.857V246.236H506.607V243.986H504.357V241.736H502.107V239.486H499.857V246.236H497.607ZM514.887 237.236V234.986H521.637V237.236H514.887ZM512.637 243.986V237.236H514.887V243.986H512.637ZM519.387 243.986V241.736H517.137V239.486H521.637V243.986H519.387ZM514.887 246.236V243.986H519.387V246.236H514.887ZM538.197 248.486V246.236H535.947V243.986H533.697V241.736H535.947V239.486H533.697V237.236H535.947V234.986H538.197V232.736H540.447V234.986H542.697V237.236H535.947V239.486H540.447V241.736H535.947V243.986H542.697V246.236H540.447V248.486H538.197ZM419.397 260.236V257.986H426.147V260.236H419.397ZM417.147 266.986V260.236H419.397V266.986H417.147ZM423.897 266.986V264.736H421.647V262.486H426.147V266.986H423.897ZM419.397 269.236V266.986H423.897V269.236H419.397ZM429.927 269.236V257.986H436.677V260.236H438.927V262.486H436.677V266.986H438.927V269.236H436.677V266.986H434.427V264.736H432.177V269.236H429.927ZM432.177 262.486H436.587V260.236H432.177V262.486ZM444.957 269.236V266.986H442.707V260.236H444.957V257.986H449.457V260.236H451.707V266.986H449.457V269.236H444.957ZM444.957 266.896H449.457V260.326H444.957V266.896ZM457.737 269.236V266.986H455.487V257.986H457.737V266.986H459.987V269.236H457.737ZM464.487 266.986V257.986H466.737V266.986H464.487ZM462.237 269.236V266.986H459.987V260.236H462.237V266.986H464.487V269.236H462.237ZM472.767 269.236V260.236H470.517V257.986H477.267V260.236H475.017V269.236H472.767ZM481.047 269.236V257.986H483.297V262.486H487.797V257.986H490.047V269.236H487.797V264.736H483.297V269.236H481.047Z" fill="black"/>
<path d="M380.403 326.003V314.753H387.153V317.003H382.653V319.253H387.153V321.503H382.653V323.753H387.153V326.003H380.403ZM397.683 319.253V317.003H393.183V314.753H397.683V317.003H399.933V319.253H397.683ZM393.183 326.003V323.753H390.933V317.003H393.183V323.753H397.683V326.003H393.183ZM397.683 323.753V321.503H399.933V323.753H397.683ZM405.963 326.003V323.753H403.713V317.003H405.963V314.753H410.463V317.003H412.713V323.753H410.463V326.003H405.963ZM405.963 323.663H410.463V317.093H405.963V323.663ZM418.743 317.003V314.753H425.493V317.003H418.743ZM423.243 323.753V321.503H418.743V319.253H416.493V317.003H418.743V319.253H423.243V321.503H425.493V323.753H423.243ZM416.493 326.003V323.753H423.243V326.003H416.493ZM433.773 326.003V319.253H431.523V317.003H429.273V314.753H431.523V317.003H433.773V319.253H436.023V326.003H433.773ZM438.273 317.003V314.753H440.523V317.003H438.273ZM436.023 319.253V317.003H438.273V319.253H436.023ZM446.553 317.003V314.753H453.303V317.003H446.553ZM451.053 323.753V321.503H446.553V319.253H444.303V317.003H446.553V319.253H451.053V321.503H453.303V323.753H451.053ZM444.303 326.003V323.753H451.053V326.003H444.303ZM459.333 326.003V317.003H457.083V314.753H463.833V317.003H461.583V326.003H459.333ZM467.613 326.003V314.753H474.363V317.003H469.863V319.253H474.363V321.503H469.863V323.753H474.363V326.003H467.613ZM478.143 326.003V314.753H480.393V317.003H482.643V319.253H484.893V321.503H482.643V319.253H480.393V326.003H478.143ZM487.143 326.003V319.253H484.893V317.003H487.143V314.753H489.393V326.003H487.143ZM380.403 349.003V337.753H387.153V340.003H382.653V342.253H387.153V344.503H382.653V349.003H380.403ZM393.183 349.003V346.753H390.933V337.753H393.183V346.753H397.683V349.003H393.183ZM397.683 346.753V337.753H399.933V346.753H397.683ZM403.713 349.003V337.753H405.963V340.003H408.213V342.253H410.463V344.503H412.713V337.753H414.963V349.003H412.713V346.753H410.463V344.503H408.213V342.253H405.963V349.003H403.713ZM418.743 349.003V337.753H425.493V340.003H427.743V346.753H425.493V349.003H418.743ZM420.993 346.753H425.403V340.003H420.993V346.753ZM436.023 342.253V337.753H438.273V342.253H436.023ZM433.773 344.503V342.253H436.023V344.503H433.773ZM431.523 349.003V344.503H433.773V349.003H431.523ZM442.053 349.003V337.753H448.803V340.003H451.053V346.753H448.803V349.003H442.053ZM444.303 346.753H448.713V340.003H444.303V346.753ZM454.833 349.003V340.003H457.083V337.753H461.583V340.003H463.833V349.003H461.583V344.503H457.083V349.003H454.833ZM457.083 342.253H461.583V340.093H457.083V342.253ZM469.863 349.003V346.753H467.613V340.003H469.863V337.753H474.363V340.003H476.613V346.753H474.363V349.003H469.863ZM469.863 346.663H474.363V340.093H469.863V346.663Z" fill="black"/>
<path d="M343.809 238.736V234.236H346.059V231.986H348.309V229.736H341.559V227.486H350.559V231.986H348.309V234.236H346.059V238.736H343.809ZM356.589 238.736V236.486H358.839V238.736H356.589ZM354.339 240.986V238.736H356.589V240.986H354.339ZM369.369 236.486V234.236H362.619V227.486H371.619V229.736H364.869V231.986H369.369V234.236H371.619V236.486H369.369ZM362.619 238.736V236.486H369.369V238.736H362.619ZM382.149 238.736V234.236H379.899V231.986H375.399V227.486H379.899V231.986H382.149V234.236H386.649V238.736H382.149ZM382.149 231.986V227.486H384.399V231.986H382.149ZM377.649 238.736V234.236H379.899V238.736H377.649Z" fill="black"/>
<path d="M343.809 206.236V201.736H346.059V199.486H348.309V197.236H341.559V194.986H350.559V199.486H348.309V201.736H346.059V206.236H343.809ZM356.589 206.236V203.986H358.839V206.236H356.589ZM354.339 208.486V206.236H356.589V208.486H354.339ZM369.369 203.986V201.736H362.619V194.986H371.619V197.236H364.869V199.486H369.369V201.736H371.619V203.986H369.369ZM362.619 206.236V203.986H369.369V206.236H362.619ZM382.149 206.236V201.736H379.899V199.486H375.399V194.986H379.899V199.486H382.149V201.736H386.649V206.236H382.149ZM382.149 199.486V194.986H384.399V199.486H382.149ZM377.649 206.236V201.736H379.899V206.236H377.649Z" fill="black"/>
<path d="M327.499 163.918V161.668H329.749V154.918H327.499V152.668H331.999V161.668H334.249V163.918H327.499ZM340.279 163.918V161.668H338.029V154.918H340.279V152.668H344.779V154.918H347.029V161.668H344.779V163.918H340.279ZM340.279 161.578H344.779V155.008H340.279V161.578ZM357.559 163.918V159.418H355.309V157.168H350.809V152.668H355.309V157.168H357.559V159.418H362.059V163.918H357.559ZM357.559 157.168V152.668H359.809V157.168H357.559ZM353.059 163.918V159.418H355.309V163.918H353.059Z" fill="black"/>
<path d="M327.499 283.498V281.248H329.749V274.498H327.499V272.248H331.999V281.248H334.249V283.498H327.499ZM340.279 283.498V281.248H338.029V274.498H340.279V272.248H344.779V274.498H347.029V281.248H344.779V283.498H340.279ZM340.279 281.158H344.779V274.588H340.279V281.158ZM357.559 283.498V278.998H355.309V276.748H350.809V272.248H355.309V276.748H357.559V278.998H362.059V283.498H357.559ZM357.559 276.748V272.248H359.809V276.748H357.559ZM353.059 283.498V278.998H355.309V283.498H353.059Z" fill="black"/>
<path d="M268.224 327.442V325.192H270.474V318.442H268.224V316.192H272.724V325.192H274.974V327.442H268.224ZM285.504 325.192V322.942H278.754V316.192H287.754V318.442H281.004V320.692H285.504V322.942H287.754V325.192H285.504ZM278.754 327.442V325.192H285.504V327.442H278.754ZM298.284 327.442V322.942H296.034V320.692H291.534V316.192H296.034V320.692H298.284V322.942H302.784V327.442H298.284ZM298.284 320.692V316.192H300.534V320.692H298.284ZM293.784 327.442V322.942H296.034V327.442H293.784Z" fill="black"/>
<path d="M268.224 108.236V105.986H270.474V99.2363H268.224V96.9863H272.724V105.986H274.974V108.236H268.224ZM285.504 105.986V103.736H278.754V96.9863H287.754V99.2363H281.004V101.486H285.504V103.736H287.754V105.986H285.504ZM278.754 108.236V105.986H285.504V108.236H278.754ZM298.284 108.236V103.736H296.034V101.486H291.534V96.9863H296.034V101.486H298.284V103.736H302.784V108.236H298.284ZM298.284 101.486V96.9863H300.534V101.486H298.284ZM293.784 108.236V103.736H296.034V108.236H293.784Z" fill="black"/>
<path d="M159.396 220.484V218.234H152.646V211.484H161.646V213.734H154.896V215.984H159.396V218.234H161.646V220.484H159.396ZM152.646 222.734V220.484H159.396V222.734H152.646ZM167.676 222.734V220.484H165.426V213.734H167.676V211.484H172.176V213.734H174.426V220.484H172.176V222.734H167.676ZM167.676 220.394H172.176V213.824H167.676V220.394ZM184.956 222.734V218.234H182.706V215.984H178.206V211.484H182.706V215.984H184.956V218.234H189.456V222.734H184.956ZM184.956 215.984V211.484H187.206V215.984H184.956ZM180.456 222.734V218.234H182.706V222.734H180.456Z" fill="black"/>
</svg>
