<svg width="37" height="36" viewBox="0 0 37 36" fill="none" xmlns="http://www.w3.org/2000/svg">
<rect width="3" height="3" transform="matrix(6.24105e-08 1 1 -6.24105e-08 12.5005 9)" fill="#A9E000"/>
<rect width="3" height="3" transform="matrix(6.24105e-08 1 1 -6.24105e-08 9.50049 6)" fill="#A9E000"/>
<rect width="3" height="3" transform="matrix(6.24105e-08 1 1 -6.24105e-08 15.5005 30)" fill="#A9E000"/>
<rect width="3" height="3" transform="matrix(6.24105e-08 1 1 -6.24105e-08 9.50049 9)" fill="#A9E000"/>
<rect width="3" height="3" transform="matrix(6.24105e-08 1 1 -6.24105e-08 6.50049 9)" fill="#A9E000"/>
<rect width="3" height="3" transform="matrix(6.24105e-08 1 1 -6.24105e-08 12.5005 30)" fill="#A9E000"/>
<rect width="3" height="3" transform="matrix(6.24105e-08 1 1 -6.24105e-08 9.50049 30)" fill="#A9E000"/>
<rect width="3" height="3" transform="matrix(6.24105e-08 1 1 -6.24105e-08 30.5005 9)" fill="#A9E000"/>
<rect width="3" height="3" transform="matrix(6.24105e-08 1 1 -6.24105e-08 27.5005 15)" fill="#A9E000"/>
<rect width="3" height="3" transform="matrix(6.24105e-08 1 1 -6.24105e-08 30.5005 12)" fill="#A9E000"/>
<rect width="3" height="3" transform="matrix(6.24105e-08 1 1 -6.24105e-08 27.5005 18)" fill="#A9E000"/>
<rect width="3" height="3" transform="matrix(6.24105e-08 1 1 -6.24105e-08 27.5005 24)" fill="#A9E000"/>
<rect width="3" height="3" transform="matrix(6.24105e-08 1 1 -6.24105e-08 27.5005 21)" fill="#A9E000"/>
<rect width="3" height="3" transform="matrix(6.24105e-08 1 1 -6.24105e-08 27.5005 27)" fill="#A9E000"/>
<rect width="3" height="3" transform="matrix(6.24105e-08 1 1 -6.24105e-08 18.5005 9)" fill="#A9E000"/>
<rect width="3" height="3" transform="matrix(6.24105e-08 1 1 -6.24105e-08 18.5005 3)" fill="#A9E000"/>
<rect width="3" height="3" transform="matrix(6.24105e-08 1 1 -6.24105e-08 21.5005 3)" fill="#A9E000"/>
<rect width="3" height="3" transform="matrix(6.24105e-08 1 1 -6.24105e-08 21.5005 30)" fill="#A9E000"/>
<rect width="3" height="3" transform="matrix(6.24105e-08 1 1 -6.24105e-08 15.5005 9)" fill="#A9E000"/>
<rect width="3" height="3" transform="matrix(6.24105e-08 1 1 -6.24105e-08 15.5005 3)" fill="#A9E000"/>
<rect width="3" height="3" transform="matrix(6.24105e-08 1 1 -6.24105e-08 12.5005 3)" fill="#A9E000"/>
<rect width="3" height="3" transform="matrix(6.24105e-08 1 1 -6.24105e-08 18.5005 30)" fill="#A9E000"/>
<rect width="3" height="3" transform="matrix(6.24105e-08 1 1 -6.24105e-08 24.5005 30)" fill="#A9E000"/>
<rect width="3" height="3" transform="matrix(6.24105e-08 1 1 -6.24105e-08 21.5005 9)" fill="#A9E000"/>
<rect width="3" height="3" transform="matrix(6.24105e-08 1 1 -6.24105e-08 24.5005 6)" fill="#A9E000"/>
<rect width="3" height="3" transform="matrix(6.24105e-08 1 1 -6.24105e-08 24.5005 9)" fill="#A9E000"/>
<rect width="3" height="3" transform="matrix(6.24105e-08 1 1 -6.24105e-08 27.5005 9)" fill="#A9E000"/>
<rect width="3" height="3" transform="matrix(6.24105e-08 1 1 -6.24105e-08 3.50049 9)" fill="#A9E000"/>
<rect width="3" height="3" transform="matrix(6.24105e-08 1 1 -6.24105e-08 6.50049 15)" fill="#A9E000"/>
<rect width="3" height="3" transform="matrix(6.24105e-08 1 1 -6.24105e-08 3.50049 12)" fill="#A9E000"/>
<rect width="3" height="3" transform="matrix(6.24105e-08 1 1 -6.24105e-08 6.50049 18)" fill="#A9E000"/>
<rect width="3" height="3" transform="matrix(6.24105e-08 1 1 -6.24105e-08 12.5005 18)" fill="#A9E000"/>
<rect width="3" height="3" transform="matrix(6.24105e-08 1 1 -6.24105e-08 21.5005 18)" fill="#A9E000"/>
<rect width="3" height="3" transform="matrix(6.24105e-08 1 1 -6.24105e-08 6.50049 21)" fill="#A9E000"/>
<rect width="3" height="3" transform="matrix(6.24105e-08 1 1 -6.24105e-08 12.5005 21)" fill="#A9E000"/>
<rect width="3" height="3" transform="matrix(6.24105e-08 1 1 -6.24105e-08 21.5005 21)" fill="#A9E000"/>
<rect width="3" height="3" transform="matrix(6.24105e-08 1 1 -6.24105e-08 6.50049 24)" fill="#A9E000"/>
<rect width="3" height="3" transform="matrix(6.24105e-08 1 1 -6.24105e-08 12.5005 24)" fill="#A9E000"/>
<rect width="3" height="3" transform="matrix(6.24105e-08 1 1 -6.24105e-08 21.5005 24)" fill="#A9E000"/>
<rect width="3" height="3" transform="matrix(6.24105e-08 1 1 -6.24105e-08 6.50049 27)" fill="#A9E000"/>
</svg>
