<svg width="52" height="44" viewBox="0 0 52 44" fill="none" xmlns="http://www.w3.org/2000/svg">
<path d="M49.2409 0.0394456L30.645 18.3385L30.6193 18.3638L30.6422 18.3917L51.6374 43.9606H36.3817L22.2093 26.6994L22.1819 26.666L22.1511 26.6963L4.60671 43.9606H0.205911L20.1893 24.2966L20.215 24.2713L20.1921 24.2435L0.318602 0.0394456H15.5743L28.6259 15.935L28.6533 15.9684L28.6841 15.9381L44.8402 0.0394456H49.2409ZM6.87214 2.9884H6.78871L6.84165 3.05288L37.9972 40.9972L38.009 41.0116H38.0277H45.083H45.1664L45.1135 40.9471L13.9579 3.00281L13.9461 2.9884H13.9274H6.87214Z" fill="#A9E000" stroke="#A9E000" stroke-width="0.0788912"/>
</svg>
