<svg width="160" height="80" viewBox="0 0 160 80" fill="none" xmlns="http://www.w3.org/2000/svg">
<rect x="58.1818" y="65.4546" width="7.27273" height="7.27273" transform="rotate(90 58.1818 65.4546)" fill="#A9E000"/>
<rect x="58.1818" y="72.7271" width="7.27273" height="7.27273" transform="rotate(90 58.1818 72.7271)" fill="#A9E000"/>
<rect x="65.4545" y="58.1816" width="7.27273" height="7.27273" transform="rotate(90 65.4545 58.1816)" fill="#A9E000"/>
<rect x="72.7273" y="50.9092" width="7.27273" height="7.27273" transform="rotate(90 72.7273 50.9092)" fill="#A9E000"/>
<rect x="123.636" y="58.1816" width="7.27273" height="7.27273" transform="rotate(90 123.636 58.1816)" fill="#A9E000"/>
<rect width="7.27273" height="7.27273" transform="matrix(6.24105e-08 1 1 -6.24105e-08 36.3636 58.1816)" fill="#A9E000"/>
<rect x="116.364" y="65.4546" width="7.27273" height="7.27273" transform="rotate(90 116.364 65.4546)" fill="#A9E000"/>
<rect width="7.27273" height="7.27273" transform="matrix(6.24105e-08 1 1 -6.24105e-08 43.6364 65.4546)" fill="#A9E000"/>
<rect x="72.7273" y="36.3638" width="7.27273" height="7.27273" transform="rotate(90 72.7273 36.3638)" fill="#A9E000"/>
<rect x="123.636" y="43.6362" width="7.27273" height="7.27273" transform="rotate(90 123.636 43.6362)" fill="#A9E000"/>
<rect width="7.27273" height="7.27273" transform="matrix(6.24105e-08 1 1 -6.24105e-08 36.3636 43.6362)" fill="#A9E000"/>
<rect x="72.7273" width="7.27273" height="7.27273" transform="rotate(90 72.7273 0)" fill="#A9E000"/>
<rect x="123.636" y="7.27295" width="7.27273" height="7.27273" transform="rotate(90 123.636 7.27295)" fill="#A9E000"/>
<rect width="7.27273" height="7.27273" transform="matrix(6.24105e-08 1 1 -6.24105e-08 36.3636 7.27295)" fill="#A9E000"/>
<rect x="65.4545" y="29.0908" width="7.27273" height="7.27273" transform="rotate(90 65.4545 29.0908)" fill="#A9E000"/>
<rect x="116.364" y="36.3638" width="7.27273" height="7.27273" transform="rotate(90 116.364 36.3638)" fill="#A9E000"/>
<rect width="7.27273" height="7.27273" transform="matrix(6.24105e-08 1 1 -6.24105e-08 43.6364 36.3638)" fill="#A9E000"/>
<rect x="101.818" y="29.0908" width="7.27273" height="7.27273" transform="rotate(90 101.818 29.0908)" fill="#A9E000"/>
<rect x="152.727" y="36.3638" width="7.27273" height="7.27273" transform="rotate(90 152.727 36.3638)" fill="#A9E000"/>
<rect width="7.27273" height="7.27273" transform="matrix(6.24105e-08 1 1 -6.24105e-08 7.27271 36.3638)" fill="#A9E000"/>
<rect x="65.4545" y="21.8184" width="7.27273" height="7.27273" transform="rotate(90 65.4545 21.8184)" fill="#A9E000"/>
<rect x="116.364" y="29.0908" width="7.27273" height="7.27273" transform="rotate(90 116.364 29.0908)" fill="#A9E000"/>
<rect width="7.27273" height="7.27273" transform="matrix(6.24105e-08 1 1 -6.24105e-08 43.6364 29.0908)" fill="#A9E000"/>
<rect x="101.818" y="21.8184" width="7.27273" height="7.27273" transform="rotate(90 101.818 21.8184)" fill="#A9E000"/>
<rect x="152.727" y="29.0908" width="7.27273" height="7.27273" transform="rotate(90 152.727 29.0908)" fill="#A9E000"/>
<rect width="7.27273" height="7.27273" transform="matrix(6.24105e-08 1 1 -6.24105e-08 7.27271 29.0908)" fill="#A9E000"/>
<rect x="65.4545" y="14.5454" width="7.27273" height="7.27273" transform="rotate(90 65.4545 14.5454)" fill="#A9E000"/>
<rect x="116.364" y="21.8184" width="7.27273" height="7.27273" transform="rotate(90 116.364 21.8184)" fill="#A9E000"/>
<rect width="7.27273" height="7.27273" transform="matrix(6.24105e-08 1 1 -6.24105e-08 43.6364 21.8184)" fill="#A9E000"/>
<rect x="101.818" y="14.5454" width="7.27273" height="7.27273" transform="rotate(90 101.818 14.5454)" fill="#A9E000"/>
<rect x="152.727" y="21.8184" width="7.27273" height="7.27273" transform="rotate(90 152.727 21.8184)" fill="#A9E000"/>
<rect width="7.27273" height="7.27273" transform="matrix(6.24105e-08 1 1 -6.24105e-08 7.27271 21.8184)" fill="#A9E000"/>
<rect x="65.4545" y="7.27295" width="7.27273" height="7.27273" transform="rotate(90 65.4545 7.27295)" fill="#A9E000"/>
<rect x="116.364" y="14.5454" width="7.27273" height="7.27273" transform="rotate(90 116.364 14.5454)" fill="#A9E000"/>
<rect width="7.27273" height="7.27273" transform="matrix(6.24105e-08 1 1 -6.24105e-08 43.6364 14.5454)" fill="#A9E000"/>
<rect x="101.818" y="7.27295" width="7.27273" height="7.27273" transform="rotate(90 101.818 7.27295)" fill="#A9E000"/>
<rect x="152.727" y="14.5454" width="7.27273" height="7.27273" transform="rotate(90 152.727 14.5454)" fill="#A9E000"/>
<rect width="7.27273" height="7.27273" transform="matrix(6.24105e-08 1 1 -6.24105e-08 7.27271 14.5454)" fill="#A9E000"/>
<rect x="80" y="50.9092" width="7.27273" height="7.27273" transform="rotate(90 80 50.9092)" fill="#A9E000"/>
<rect x="130.909" y="58.1816" width="7.27273" height="7.27273" transform="rotate(90 130.909 58.1816)" fill="#A9E000"/>
<rect width="7.27273" height="7.27273" transform="matrix(6.24105e-08 1 1 -6.24105e-08 29.0909 58.1816)" fill="#A9E000"/>
<rect x="80" y="36.3638" width="7.27273" height="7.27273" transform="rotate(90 80 36.3638)" fill="#A9E000"/>
<rect x="130.909" y="43.6362" width="7.27273" height="7.27273" transform="rotate(90 130.909 43.6362)" fill="#A9E000"/>
<rect width="7.27273" height="7.27273" transform="matrix(6.24105e-08 1 1 -6.24105e-08 29.0909 43.6362)" fill="#A9E000"/>
<rect x="80" width="7.27273" height="7.27273" transform="rotate(90 80 0)" fill="#A9E000"/>
<rect x="130.909" y="7.27295" width="7.27273" height="7.27273" transform="rotate(90 130.909 7.27295)" fill="#A9E000"/>
<rect width="7.27273" height="7.27273" transform="matrix(6.24105e-08 1 1 -6.24105e-08 29.0909 7.27295)" fill="#A9E000"/>
<rect x="87.2727" y="50.9092" width="7.27273" height="7.27273" transform="rotate(90 87.2727 50.9092)" fill="#A9E000"/>
<rect x="138.182" y="58.1816" width="7.27273" height="7.27273" transform="rotate(90 138.182 58.1816)" fill="#A9E000"/>
<rect width="7.27273" height="7.27273" transform="matrix(6.24105e-08 1 1 -6.24105e-08 21.8182 58.1816)" fill="#A9E000"/>
<rect x="87.2727" y="36.3638" width="7.27273" height="7.27273" transform="rotate(90 87.2727 36.3638)" fill="#A9E000"/>
<rect x="138.182" y="43.6362" width="7.27273" height="7.27273" transform="rotate(90 138.182 43.6362)" fill="#A9E000"/>
<rect width="7.27273" height="7.27273" transform="matrix(6.24105e-08 1 1 -6.24105e-08 21.8182 43.6362)" fill="#A9E000"/>
<rect x="87.2727" width="7.27273" height="7.27273" transform="rotate(90 87.2727 0)" fill="#A9E000"/>
<rect x="138.182" y="7.27295" width="7.27273" height="7.27273" transform="rotate(90 138.182 7.27295)" fill="#A9E000"/>
<rect width="7.27273" height="7.27273" transform="matrix(6.24105e-08 1 1 -6.24105e-08 21.8182 7.27295)" fill="#A9E000"/>
<rect x="94.5455" y="50.9092" width="7.27273" height="7.27273" transform="rotate(90 94.5455 50.9092)" fill="#A9E000"/>
<rect x="145.455" y="58.1816" width="7.27273" height="7.27273" transform="rotate(90 145.455 58.1816)" fill="#A9E000"/>
<rect width="7.27273" height="7.27273" transform="matrix(6.24105e-08 1 1 -6.24105e-08 14.5455 58.1816)" fill="#A9E000"/>
<rect x="94.5455" y="36.3638" width="7.27273" height="7.27273" transform="rotate(90 94.5455 36.3638)" fill="#A9E000"/>
<rect x="145.455" y="43.6362" width="7.27273" height="7.27273" transform="rotate(90 145.455 43.6362)" fill="#A9E000"/>
<rect width="7.27273" height="7.27273" transform="matrix(6.24105e-08 1 1 -6.24105e-08 14.5455 43.6362)" fill="#A9E000"/>
<rect x="94.5455" width="7.27273" height="7.27273" transform="rotate(90 94.5455 0)" fill="#A9E000"/>
<rect x="145.455" y="7.27295" width="7.27273" height="7.27273" transform="rotate(90 145.455 7.27295)" fill="#A9E000"/>
<rect width="7.27273" height="7.27273" transform="matrix(6.24105e-08 1 1 -6.24105e-08 14.5455 7.27295)" fill="#A9E000"/>
<rect x="101.818" y="58.1816" width="7.27273" height="7.27273" transform="rotate(90 101.818 58.1816)" fill="#A9E000"/>
<rect x="152.727" y="65.4546" width="7.27273" height="7.27273" transform="rotate(90 152.727 65.4546)" fill="#A9E000"/>
<rect width="7.27273" height="7.27273" transform="matrix(6.24105e-08 1 1 -6.24105e-08 7.27271 65.4546)" fill="#A9E000"/>
<rect x="109.091" y="65.4546" width="7.27273" height="7.27273" transform="rotate(90 109.091 65.4546)" fill="#A9E000"/>
<rect x="109.091" y="72.7271" width="7.27273" height="7.27273" transform="rotate(90 109.091 72.7271)" fill="#A9E000"/>
<rect x="160" y="72.7271" width="7.27273" height="7.27273" transform="rotate(90 160 72.7271)" fill="#A9E000"/>
<rect width="7.27273" height="7.27273" transform="matrix(6.24105e-08 1 1 -6.24105e-08 0 72.7271)" fill="#A9E000"/>
</svg>
